<svg width="242" height="135" viewBox="0 0 242 135" fill="none" xmlns="http://www.w3.org/2000/svg">
<g clip-path="url(#clip0)">
<path d="M63.4509 42.2903C71.1054 42.2903 77.3106 36.0495 77.3106 28.3511C77.3106 20.6526 71.1054 14.4118 63.4509 14.4118C55.7964 14.4118 49.5912 20.6526 49.5912 28.3511C49.5912 36.0495 55.7964 42.2903 63.4509 42.2903Z" fill="#FFCB77"/>
<path d="M106.913 71.3066H38.9218C38.8367 71.3077 38.7516 71.301 38.6677 71.2864L70.8246 15.2664C71.0209 14.9176 71.3057 14.6273 71.65 14.4254C71.9943 14.2234 72.3857 14.117 72.7842 14.117C73.1828 14.117 73.5742 14.2234 73.9185 14.4254C74.2628 14.6273 74.5476 14.9176 74.7439 15.2664L96.3252 52.8602L97.3591 54.659L106.913 71.3066Z" fill="#227C9D"/>
<path opacity="0.2" d="M106.913 71.3066H83.6993L95.095 54.6589L95.9152 53.4597L96.3253 52.8603L97.3593 54.6589L106.913 71.3066Z" fill="black"/>
<path d="M144.771 71.3066H85.9635L97.3592 54.659L98.1792 53.4598L113.029 31.7648C114.002 30.3429 116.344 30.2544 117.489 31.4966C117.566 31.5813 117.637 31.6709 117.703 31.7648L144.771 71.3066Z" fill="#227C9D"/>
<path d="M162.033 62.0907C164.34 62.0907 166.209 60.2101 166.209 57.8903C166.209 55.5705 164.34 53.6899 162.033 53.6899C159.726 53.6899 157.857 55.5705 157.857 57.8903C157.857 60.2101 159.726 62.0907 162.033 62.0907Z" fill="#FFCB77"/>
<path d="M162.436 70.5421H161.58L161.97 57.2577L162.436 70.5421Z" fill="#227C9D"/>
<path d="M162.045 59.7755L162.964 58.4975L162.033 60.0918L161.932 59.9147L162.045 59.7755Z" fill="#227C9D"/>
<path d="M161.945 61.0658L161.026 59.7881L161.958 61.3821L162.058 61.205L161.945 61.0658Z" fill="#227C9D"/>
<path d="M200.344 62.0907C202.65 62.0907 204.52 60.2101 204.52 57.8903C204.52 55.5705 202.65 53.6899 200.344 53.6899C198.037 53.6899 196.167 55.5705 196.167 57.8903C196.167 60.2101 198.037 62.0907 200.344 62.0907Z" fill="#FFCB77"/>
<path d="M200.746 70.5421H199.891L200.281 57.2577L200.746 70.5421Z" fill="#227C9D"/>
<path d="M200.356 59.7755L201.275 58.4975L200.344 60.0918L200.243 59.9147L200.356 59.7755Z" fill="#227C9D"/>
<path d="M200.256 61.0658L199.337 59.7881L200.268 61.3821L200.369 61.205L200.256 61.0658Z" fill="#227C9D"/>
<path d="M174.131 58.0601C177.538 58.0601 180.299 55.2826 180.299 51.8565C180.299 48.4304 177.538 45.6529 174.131 45.6529C170.725 45.6529 167.963 48.4304 167.963 51.8565C167.963 55.2826 170.725 58.0601 174.131 58.0601Z" fill="#FFCB77"/>
<path d="M174.726 70.5421H173.462L174.038 50.9222L174.726 70.5421Z" fill="#227C9D"/>
<path d="M174.15 54.6405L175.506 52.7535L174.131 55.1079L173.983 54.8462L174.15 54.6405Z" fill="#227C9D"/>
<path d="M174.001 56.5465L172.645 54.6595L174.02 57.0136L174.169 56.7522L174.001 56.5465Z" fill="#227C9D"/>
<path d="M189.173 58.0601C192.58 58.0601 195.342 55.2826 195.342 51.8565C195.342 48.4304 192.58 45.6529 189.173 45.6529C185.767 45.6529 183.005 48.4304 183.005 51.8565C183.005 55.2826 185.767 58.0601 189.173 58.0601Z" fill="#FFCB77"/>
<path d="M189.768 70.5421H188.505L189.081 50.9222L189.768 70.5421Z" fill="#227C9D"/>
<path d="M189.192 54.6405L190.548 52.7535L189.173 55.1079L189.025 54.8462L189.192 54.6405Z" fill="#227C9D"/>
<path d="M189.043 56.5465L187.687 54.6595L189.062 57.0136L189.211 56.7522L189.043 56.5465Z" fill="#227C9D"/>
<path d="M150.158 58.0601C153.564 58.0601 156.326 55.2826 156.326 51.8565C156.326 48.4304 153.564 45.6529 150.158 45.6529C146.751 45.6529 143.99 48.4304 143.99 51.8565C143.99 55.2826 146.751 58.0601 150.158 58.0601Z" fill="#FFCB77"/>
<path d="M150.752 70.5421H149.489L150.065 50.9222L150.752 70.5421Z" fill="#227C9D"/>
<path d="M150.176 54.6405L151.532 52.7535L150.158 55.1079L150.009 54.8462L150.176 54.6405Z" fill="#227C9D"/>
<path d="M150.028 56.5465L148.671 54.6595L150.046 57.0136L150.195 56.7522L150.028 56.5465Z" fill="#227C9D"/>
<path d="M223.133 135H21.838C19.3018 135 16.7905 134.498 14.4474 133.521C12.1043 132.545 9.97533 131.115 8.182 129.311C6.38868 127.507 4.96613 125.366 3.99559 123.01C3.02505 120.653 2.52551 118.127 2.52551 115.577C2.52551 113.026 3.02505 110.5 3.99559 108.144C4.96613 105.787 6.38868 103.646 8.182 101.842C9.97533 100.039 12.1043 98.6081 14.4474 97.6319C16.7905 96.6558 19.3018 96.1534 21.838 96.1534H222.688C224.658 96.1534 226.547 95.3664 227.94 93.9654C229.333 92.5644 230.115 90.6642 230.115 88.683C230.115 86.7017 229.333 84.8015 227.94 83.4005C226.547 81.9995 224.658 81.2125 222.688 81.2125H15.1529V69.2597H222.688C227.81 69.2597 232.722 71.306 236.344 74.9486C239.965 78.5912 242 83.5316 242 88.683C242 93.8343 239.965 98.7747 236.344 102.417C232.722 106.06 227.81 108.106 222.688 108.106H21.838C19.868 108.106 17.9787 108.893 16.5857 110.294C15.1927 111.695 14.4101 113.595 14.4101 115.577C14.4101 117.558 15.1927 119.458 16.5857 120.859C17.9787 122.26 19.868 123.047 21.838 123.047H223.133V135Z" fill="#E6E6E6"/>
<path d="M31.7912 74.9373H22.5807V75.5349H31.7912V74.9373Z" fill="white"/>
<path d="M57.9374 74.9373H48.7268V75.5349H57.9374V74.9373Z" fill="white"/>
<path d="M84.0835 74.9373H74.8729V75.5349H84.0835V74.9373Z" fill="white"/>
<path d="M110.23 74.9373H101.019V75.5349H110.23V74.9373Z" fill="white"/>
<path d="M136.376 74.9373H127.165V75.5349H136.376V74.9373Z" fill="white"/>
<path d="M162.522 74.9373H153.311V75.5349H162.522V74.9373Z" fill="white"/>
<path d="M188.668 74.9373H179.457V75.5349H188.668V74.9373Z" fill="white"/>
<path d="M214.814 74.9373H205.603V75.5349H214.814V74.9373Z" fill="white"/>
<path d="M31.7912 101.831H22.5807V102.429H31.7912V101.831Z" fill="white"/>
<path d="M57.9374 101.831H48.7268V102.429H57.9374V101.831Z" fill="white"/>
<path d="M84.0835 101.831H74.8729V102.429H84.0835V101.831Z" fill="white"/>
<path d="M110.23 101.831H101.019V102.429H110.23V101.831Z" fill="white"/>
<path d="M136.376 101.831H127.165V102.429H136.376V101.831Z" fill="white"/>
<path d="M162.522 101.831H153.311V102.429H162.522V101.831Z" fill="white"/>
<path d="M188.668 101.831H179.457V102.429H188.668V101.831Z" fill="white"/>
<path d="M214.814 101.831H205.603V102.429H214.814V101.831Z" fill="white"/>
<path d="M31.7912 128.725H22.5807V129.322H31.7912V128.725Z" fill="white"/>
<path d="M57.9374 128.725H48.7268V129.322H57.9374V128.725Z" fill="white"/>
<path d="M84.0835 128.725H74.8729V129.322H84.0835V128.725Z" fill="white"/>
<path d="M110.23 128.725H101.019V129.322H110.23V128.725Z" fill="white"/>
<path d="M136.376 128.725H127.165V129.322H136.376V128.725Z" fill="white"/>
<path d="M162.522 128.725H153.311V129.322H162.522V128.725Z" fill="white"/>
<path d="M188.668 128.725H179.457V129.322H188.668V128.725Z" fill="white"/>
<path d="M214.814 128.725H205.603V129.322H214.814V128.725Z" fill="white"/>
<path d="M161.597 23.718C162.565 23.7171 163.517 23.9645 164.363 24.4367H158.839C159.682 23.9646 160.632 23.7172 161.597 23.718Z" fill="#E6E6E6"/>
<path d="M150.878 22.9993C152.494 22.9974 154.071 23.4996 155.392 24.4367H146.37C147.689 23.5007 149.264 22.9985 150.878 22.9993Z" fill="#E6E6E6"/>
<path d="M90.1576 13.9009C90.3536 10.4147 91.7743 7.11179 94.1665 4.58112C96.5586 2.05045 99.7667 0.456478 103.219 0.0834046C106.671 -0.289668 110.142 0.582403 113.014 2.54414C115.886 4.50588 117.973 7.42976 118.901 10.7945C119.078 10.7881 119.255 10.7809 119.434 10.7809C122.599 10.7815 125.679 11.8127 128.213 13.7203C130.747 15.6279 132.598 18.3093 133.491 21.3634C135.588 20.4366 137.931 20.2355 140.155 20.7916C142.378 21.3478 144.354 22.6297 145.776 24.4367H100.078C98.745 24.4405 97.4248 24.1737 96.1966 23.6523C94.9683 23.1309 93.8574 22.3656 92.9302 21.4022C92.003 20.4387 91.2786 19.2971 90.8004 18.0455C90.3222 16.7939 90.1 15.4582 90.1472 14.1182C90.1501 14.0459 90.1536 13.9734 90.1576 13.9009Z" fill="#E6E6E6"/>
<path d="M164.932 34.4755C163.964 34.4746 163.012 34.722 162.166 35.1942H167.69C166.847 34.7221 165.897 34.4747 164.932 34.4755Z" fill="#E6E6E6"/>
<path d="M175.651 33.7568C174.035 33.7549 172.458 34.2571 171.137 35.1942H180.159C178.84 34.2582 177.266 33.756 175.651 33.7568Z" fill="#E6E6E6"/>
<path d="M236.372 24.6584C236.176 21.1722 234.755 17.8693 232.363 15.3386C229.971 12.808 226.763 11.214 223.311 10.8409C219.859 10.4678 216.387 11.3399 213.515 13.3016C210.643 15.2634 208.557 18.1873 207.629 21.552C207.451 21.5456 207.274 21.5384 207.095 21.5384C203.93 21.539 200.85 22.5702 198.316 24.4778C195.783 26.3854 193.931 29.0668 193.039 32.1209C190.941 31.1941 188.598 30.993 186.375 31.5492C184.152 32.1053 182.175 33.3872 180.754 35.1942H226.451C227.784 35.198 229.105 34.9312 230.333 34.4098C231.561 33.8884 232.672 33.1231 233.599 32.1597C234.526 31.1963 235.251 30.0546 235.729 28.803C236.207 27.5514 236.429 26.2156 236.382 24.8757C236.379 24.8034 236.376 24.7309 236.372 24.6584Z" fill="#E6E6E6"/>
<path d="M205.906 126.647L211.217 126.65L211.217 125.802L205.906 125.799L205.906 126.647Z" fill="#227C9D"/>
<path d="M167.505 125.991L168.601 126.246L210.247 126.268L210.622 125.39C211.275 123.885 211.499 122.227 211.269 120.601C211.09 119.389 210.641 118.185 209.62 117.662L207.772 105.282L184.731 105.24L175.817 112.471C175.817 112.471 171.612 112.395 169.327 115.256C168.503 116.319 168.016 117.608 167.931 118.953L167.841 120.441L167.505 125.991Z" fill="#FFCB77"/>
<path d="M176.653 130.956C179.493 130.956 181.795 128.64 181.795 125.784C181.795 122.927 179.493 120.612 176.653 120.612C173.812 120.612 171.51 122.927 171.51 125.784C171.51 128.64 173.812 130.956 176.653 130.956Z" fill="#227C9D"/>
<path d="M176.653 128.506C178.147 128.506 179.359 127.287 179.359 125.784C179.359 124.28 178.147 123.061 176.653 123.061C175.158 123.061 173.946 124.28 173.946 125.784C173.946 127.287 175.158 128.506 176.653 128.506Z" fill="#CCCCCC"/>
<path d="M202.028 130.969C204.868 130.969 207.171 128.654 207.171 125.797C207.171 122.941 204.868 120.625 202.028 120.625C199.188 120.625 196.885 122.941 196.885 125.797C196.885 128.654 199.188 130.969 202.028 130.969Z" fill="#227C9D"/>
<path d="M202.028 128.519C203.523 128.519 204.735 127.301 204.735 125.797C204.735 124.294 203.523 123.075 202.028 123.075C200.533 123.075 199.322 124.294 199.322 125.797C199.322 127.301 200.533 128.519 202.028 128.519Z" fill="#CCCCCC"/>
<path d="M179.359 111.626L191.799 111.632H193.317L195.881 111.633V111.445L195.883 109.178L195.885 106.632H194.179L192.66 106.63L189.97 106.628H188.452L185.346 106.626L179.359 111.626Z" fill="white"/>
<path d="M197.905 111.635L204.48 111.639L204.481 110.342V108.074L204.483 106.637H203.521L202.002 106.635L197.907 106.634L197.905 111.635Z" fill="white"/>
<path d="M195.036 116.976L195.879 116.976L195.88 115.365L195.036 115.365L195.036 116.976Z" fill="#227C9D"/>
<path d="M182.729 113.917L182.729 113.069L181.127 113.068L181.127 113.916L182.729 113.917Z" fill="#227C9D"/>
<path d="M182.139 113.441L182.046 113.441C181.815 113.441 181.586 113.395 181.372 113.306C181.158 113.217 180.964 113.086 180.801 112.922C180.637 112.757 180.507 112.562 180.419 112.347C180.33 112.132 180.285 111.901 180.285 111.668C180.285 111.436 180.331 111.205 180.42 110.99C180.508 110.775 180.638 110.58 180.802 110.416C180.966 110.251 181.16 110.121 181.374 110.032C181.588 109.943 181.817 109.897 182.048 109.897L182.141 109.897L182.139 113.441Z" fill="#227C9D"/>
<path d="M167.841 120.441C168.478 120.511 169.12 120.352 169.652 119.993C170.185 119.634 170.574 119.097 170.752 118.477C170.93 117.857 170.884 117.195 170.623 116.605C170.363 116.016 169.904 115.538 169.327 115.256C168.503 116.319 168.016 117.608 167.931 118.953L167.841 120.441Z" fill="#227C9D"/>
<path d="M192.66 106.63L195.881 111.445L195.883 109.178L194.179 106.632L192.66 106.63Z" fill="#F2F2F2"/>
<path d="M202.002 106.635L204.481 110.342V108.074L203.521 106.637L202.002 106.635Z" fill="#F2F2F2"/>
<path d="M188.452 106.628L191.799 111.632H193.317L189.97 106.628H188.452Z" fill="#F2F2F2"/>
<path d="M13.6673 85.3959C21.2155 85.3959 27.3346 79.2418 27.3346 71.6502C27.3346 64.0587 21.2155 57.9045 13.6673 57.9045C6.11905 57.9045 0 64.0587 0 71.6502C0 79.2418 6.11905 85.3959 13.6673 85.3959Z" fill="#227C9D"/>
<path d="M13.7241 75.7885L6.88454 68.9096C6.66205 68.6854 6.53718 68.3815 6.53735 68.0647C6.53753 67.7479 6.66273 67.4441 6.88546 67.2201C7.1082 66.9961 7.41024 66.8702 7.72523 66.87C8.04023 66.8698 8.3424 66.9954 8.56538 67.2192L13.6104 72.2931L29.7093 53.8295C29.9172 53.5916 30.2105 53.4465 30.5248 53.426C30.839 53.4055 31.1485 53.5113 31.3853 53.7201C31.622 53.9289 31.7667 54.2237 31.7875 54.5397C31.8084 54.8558 31.7036 55.1672 31.4963 55.4056L13.7241 75.7885Z" fill="#FFCB77"/>
</g>
<defs>
<clipPath id="clip0">
<rect width="242" height="135" fill="white"/>
</clipPath>
</defs>
</svg>
