<svg width="166" height="156" viewBox="0 0 166 156" fill="none" xmlns="http://www.w3.org/2000/svg">
<g clip-path="url(#clip0)">
<path d="M132.213 110.836C132.213 110.836 152.75 111.903 147.966 118.399C143.183 124.895 130.614 114.588 130.614 114.588L132.213 110.836Z" fill="#FFB8B8"/>
<path d="M94.368 48.9625L98.5481 50.0126C98.5481 50.0126 100.986 57.363 102.728 64.0134C104.47 70.6638 107.953 90.6149 107.953 90.6149L134.959 109.633L131.738 116.873L95.7614 102.625L87.7495 71.0138L94.368 48.9625Z" fill="#227C9D"/>
<path opacity="0.2" d="M98.3009 62.0096L96.7429 94.7925L99.9939 104.539L90.4707 97.5218L98.3009 62.0096Z" fill="#FFCB77"/>
<path d="M103.947 120.192C103.947 120.192 108.476 132.442 109.172 140.843C109.869 149.243 110.566 155.894 110.566 155.894H89.317L85.137 149.593V155.894H60.4048C60.4048 155.894 53.438 133.142 56.2247 130.342C59.0115 127.542 85.4853 115.641 85.4853 115.641L103.947 120.192Z" fill="#2F2E41"/>
<path d="M144.436 155.575H21.4802V156H144.436V155.575Z" fill="#FFCB77"/>
<path d="M77.2993 35.6617C84.6098 35.6617 90.5362 29.7068 90.5362 22.361C90.5362 15.0152 84.6098 9.06021 77.2993 9.06021C69.9887 9.06021 64.0624 15.0152 64.0624 22.361C64.0624 29.7068 69.9887 35.6617 77.2993 35.6617Z" fill="#FFB8B8"/>
<path d="M67.1974 27.9613L66.1523 43.3622L79.3893 61.2132L86.0077 44.4122C86.0077 44.4122 80.0859 40.562 83.5694 32.5115L67.1974 27.9613Z" fill="#FFB8B8"/>
<path d="M105.862 123.166C105.862 126.318 97.1538 131.217 97.1538 131.217V132.967L93.6704 134.717L86.0074 119.318L83.9186 136.117C83.9186 136.117 68.5905 138.569 63.7146 136.117C58.8366 133.667 56.3986 134.717 49.4318 132.268C42.4651 129.818 52.219 96.9151 52.219 96.9151L45.2522 46.1623L60.4724 38.5155L61.2745 38.1115L63.3675 37.7245L66.5758 37.1291L77.2989 44.4123L78.1624 48.9629L78.6935 51.7635L81.4786 48.6121L83.5821 41.6606L98.5484 50.0134L94.3688 83.6139C94.3688 83.6139 105.862 120.017 105.862 123.166Z" fill="#227C9D"/>
<path d="M54.6572 134.017C54.6572 134.017 70.6809 146.968 63.0174 149.418C55.3539 151.868 51.1738 136.118 51.1738 136.118L54.6572 134.017Z" fill="#FFB8B8"/>
<path d="M48.7354 46.8624L45.252 46.1624C45.252 46.1624 40.0269 48.9625 39.6785 54.5628C39.3302 60.1632 34.8018 99.3654 34.8018 99.3654L49.432 138.918L61.2756 134.367L49.7804 97.2653L58.4889 65.0634L48.7354 46.8624Z" fill="#227C9D"/>
<path d="M78.8312 57.544C79.5324 57.544 80.1009 56.9727 80.1009 56.2681C80.1009 55.5634 79.5324 54.9922 78.8312 54.9922C78.1299 54.9922 77.5614 55.5634 77.5614 56.2681C77.5614 56.9727 78.1299 57.544 78.8312 57.544Z" fill="#2F2E41"/>
<path d="M78.8312 65.8372C79.5324 65.8372 80.1009 65.266 80.1009 64.5613C80.1009 63.8567 79.5324 63.2855 78.8312 63.2855C78.1299 63.2855 77.5614 63.8567 77.5614 64.5613C77.5614 65.266 78.1299 65.8372 78.8312 65.8372Z" fill="#2F2E41"/>
<path d="M86.0265 120.488C86.7277 120.488 87.2962 119.917 87.2962 119.212C87.2962 118.507 86.7277 117.936 86.0265 117.936C85.3252 117.936 84.7567 118.507 84.7567 119.212C84.7567 119.917 85.3252 120.488 86.0265 120.488Z" fill="#2F2E41"/>
<path d="M66.1234 8.73494L63.6765 7.75061C63.6765 7.75061 68.7928 2.09071 75.9111 2.58289L73.9091 0.368129C73.9091 0.368129 78.8029 -1.60051 83.2518 3.56721C85.5906 6.28375 88.2965 9.47693 89.9834 13.074H92.6038L91.5102 15.4938L95.3381 17.9136L91.4091 17.4789C91.6432 18.8041 91.6791 20.1569 91.5157 21.4926C91.3471 22.8288 90.6686 24.0469 89.6231 24.8899C89.6231 24.8899 86.5885 18.5782 86.5885 17.5939V20.0547C86.5885 20.0547 84.1416 17.84 84.1416 16.3635L82.8069 18.0861H73.9091L75.2437 15.8713L70.1275 16.6096L72.1295 13.9027L64.2081 25.0805C64.2081 25.0805 59.6725 12.4262 66.1234 8.73494Z" fill="#2F2E41"/>
<path d="M144.837 102.825C156.525 102.825 166 93.3043 166 81.5601C166 69.8159 156.525 60.2953 144.837 60.2953C133.149 60.2953 123.675 69.8159 123.675 81.5601C123.675 93.3043 133.149 102.825 144.837 102.825Z" fill="#FFCB77"/>
<path opacity="0.1" d="M144.837 99.8478C154.889 99.8478 163.037 91.6601 163.037 81.5601C163.037 71.4601 154.889 63.2724 144.837 63.2724C134.786 63.2724 126.637 71.4601 126.637 81.5601C126.637 91.6601 134.786 99.8478 144.837 99.8478Z" fill="#FFCB77"/>
<path d="M143.965 92.3515V89.6898C142.626 89.6636 141.241 89.189 140.433 88.5302L140.987 86.7646C141.947 87.4876 143.112 87.8845 144.311 87.8977C145.951 87.8977 147.059 86.8172 147.059 85.3151C147.059 83.8656 146.158 82.9696 144.45 82.1789C142.095 81.1248 140.641 79.9125 140.641 77.6198C140.641 75.4323 142.003 73.7721 144.127 73.3768V70.7151H145.558V73.2714C146.626 73.286 147.667 73.606 148.56 74.1937L147.982 75.9331C147.126 75.3441 146.111 75.0315 145.073 75.0371C143.296 75.0371 142.626 76.2493 142.626 77.3035C142.626 78.6739 143.48 79.3591 145.489 80.3079C147.867 81.4147 149.067 82.7851 149.067 85.1305C149.067 87.2125 147.798 89.1628 145.42 89.6106V92.3515H143.965Z" fill="#17C3B2"/>
<path opacity="0.2" d="M52.908 107.36L61.372 133.926L54.5999 106.282L52.908 107.36Z" fill="#FFCB77"/>
<path d="M9.7545 55.4593H4.38197C4.14781 55.459 3.92332 55.3655 3.75775 55.1991C3.59218 55.0327 3.49904 54.8071 3.49878 54.5719V46.8117C3.49904 46.5764 3.59218 46.3508 3.75775 46.1844C3.92332 46.0181 4.14781 45.9245 4.38197 45.9242H9.7545C9.98865 45.9245 10.2131 46.0181 10.3787 46.1844C10.5443 46.3508 10.6374 46.5764 10.6377 46.8117V54.5719C10.6374 54.8071 10.5443 55.0327 10.3787 55.1991C10.2131 55.3655 9.98865 55.459 9.7545 55.4593ZM4.38197 46.3495C4.26003 46.3497 4.14313 46.3984 4.05691 46.485C3.97069 46.5717 3.92218 46.6891 3.92203 46.8117V54.5719C3.92218 54.6944 3.97069 54.8118 4.05691 54.8985C4.14313 54.9851 4.26003 55.0339 4.38197 55.034H9.7545C9.87643 55.0339 9.99334 54.9851 10.0796 54.8985C10.1658 54.8118 10.2143 54.6944 10.2144 54.5719V46.8117C10.2143 46.6891 10.1658 46.5717 10.0796 46.485C9.99334 46.3984 9.87643 46.3497 9.7545 46.3495H4.38197Z" fill="#FFCB77"/>
<path d="M19.5676 55.4593H14.7159C14.4127 55.4589 14.122 55.3378 13.9076 55.1223C13.6932 54.9069 13.5726 54.6148 13.5723 54.3102V38.6382C13.5726 38.3336 13.6932 38.0415 13.9076 37.8261C14.122 37.6106 14.4127 37.4895 14.7159 37.4891H19.5676C19.8708 37.4895 20.1614 37.6106 20.3758 37.8261C20.5902 38.0415 20.7108 38.3336 20.7112 38.6382V54.3102C20.7108 54.6148 20.5902 54.9069 20.3758 55.1223C20.1614 55.3378 19.8708 55.4589 19.5676 55.4593ZM14.7159 37.9144C14.5249 37.9146 14.3418 37.9909 14.2067 38.1266C14.0717 38.2623 13.9957 38.4463 13.9955 38.6382V54.3102C13.9957 54.5021 14.0717 54.6861 14.2067 54.8218C14.3418 54.9575 14.5249 55.0338 14.7159 55.034H19.5676C19.7586 55.0338 19.9417 54.9575 20.0767 54.8218C20.2118 54.6861 20.2877 54.5021 20.2879 54.3102V38.6382C20.2877 38.4463 20.2118 38.2623 20.0767 38.1266C19.9417 37.9909 19.7586 37.9146 19.5676 37.9144L14.7159 37.9144Z" fill="#FFCB77"/>
<path d="M29.4537 55.4593H24.9767C24.6238 55.4589 24.2855 55.3179 24.036 55.0671C23.7865 54.8164 23.6462 54.4765 23.6458 54.1219V31.0663C23.6462 30.7117 23.7865 30.3718 24.036 30.121C24.2855 29.8703 24.6238 29.7293 24.9767 29.7289H29.4537C29.8066 29.7293 30.1449 29.8703 30.3944 30.121C30.6439 30.3718 30.7843 30.7117 30.7847 31.0663V54.1219C30.7843 54.4765 30.6439 54.8164 30.3944 55.0671C30.1449 55.3179 29.8066 55.4589 29.4537 55.4593ZM24.9767 30.1542C24.736 30.1545 24.5053 30.2506 24.3352 30.4216C24.165 30.5926 24.0693 30.8244 24.069 31.0663V54.1219C24.0693 54.3637 24.165 54.5956 24.3352 54.7666C24.5053 54.9375 24.736 55.0337 24.9767 55.034H29.4537C29.6944 55.0337 29.9251 54.9375 30.0953 54.7666C30.2654 54.5956 30.3611 54.3637 30.3614 54.1219V31.0663C30.3611 30.8244 30.2654 30.5926 30.0953 30.4216C29.9251 30.2506 29.6944 30.1545 29.4537 30.1542H24.9767Z" fill="#FFCB77"/>
<path d="M9.0831 47.4021H5.05371V53.9814H9.0831V47.4021Z" fill="#17C3B2"/>
<path d="M19.1566 39.0514H15.1272V53.9814H19.1566V39.0514Z" fill="#17C3B2"/>
<path d="M29.2301 31.2912H25.2007V53.9814H29.2301V31.2912Z" fill="#17C3B2"/>
<path d="M153.007 31.0048H124.86C124.832 31.0048 124.805 30.9993 124.779 30.9886C124.753 30.9779 124.73 30.9623 124.71 30.9425C124.691 30.9228 124.675 30.8993 124.665 30.8735C124.654 30.8477 124.648 30.8201 124.648 30.7921V2.08464C124.648 2.02824 124.671 1.97416 124.71 1.93428C124.75 1.8944 124.804 1.87199 124.86 1.87199C124.916 1.87199 124.97 1.8944 125.01 1.93428C125.049 1.97416 125.072 2.02824 125.072 2.08464V30.5795H153.007C153.063 30.5795 153.116 30.6019 153.156 30.6418C153.196 30.6816 153.218 30.7357 153.218 30.7921C153.218 30.8485 153.196 30.9026 153.156 30.9425C153.116 30.9824 153.063 31.0048 153.007 31.0048Z" fill="#FFCB77"/>
<path d="M33.6488 58.4364H0.211627C0.183834 58.4364 0.156312 58.4309 0.130633 58.4202C0.104954 58.4095 0.0816208 58.3939 0.0619679 58.3741C0.0423151 58.3544 0.0267269 58.3309 0.0160942 58.3051C0.00546152 58.2793 -7.22193e-06 58.2517 7.15768e-09 58.2237V24.838C7.15768e-09 24.7816 0.0222962 24.7275 0.0619841 24.6876C0.101672 24.6478 0.1555 24.6254 0.211627 24.6254C0.267754 24.6254 0.321583 24.6478 0.361271 24.6876C0.400959 24.7275 0.423255 24.7816 0.423255 24.838V58.0111H33.6488C33.7049 58.0111 33.7587 58.0335 33.7984 58.0734C33.8381 58.1133 33.8604 58.1673 33.8604 58.2237C33.8604 58.2801 33.8381 58.3342 33.7984 58.3741C33.7587 58.414 33.7049 58.4364 33.6488 58.4364Z" fill="#FFCB77"/>
<path d="M134.573 28.3397H129.201C128.967 28.3395 128.742 28.2459 128.577 28.0795C128.411 27.9132 128.318 27.6876 128.318 27.4523V19.6921C128.318 19.4568 128.411 19.2312 128.577 19.0648C128.742 18.8984 128.967 18.8049 129.201 18.8046H134.573C134.808 18.8049 135.032 18.8985 135.198 19.0649C135.363 19.2312 135.456 19.4568 135.457 19.6921V27.4523C135.456 27.6876 135.363 27.9131 135.198 28.0795C135.032 28.2459 134.808 28.3394 134.573 28.3397ZM129.201 19.2299C129.079 19.2301 128.962 19.2788 128.876 19.3654C128.79 19.4521 128.741 19.5695 128.741 19.6921V27.4523C128.741 27.5748 128.79 27.6923 128.876 27.7789C128.962 27.8656 129.079 27.9143 129.201 27.9144H134.573C134.695 27.9143 134.812 27.8655 134.898 27.7789C134.985 27.6923 135.033 27.5748 135.033 27.4523V19.6921C135.033 19.5696 134.985 19.4521 134.898 19.3655C134.812 19.2788 134.695 19.2301 134.573 19.2299H129.201Z" fill="#FFCB77"/>
<path d="M145.576 28.3397H140.631C140.34 28.3394 140.061 28.2231 139.856 28.0165C139.65 27.8098 139.534 27.5296 139.534 27.2373V13.1814C139.534 12.8892 139.65 12.609 139.856 12.4023C140.061 12.1957 140.34 12.0794 140.631 12.0791H145.576C145.867 12.0794 146.146 12.1957 146.351 12.4023C146.557 12.609 146.673 12.8892 146.673 13.1814V27.2373C146.673 27.5296 146.557 27.8098 146.351 28.0165C146.146 28.2231 145.867 28.3394 145.576 28.3397ZM140.631 12.5044C140.452 12.5046 140.281 12.576 140.155 12.7029C140.028 12.8298 139.957 13.0019 139.957 13.1814V27.2373C139.957 27.4169 140.028 27.589 140.155 27.7159C140.281 27.8428 140.452 27.9142 140.631 27.9144H145.576C145.754 27.9142 145.926 27.8428 146.052 27.7159C146.178 27.589 146.249 27.4169 146.25 27.2373V13.1814C146.249 13.0019 146.178 12.8298 146.052 12.7029C145.926 12.576 145.754 12.5046 145.576 12.5044H140.631Z" fill="#FFCB77"/>
<path d="M133.805 20.3562H129.776V26.9355H133.805V20.3562Z" fill="#17C3B2"/>
<path d="M145.118 13.8445H141.089V26.5744H145.118V13.8445Z" fill="#17C3B2"/>
<path d="M131.844 16.5447C132.896 16.5447 133.748 15.6879 133.748 14.6309C133.748 13.5739 132.896 12.7171 131.844 12.7171C130.792 12.7171 129.939 13.5739 129.939 14.6309C129.939 15.6879 130.792 16.5447 131.844 16.5447Z" fill="#17C3B2"/>
<path d="M143.06 9.31468C144.112 9.31468 144.965 8.45783 144.965 7.40085C144.965 6.34387 144.112 5.48701 143.06 5.48701C142.008 5.48701 141.155 6.34387 141.155 7.40085C141.155 8.45783 142.008 9.31468 143.06 9.31468Z" fill="#17C3B2"/>
</g>
<defs>
<clipPath id="clip0">
<rect width="166" height="156" fill="white"/>
</clipPath>
</defs>
</svg>
