<svg width="344" height="89" viewBox="0 0 344 89" fill="none" xmlns="http://www.w3.org/2000/svg">
<path d="M84.224 53.344H77.696V16.544C77.696 14.7947 77.4187 13.5147 76.864 12.704C76.3093 11.8933 75.328 11.4453 73.92 11.36C73.024 11.36 72.4693 11.1467 72.256 10.72C72.0853 10.2507 72 9.80267 72 9.376C72 8.992 72.1707 8.62933 72.512 8.288C72.8533 7.94666 73.216 7.776 73.6 7.776H105.024L105.408 16.288C105.408 16.8 105.237 17.184 104.896 17.44C104.555 17.696 104.171 17.8453 103.744 17.888C103.317 17.9307 102.912 17.8453 102.528 17.632C102.144 17.376 101.909 16.9707 101.824 16.416C101.824 16.416 101.717 16.032 101.504 15.264C101.291 14.4533 101.013 13.792 100.672 13.28C100.416 12.896 99.968 12.5973 99.328 12.384C98.7307 12.1707 97.7493 12.064 96.384 12.064H87.68C86.144 12.064 85.184 12.384 84.8 13.024C84.416 13.664 84.224 14.5813 84.224 15.776V27.424H93.632C94.1867 27.424 94.6987 27.3813 95.168 27.296C95.68 27.2107 96.1493 27.104 96.576 26.976C97.472 26.72 98.1333 26.336 98.56 25.824C99.0293 25.2693 99.264 24.2667 99.264 22.816C99.264 22.432 99.4347 22.1547 99.776 21.984C100.117 21.8133 100.501 21.728 100.928 21.728C101.355 21.728 101.739 21.8347 102.08 22.048C102.464 22.2187 102.656 22.4533 102.656 22.752V36.576C102.656 36.8747 102.485 37.1307 102.144 37.344C101.803 37.5147 101.419 37.6 100.992 37.6C100.608 37.6 100.245 37.5147 99.904 37.344C99.5627 37.1307 99.392 36.7893 99.392 36.32C99.392 36.32 99.2853 35.9147 99.072 35.104C98.8587 34.2507 98.496 33.504 97.984 32.864C97.6 32.48 97.1307 32.224 96.576 32.096C96.0213 31.9253 95.04 31.84 93.632 31.84H84.224V53.344ZM118.339 10.528V53.344H112.003V15.84C112.003 15.328 111.981 14.8587 111.939 14.432C111.939 13.9627 111.896 13.536 111.811 13.152C111.768 12.768 111.64 12.448 111.427 12.192C111.256 11.8933 111.021 11.616 110.723 11.36C110.424 11.1467 110.061 10.976 109.635 10.848C109.251 10.72 108.867 10.656 108.483 10.656C107.843 10.656 107.352 10.4853 107.011 10.144C106.712 9.80266 106.562 9.376 106.562 8.864C106.562 8.43733 106.712 8.05333 107.011 7.712C107.352 7.37066 107.736 7.2 108.163 7.2H114.947C115.971 7.2 116.781 7.584 117.379 8.352C118.019 9.07733 118.339 9.80267 118.339 10.528ZM142.245 53.984C139.941 53.984 137.786 53.6 135.781 52.832C133.775 52.064 132.005 50.912 130.469 49.376C128.975 47.8827 127.802 46.048 126.949 43.872C126.095 41.696 125.669 39.2213 125.669 36.448C125.669 34.016 126.053 31.8613 126.821 29.984C127.631 28.064 128.741 26.464 130.149 25.184C131.599 23.904 133.285 22.9227 135.205 22.24C137.167 21.5573 139.301 21.216 141.605 21.216C143.269 21.216 144.933 21.536 146.597 22.176C148.303 22.7733 149.818 23.648 151.141 24.8C152.506 25.9947 153.615 27.4667 154.469 29.216C155.322 30.9227 155.749 32.8853 155.749 35.104V38.752H132.389C132.687 41.952 133.775 44.512 135.653 46.432C137.573 48.3093 140.303 49.4187 143.845 49.76C144.442 49.8453 145.594 49.8027 147.301 49.632C149.05 49.4613 150.821 48.992 152.613 48.224C153.125 48.0107 153.573 48.0107 153.957 48.224C154.383 48.4373 154.682 48.736 154.853 49.12C155.023 49.5467 155.045 49.9947 154.917 50.464C154.789 50.9333 154.447 51.3173 153.893 51.616C152.271 52.512 150.565 53.1307 148.773 53.472C146.981 53.8133 144.805 53.984 142.245 53.984ZM141.413 25.12C139.322 25.12 137.359 25.824 135.525 27.232C133.733 28.64 132.687 30.9867 132.389 34.272H149.221C149.221 30.944 148.41 28.5973 146.789 27.232C145.167 25.824 143.375 25.12 141.413 25.12ZM175.87 53.984C173.566 53.984 171.411 53.6 169.406 52.832C167.4 52.064 165.63 50.912 164.094 49.376C162.6 47.8827 161.427 46.048 160.574 43.872C159.72 41.696 159.294 39.2213 159.294 36.448C159.294 34.016 159.678 31.8613 160.446 29.984C161.256 28.064 162.366 26.464 163.774 25.184C165.224 23.904 166.91 22.9227 168.83 22.24C170.792 21.5573 172.926 21.216 175.23 21.216C176.894 21.216 178.558 21.536 180.222 22.176C181.928 22.7733 183.443 23.648 184.766 24.8C186.131 25.9947 187.24 27.4667 188.094 29.216C188.947 30.9227 189.374 32.8853 189.374 35.104V38.752H166.014C166.312 41.952 167.4 44.512 169.278 46.432C171.198 48.3093 173.928 49.4187 177.47 49.76C178.067 49.8453 179.219 49.8027 180.926 49.632C182.675 49.4613 184.446 48.992 186.238 48.224C186.75 48.0107 187.198 48.0107 187.582 48.224C188.008 48.4373 188.307 48.736 188.478 49.12C188.648 49.5467 188.67 49.9947 188.542 50.464C188.414 50.9333 188.072 51.3173 187.518 51.616C185.896 52.512 184.19 53.1307 182.398 53.472C180.606 53.8133 178.43 53.984 175.87 53.984ZM175.038 25.12C172.947 25.12 170.984 25.824 169.15 27.232C167.358 28.64 166.312 30.9867 166.014 34.272H182.846C182.846 30.944 182.035 28.5973 180.414 27.232C178.792 25.824 177 25.12 175.038 25.12ZM212.375 49.056V53.344C211.436 53.5573 210.369 53.7067 209.175 53.792C207.98 53.92 207.063 53.984 206.423 53.984C204.247 53.984 202.519 53.7707 201.239 53.344C199.959 52.9173 198.977 52.2773 198.295 51.424C197.612 50.6133 197.164 49.6107 196.951 48.416C196.78 47.2213 196.695 45.856 196.695 44.32V26.272H191.575V21.856H196.695V16.736L202.903 10.912V21.856H211.735V26.272H202.967V45.472C202.967 46.4107 203.052 47.1573 203.223 47.712C203.436 48.224 203.756 48.608 204.183 48.864C204.823 49.248 205.868 49.4827 207.319 49.568C208.769 49.6107 210.455 49.44 212.375 49.056ZM236.926 22.752V28.448C235.518 27.552 234.024 26.8267 232.446 26.272C230.867 25.7173 229.331 25.44 227.838 25.44C226.472 25.44 225.235 25.696 224.126 26.208C223.016 26.6773 222.44 27.552 222.398 28.832C222.355 29.344 222.398 29.8347 222.526 30.304C222.654 30.7733 222.91 31.1573 223.294 31.456C224.318 32.3947 225.448 33.0773 226.686 33.504C227.966 33.9307 229.246 34.3573 230.526 34.784C231.806 35.2107 233.043 35.7653 234.238 36.448C235.475 37.088 236.606 38.0693 237.63 39.392C238.014 40.032 238.334 40.7147 238.59 41.44C238.846 42.1227 238.974 42.912 238.974 43.808C238.974 45.6427 238.59 47.2213 237.822 48.544C237.054 49.824 236.051 50.8693 234.814 51.68C233.619 52.4907 232.254 53.0667 230.718 53.408C229.224 53.792 227.752 53.984 226.302 53.984C224.723 53.984 223.208 53.8773 221.758 53.664C220.307 53.4507 219.006 53.1307 217.854 52.704C216.958 52.4053 216.36 51.9147 216.062 51.232C215.806 50.5493 215.742 49.888 215.87 49.248C216.04 48.608 216.36 48.096 216.83 47.712C217.299 47.328 217.854 47.2427 218.494 47.456C218.92 47.6693 219.39 47.904 219.902 48.16C220.414 48.3733 220.968 48.5867 221.566 48.8C222.163 49.0133 222.803 49.184 223.486 49.312C224.211 49.44 224.979 49.504 225.79 49.504C227.667 49.504 229.288 49.2267 230.654 48.672C232.062 48.0747 232.766 46.8373 232.766 44.96C232.766 44.0213 232.446 43.168 231.806 42.4C231.208 41.632 230.334 40.9707 229.182 40.416C228.328 40.0747 227.368 39.7333 226.302 39.392C225.235 39.0507 224.168 38.6453 223.102 38.176C221.992 37.7493 220.947 37.2587 219.966 36.704C219.027 36.1067 218.238 35.4027 217.598 34.592C216.744 33.568 216.254 32.352 216.126 30.944C216.04 29.536 216.275 28.128 216.83 26.72C217.64 24.7147 218.984 23.3067 220.862 22.496C222.782 21.6427 224.936 21.1947 227.326 21.152C227.88 21.152 228.584 21.1947 229.438 21.28C230.291 21.3227 231.187 21.4293 232.126 21.6C233.064 21.728 233.96 21.8987 234.814 22.112C235.667 22.3253 236.371 22.5387 236.926 22.752Z" fill="#227C9D"/>
<path d="M39.4364 39.0062L36.9906 31.4411L36.9731 31.389C36.1932 29.1526 34.0958 27.6507 31.7541 27.6507L14.1189 27.6519C11.7773 27.6519 9.67993 29.1537 8.90036 31.389L6.43146 39.0285C5.55668 39.3982 4.75219 39.9476 4.063 40.6613C2.73222 42.0375 1.99951 43.8417 1.99951 45.7416V58.2385C1.99951 60.8632 4.13515 62.9993 6.76025 62.9993C9.18377 62.9993 11.1885 61.1786 11.4823 58.8336H34.4112C34.7051 61.1786 36.7098 62.9993 39.1333 62.9993C41.6249 62.9993 43.894 61.0135 43.894 58.8336V45.6225C43.894 42.6333 42.0474 40.0688 39.4364 39.0062ZM14.1193 32.4126L31.7541 32.4115C32.0625 32.4115 32.3548 32.6276 32.4716 32.94L34.2628 38.4814H11.611L13.4015 32.94C13.5179 32.6283 13.8102 32.4126 14.1193 32.4126ZM39.1333 51.6925C39.1333 53.0047 38.0655 54.0729 36.7529 54.0729H9.14062C7.82807 54.0729 6.76025 53.0047 6.76025 51.6925V45.7416C6.76025 44.3866 7.85039 43.2422 9.14062 43.2422H36.7529C38.0655 43.2422 39.1333 44.31 39.1333 45.6225V51.6925ZM17.5909 46.2176H28.4216V50.9784H17.5909V46.2176ZM36.1578 48.598C36.1578 49.912 35.0922 50.9784 33.7775 50.9784C32.4627 50.9784 31.3971 49.912 31.3971 48.598C31.3971 47.2832 32.4627 46.2176 33.7775 46.2176C35.0922 46.2176 36.1578 47.2832 36.1578 48.598ZM14.6155 48.598C14.6155 49.912 13.5499 50.9784 12.2351 50.9784C10.9203 50.9784 9.85473 49.912 9.85473 48.598C9.85473 47.2832 10.9203 46.2176 12.2351 46.2176C13.5499 46.2176 14.6155 47.2832 14.6155 48.598ZM52.8204 35.3869C51.5056 35.3869 50.4401 34.3206 50.4401 33.0066C50.4401 31.6918 51.5056 30.6262 52.8204 30.6262C54.1352 30.6262 55.2008 31.6918 55.2008 33.0066C55.2008 34.3206 54.1352 35.3869 52.8204 35.3869ZM16.9958 19.7955C18.3106 19.7955 19.3762 20.8611 19.3762 22.1759C19.3762 23.4899 18.3106 24.5563 16.9958 24.5563C15.6811 24.5563 14.6155 23.4899 14.6155 22.1759C14.6155 20.8611 15.6811 19.7955 16.9958 19.7955ZM6.79559 25.977C6.77215 25.745 6.76025 25.5095 6.76025 25.2715V19.7955C6.76025 17.8957 7.49296 16.0914 8.82374 14.7149C9.52037 13.9937 10.3353 13.4399 11.2216 13.071L13.6652 5.78778C14.4481 3.55915 16.5421 2.06287 18.8797 2.06287H36.5149C38.8525 2.06287 40.9465 3.55915 41.7294 5.78778L42.2739 7.7739H37.2082C37.0799 7.49234 36.8054 6.82175 36.5149 6.82175H18.8797C18.5654 6.82175 18.2679 7.04788 18.1559 7.36812L18.1488 7.3882L16.4722 12.5354H24.5015C24.0737 13.2049 23.7182 13.9305 23.4481 14.7041L23.421 14.7822L22.6087 17.2961H13.9014C12.6111 17.2961 11.521 18.4406 11.521 19.7955V23.2292C9.72084 23.7034 8.08954 24.6593 6.79559 25.977ZM62.937 30.0311V43.2422C62.937 45.4221 60.6678 47.4078 58.1763 47.4078C55.7527 47.4078 53.748 45.5872 53.4542 43.2422H48.4153C48.0575 41.4837 47.3102 39.8658 46.2685 38.4814H55.7959C57.1084 38.4814 58.1763 37.4132 58.1763 36.1011V30.0311C58.1763 28.7186 57.1084 27.6507 55.7959 27.6507H40.4135C38.5479 24.7322 35.3031 22.89 31.7534 22.89H53.2552L51.5172 17.8291C51.4089 17.5197 51.1114 17.2961 50.7971 17.2961H33.1619C32.8491 17.2961 32.5531 17.5178 32.44 17.8362L30.7086 23.0079L25.676 23.009L27.9433 16.2722C28.7229 14.0369 30.8202 12.5354 33.1619 12.5354H50.7971C53.1388 12.5354 55.2361 14.0369 56.0157 16.2722L58.4671 23.41C61.0848 24.47 62.937 27.0378 62.937 30.0311ZM43.2696 35.3869L41.7301 30.6262H47.4646V35.3869H43.2696Z" fill="#FE6D73"/>
<path d="M71.688 84.504L76.752 70.992C76.8 70.848 76.84 70.728 76.872 70.632C76.904 70.52 76.936 70.416 76.968 70.32C77 70.224 77.024 70.128 77.04 70.032C77.072 69.936 77.096 69.824 77.112 69.696C77.112 69.568 77.096 69.464 77.064 69.384C77.032 69.288 76.96 69.192 76.848 69.096C76.752 69.016 76.608 68.96 76.416 68.928C76.24 68.88 76.056 68.856 75.864 68.856C75.672 68.856 75.52 68.792 75.408 68.664C75.296 68.536 75.24 68.36 75.24 68.136C75.24 67.944 75.296 67.792 75.408 67.68C75.536 67.568 75.672 67.512 75.816 67.512H80.184L86.664 84.504H83.904L81.84 79.08H75.936L73.896 84.504H71.688ZM78.84 71.04L76.56 77.424H81.288L78.84 71.04ZM96.2833 84.504V74.352H94.3153V72.696H96.2833V71.544C96.2833 71.336 96.2833 71.104 96.2833 70.848C96.2993 70.592 96.3313 70.32 96.3793 70.032C96.4273 69.648 96.5313 69.272 96.6913 68.904C96.8513 68.536 97.0753 68.208 97.3633 67.92C97.6673 67.632 98.0353 67.4 98.4673 67.224C98.8993 67.048 99.4193 66.96 100.027 66.96C101.259 66.96 102.171 67.24 102.763 67.8C103.355 68.36 103.675 69.08 103.723 69.96H101.251C101.235 69.448 101.131 69.064 100.939 68.808C100.763 68.536 100.435 68.4 99.9553 68.4C99.5553 68.4 99.2353 68.544 98.9953 68.832C98.7713 69.12 98.6513 69.624 98.6353 70.344C98.6193 70.44 98.6113 70.536 98.6113 70.632C98.6113 70.728 98.6113 70.824 98.6113 70.92C98.6113 71.016 98.6113 71.112 98.6113 71.208C98.6273 71.304 98.6353 71.4 98.6353 71.496V72.696H101.971V74.352H98.6353V84.504H96.2833ZM107.26 68.448V84.504H104.884V70.44C104.884 70.248 104.876 70.072 104.86 69.912C104.86 69.736 104.844 69.576 104.812 69.432C104.796 69.288 104.748 69.168 104.668 69.072C104.604 68.96 104.516 68.856 104.404 68.76C104.292 68.68 104.156 68.616 103.996 68.568C103.852 68.52 103.708 68.496 103.564 68.496C103.324 68.496 103.14 68.432 103.012 68.304C102.9 68.176 102.844 68.016 102.844 67.824C102.844 67.664 102.9 67.52 103.012 67.392C103.14 67.264 103.284 67.2 103.444 67.2H105.988C106.372 67.2 106.676 67.344 106.9 67.632C107.14 67.904 107.26 68.176 107.26 68.448ZM116.225 84.744C115.361 84.744 114.553 84.6 113.801 84.312C113.049 84.024 112.385 83.592 111.809 83.016C111.249 82.456 110.809 81.768 110.489 80.952C110.169 80.136 110.009 79.208 110.009 78.168C110.009 77.256 110.153 76.448 110.441 75.744C110.745 75.024 111.161 74.424 111.689 73.944C112.233 73.464 112.865 73.096 113.585 72.84C114.321 72.584 115.121 72.456 115.985 72.456C116.609 72.456 117.233 72.576 117.857 72.816C118.497 73.04 119.065 73.368 119.561 73.8C120.073 74.248 120.489 74.8 120.809 75.456C121.129 76.096 121.289 76.832 121.289 77.664V79.032H112.529C112.641 80.232 113.049 81.192 113.753 81.912C114.473 82.616 115.497 83.032 116.825 83.16C117.049 83.192 117.481 83.176 118.121 83.112C118.777 83.048 119.441 82.872 120.113 82.584C120.305 82.504 120.473 82.504 120.617 82.584C120.777 82.664 120.889 82.776 120.953 82.92C121.017 83.08 121.025 83.248 120.977 83.424C120.929 83.6 120.801 83.744 120.593 83.856C119.985 84.192 119.345 84.424 118.673 84.552C118.001 84.68 117.185 84.744 116.225 84.744ZM115.913 73.92C115.129 73.92 114.393 74.184 113.705 74.712C113.033 75.24 112.641 76.12 112.529 77.352H118.841C118.841 76.104 118.537 75.224 117.929 74.712C117.321 74.184 116.649 73.92 115.913 73.92ZM128.834 84.744C127.97 84.744 127.162 84.6 126.41 84.312C125.658 84.024 124.994 83.592 124.418 83.016C123.858 82.456 123.418 81.768 123.098 80.952C122.778 80.136 122.618 79.208 122.618 78.168C122.618 77.256 122.762 76.448 123.05 75.744C123.354 75.024 123.77 74.424 124.298 73.944C124.842 73.464 125.474 73.096 126.194 72.84C126.93 72.584 127.73 72.456 128.594 72.456C129.218 72.456 129.842 72.576 130.466 72.816C131.106 73.04 131.674 73.368 132.17 73.8C132.682 74.248 133.098 74.8 133.418 75.456C133.738 76.096 133.898 76.832 133.898 77.664V79.032H125.138C125.25 80.232 125.658 81.192 126.362 81.912C127.082 82.616 128.106 83.032 129.434 83.16C129.658 83.192 130.09 83.176 130.73 83.112C131.386 83.048 132.05 82.872 132.722 82.584C132.914 82.504 133.082 82.504 133.226 82.584C133.386 82.664 133.498 82.776 133.562 82.92C133.626 83.08 133.634 83.248 133.586 83.424C133.538 83.6 133.41 83.744 133.202 83.856C132.594 84.192 131.954 84.424 131.282 84.552C130.61 84.68 129.794 84.744 128.834 84.744ZM128.522 73.92C127.738 73.92 127.002 74.184 126.314 74.712C125.642 75.24 125.25 76.12 125.138 77.352H131.45C131.45 76.104 131.146 75.224 130.538 74.712C129.93 74.184 129.258 73.92 128.522 73.92ZM142.523 82.896V84.504C142.171 84.584 141.771 84.64 141.323 84.672C140.875 84.72 140.531 84.744 140.291 84.744C139.475 84.744 138.827 84.664 138.347 84.504C137.867 84.344 137.499 84.104 137.243 83.784C136.987 83.48 136.819 83.104 136.739 82.656C136.675 82.208 136.643 81.696 136.643 81.12V74.352H134.723V72.696H136.643V70.776L138.971 68.592V72.696H142.283V74.352H138.995V81.552C138.995 81.904 139.027 82.184 139.091 82.392C139.171 82.584 139.291 82.728 139.451 82.824C139.691 82.968 140.083 83.056 140.627 83.088C141.171 83.104 141.803 83.04 142.523 82.896ZM152.212 74.256C152.1 74.192 151.964 74.144 151.804 74.112C151.66 74.064 151.516 74.04 151.372 74.04C151.132 74.04 150.956 73.968 150.844 73.824C150.716 73.68 150.652 73.512 150.652 73.32C150.652 73.16 150.716 73.016 150.844 72.888C150.956 72.76 151.092 72.696 151.252 72.696H153.772C154.156 72.696 154.46 72.824 154.684 73.08C154.924 73.32 155.044 73.472 155.044 73.536V74.424C155.092 74.312 155.188 74.152 155.332 73.944C155.476 73.72 155.684 73.496 155.956 73.272C156.228 73.064 156.564 72.88 156.964 72.72C157.364 72.544 157.836 72.456 158.38 72.456C159.42 72.456 160.204 72.696 160.732 73.176C161.276 73.656 161.62 74.144 161.764 74.64C161.764 74.64 161.82 74.528 161.932 74.304C162.044 74.08 162.236 73.832 162.508 73.56C162.796 73.288 163.164 73.04 163.612 72.816C164.076 72.576 164.652 72.456 165.34 72.456C166.476 72.456 167.332 72.84 167.908 73.608C168.5 74.376 168.796 75.384 168.796 76.632V84.504H166.444V77.256C166.444 76.456 166.316 75.784 166.06 75.24C165.82 74.68 165.348 74.4 164.644 74.4C164.18 74.4 163.78 74.552 163.444 74.856C163.108 75.144 162.82 75.496 162.58 75.912C162.356 76.344 162.188 76.8 162.076 77.28C161.964 77.744 161.908 78.16 161.908 78.528V84.504H159.556V76.584C159.556 76.008 159.436 75.496 159.196 75.048C158.956 74.6 158.5 74.376 157.828 74.376C157.492 74.376 157.156 74.504 156.82 74.76C156.5 75 156.204 75.312 155.932 75.696C155.676 76.096 155.46 76.56 155.284 77.088C155.124 77.6 155.044 78.128 155.044 78.672V84.504H152.692V75.96C152.692 75.752 152.684 75.568 152.668 75.408C152.668 75.232 152.652 75.072 152.62 74.928C152.604 74.784 152.556 74.664 152.476 74.568C152.412 74.456 152.324 74.352 152.212 74.256ZM178.655 84.504V83.208C178.223 83.688 177.679 84.064 177.023 84.336C176.383 84.624 175.535 84.768 174.479 84.768C173.503 84.768 172.711 84.464 172.103 83.856C171.495 83.248 171.191 82.464 171.191 81.504C171.191 80.704 171.391 80.032 171.791 79.488C172.207 78.944 172.727 78.504 173.351 78.168C173.975 77.832 174.655 77.592 175.391 77.448C176.143 77.304 176.855 77.232 177.527 77.232C177.623 77.232 177.735 77.232 177.863 77.232C177.991 77.232 178.111 77.224 178.223 77.208C178.335 77.208 178.431 77.208 178.511 77.208C178.591 77.192 178.639 77.184 178.655 77.184V76.56C178.655 76.272 178.615 75.976 178.535 75.672C178.455 75.352 178.327 75.072 178.151 74.832C177.959 74.576 177.703 74.368 177.383 74.208C177.063 74.048 176.663 73.968 176.183 73.968C175.463 73.968 174.903 74.144 174.503 74.496C174.103 74.848 173.903 75.36 173.903 76.032H171.335C171.335 75.632 171.423 75.224 171.599 74.808C171.791 74.376 172.095 73.984 172.511 73.632C172.911 73.296 173.423 73.016 174.047 72.792C174.671 72.568 175.415 72.456 176.279 72.456C177.767 72.456 178.927 72.832 179.759 73.584C180.591 74.32 181.007 75.336 181.007 76.632V84.504H178.655ZM178.655 80.28V78.696C178.335 78.696 177.943 78.712 177.479 78.744C177.015 78.76 176.559 78.816 176.111 78.912C175.455 79.072 174.895 79.328 174.431 79.68C173.967 80.032 173.735 80.56 173.735 81.264C173.735 81.424 173.751 81.608 173.783 81.816C173.831 82.008 173.919 82.184 174.047 82.344C174.175 82.52 174.351 82.664 174.575 82.776C174.799 82.888 175.095 82.944 175.463 82.944C175.863 82.944 176.247 82.888 176.615 82.776C176.999 82.648 177.343 82.464 177.647 82.224C177.951 82 178.191 81.728 178.367 81.408C178.559 81.072 178.655 80.696 178.655 80.28ZM186.78 73.728V75.096C186.844 74.936 186.98 74.712 187.188 74.424C187.396 74.136 187.668 73.856 188.004 73.584C188.356 73.296 188.772 73.048 189.252 72.84C189.732 72.616 190.3 72.496 190.956 72.48C192.108 72.464 193.028 72.776 193.716 73.416C194.404 74.04 194.748 74.784 194.748 75.648V84.504H192.396V76.824C192.396 76.2 192.252 75.648 191.964 75.168C191.692 74.672 191.148 74.432 190.332 74.448C189.932 74.464 189.516 74.608 189.084 74.88C188.668 75.136 188.284 75.464 187.932 75.864C187.596 76.28 187.316 76.744 187.092 77.256C186.868 77.752 186.756 78.248 186.756 78.744V84.504H184.404V75.96C184.404 75.752 184.396 75.568 184.38 75.408C184.38 75.232 184.364 75.072 184.332 74.928C184.316 74.784 184.268 74.664 184.188 74.568C184.124 74.456 184.036 74.352 183.924 74.256C183.812 74.176 183.676 74.12 183.516 74.088C183.372 74.04 183.228 74.016 183.084 74.016C182.844 74.016 182.66 73.952 182.532 73.824C182.42 73.68 182.364 73.512 182.364 73.32C182.364 73.16 182.42 73.016 182.532 72.888C182.66 72.76 182.804 72.696 182.964 72.696H185.508C185.892 72.696 186.196 72.832 186.42 73.104C186.66 73.36 186.78 73.568 186.78 73.728ZM204.811 84.504V83.208C204.379 83.688 203.835 84.064 203.179 84.336C202.539 84.624 201.691 84.768 200.635 84.768C199.659 84.768 198.867 84.464 198.259 83.856C197.651 83.248 197.347 82.464 197.347 81.504C197.347 80.704 197.547 80.032 197.947 79.488C198.363 78.944 198.883 78.504 199.507 78.168C200.131 77.832 200.811 77.592 201.547 77.448C202.299 77.304 203.011 77.232 203.683 77.232C203.779 77.232 203.891 77.232 204.019 77.232C204.147 77.232 204.267 77.224 204.379 77.208C204.491 77.208 204.587 77.208 204.667 77.208C204.747 77.192 204.795 77.184 204.811 77.184V76.56C204.811 76.272 204.771 75.976 204.691 75.672C204.611 75.352 204.483 75.072 204.307 74.832C204.115 74.576 203.859 74.368 203.539 74.208C203.219 74.048 202.819 73.968 202.339 73.968C201.619 73.968 201.059 74.144 200.659 74.496C200.259 74.848 200.059 75.36 200.059 76.032H197.491C197.491 75.632 197.579 75.224 197.755 74.808C197.947 74.376 198.251 73.984 198.667 73.632C199.067 73.296 199.579 73.016 200.203 72.792C200.827 72.568 201.571 72.456 202.435 72.456C203.923 72.456 205.083 72.832 205.915 73.584C206.747 74.32 207.163 75.336 207.163 76.632V84.504H204.811ZM204.811 80.28V78.696C204.491 78.696 204.099 78.712 203.635 78.744C203.171 78.76 202.715 78.816 202.267 78.912C201.611 79.072 201.051 79.328 200.587 79.68C200.123 80.032 199.891 80.56 199.891 81.264C199.891 81.424 199.907 81.608 199.939 81.816C199.987 82.008 200.075 82.184 200.203 82.344C200.331 82.52 200.507 82.664 200.731 82.776C200.955 82.888 201.251 82.944 201.619 82.944C202.019 82.944 202.403 82.888 202.771 82.776C203.155 82.648 203.499 82.464 203.803 82.224C204.107 82 204.347 81.728 204.523 81.408C204.715 81.072 204.811 80.696 204.811 80.28ZM218.144 79.032V77.976C218.144 77.624 218.088 77.232 217.976 76.8C217.88 76.352 217.712 75.936 217.472 75.552C217.232 75.168 216.912 74.84 216.512 74.568C216.128 74.296 215.656 74.16 215.096 74.16C214.536 74.16 214.056 74.288 213.656 74.544C213.272 74.784 212.944 75.104 212.672 75.504C212.416 75.904 212.224 76.368 212.096 76.896C211.984 77.424 211.928 77.968 211.928 78.528C211.928 79.056 211.984 79.56 212.096 80.04C212.224 80.52 212.424 80.944 212.696 81.312C212.968 81.68 213.312 81.976 213.728 82.2C214.144 82.408 214.648 82.512 215.24 82.512C215.592 82.512 215.944 82.424 216.296 82.248C216.648 82.072 216.96 81.832 217.232 81.528C217.504 81.208 217.72 80.84 217.88 80.424C218.056 79.992 218.144 79.528 218.144 79.032ZM220.496 75.528V84.336C220.496 85.168 220.36 85.872 220.088 86.448C219.816 87.04 219.44 87.52 218.96 87.888C218.48 88.256 217.904 88.52 217.232 88.68C216.576 88.856 215.864 88.944 215.096 88.944C213.416 88.944 212.176 88.616 211.376 87.96C210.576 87.32 210.128 86.48 210.032 85.44H212.504C212.568 86 212.792 86.456 213.176 86.808C213.576 87.16 214.288 87.336 215.312 87.336C215.872 87.336 216.336 87.248 216.704 87.072C217.072 86.912 217.36 86.688 217.568 86.4C217.776 86.112 217.92 85.784 218 85.416C218.096 85.048 218.144 84.672 218.144 84.288V82.728C218.064 82.84 217.944 82.984 217.784 83.16C217.64 83.32 217.44 83.472 217.184 83.616C216.912 83.776 216.576 83.904 216.176 84C215.792 84.112 215.328 84.168 214.784 84.168C214.064 84.168 213.376 84.04 212.72 83.784C212.08 83.528 211.52 83.152 211.04 82.656C210.56 82.16 210.176 81.568 209.888 80.88C209.616 80.176 209.48 79.392 209.48 78.528C209.48 77.712 209.592 76.944 209.816 76.224C210.04 75.488 210.376 74.84 210.824 74.28C211.272 73.72 211.824 73.28 212.48 72.96C213.152 72.624 213.928 72.456 214.808 72.456C215.24 72.456 215.64 72.512 216.008 72.624C216.392 72.736 216.736 72.872 217.04 73.032C217.344 73.192 217.592 73.368 217.784 73.56C217.976 73.752 218.096 73.928 218.144 74.088V73.296C218.144 73.184 218.232 73.056 218.408 72.912C218.584 72.768 218.792 72.696 219.032 72.696H221.84C221.968 72.696 222.088 72.76 222.2 72.888C222.312 73.016 222.368 73.168 222.368 73.344C222.352 73.536 222.28 73.68 222.152 73.776C222.024 73.872 221.888 73.92 221.744 73.92C221.408 73.92 221.112 74.024 220.856 74.232C220.616 74.424 220.496 74.856 220.496 75.528ZM229.498 84.744C228.634 84.744 227.826 84.6 227.074 84.312C226.322 84.024 225.658 83.592 225.082 83.016C224.522 82.456 224.082 81.768 223.762 80.952C223.442 80.136 223.282 79.208 223.282 78.168C223.282 77.256 223.426 76.448 223.714 75.744C224.018 75.024 224.434 74.424 224.962 73.944C225.506 73.464 226.138 73.096 226.858 72.84C227.594 72.584 228.394 72.456 229.258 72.456C229.882 72.456 230.506 72.576 231.13 72.816C231.77 73.04 232.338 73.368 232.834 73.8C233.346 74.248 233.762 74.8 234.082 75.456C234.402 76.096 234.562 76.832 234.562 77.664V79.032H225.802C225.914 80.232 226.322 81.192 227.026 81.912C227.746 82.616 228.77 83.032 230.098 83.16C230.322 83.192 230.754 83.176 231.394 83.112C232.05 83.048 232.714 82.872 233.386 82.584C233.578 82.504 233.746 82.504 233.89 82.584C234.05 82.664 234.162 82.776 234.226 82.92C234.29 83.08 234.298 83.248 234.25 83.424C234.202 83.6 234.074 83.744 233.866 83.856C233.258 84.192 232.618 84.424 231.946 84.552C231.274 84.68 230.458 84.744 229.498 84.744ZM229.186 73.92C228.402 73.92 227.666 74.184 226.978 74.712C226.306 75.24 225.914 76.12 225.802 77.352H232.114C232.114 76.104 231.81 75.224 231.202 74.712C230.594 74.184 229.922 73.92 229.186 73.92ZM236.563 74.256C236.451 74.192 236.315 74.144 236.155 74.112C236.011 74.064 235.867 74.04 235.723 74.04C235.483 74.04 235.307 73.968 235.195 73.824C235.067 73.68 235.003 73.512 235.003 73.32C235.003 73.16 235.067 73.016 235.195 72.888C235.307 72.76 235.443 72.696 235.603 72.696H238.123C238.507 72.696 238.811 72.824 239.035 73.08C239.275 73.32 239.395 73.472 239.395 73.536V74.424C239.443 74.312 239.539 74.152 239.683 73.944C239.827 73.72 240.035 73.496 240.307 73.272C240.579 73.064 240.915 72.88 241.315 72.72C241.715 72.544 242.187 72.456 242.731 72.456C243.771 72.456 244.555 72.696 245.083 73.176C245.627 73.656 245.971 74.144 246.115 74.64C246.115 74.64 246.171 74.528 246.283 74.304C246.395 74.08 246.587 73.832 246.859 73.56C247.147 73.288 247.515 73.04 247.963 72.816C248.427 72.576 249.003 72.456 249.691 72.456C250.827 72.456 251.683 72.84 252.259 73.608C252.851 74.376 253.147 75.384 253.147 76.632V84.504H250.795V77.256C250.795 76.456 250.667 75.784 250.411 75.24C250.171 74.68 249.699 74.4 248.995 74.4C248.531 74.4 248.131 74.552 247.795 74.856C247.459 75.144 247.171 75.496 246.931 75.912C246.707 76.344 246.539 76.8 246.427 77.28C246.315 77.744 246.259 78.16 246.259 78.528V84.504H243.907V76.584C243.907 76.008 243.787 75.496 243.547 75.048C243.307 74.6 242.851 74.376 242.179 74.376C241.843 74.376 241.507 74.504 241.171 74.76C240.851 75 240.555 75.312 240.283 75.696C240.027 76.096 239.811 76.56 239.635 77.088C239.475 77.6 239.395 78.128 239.395 78.672V84.504H237.043V75.96C237.043 75.752 237.035 75.568 237.019 75.408C237.019 75.232 237.003 75.072 236.971 74.928C236.955 74.784 236.907 74.664 236.827 74.568C236.763 74.456 236.675 74.352 236.563 74.256ZM261.303 84.744C260.439 84.744 259.631 84.6 258.879 84.312C258.127 84.024 257.463 83.592 256.887 83.016C256.327 82.456 255.887 81.768 255.567 80.952C255.247 80.136 255.087 79.208 255.087 78.168C255.087 77.256 255.231 76.448 255.519 75.744C255.823 75.024 256.239 74.424 256.767 73.944C257.311 73.464 257.943 73.096 258.663 72.84C259.399 72.584 260.199 72.456 261.063 72.456C261.687 72.456 262.311 72.576 262.935 72.816C263.575 73.04 264.143 73.368 264.639 73.8C265.151 74.248 265.567 74.8 265.887 75.456C266.207 76.096 266.367 76.832 266.367 77.664V79.032H257.607C257.719 80.232 258.127 81.192 258.831 81.912C259.551 82.616 260.575 83.032 261.903 83.16C262.127 83.192 262.559 83.176 263.199 83.112C263.855 83.048 264.519 82.872 265.191 82.584C265.383 82.504 265.551 82.504 265.695 82.584C265.855 82.664 265.967 82.776 266.031 82.92C266.095 83.08 266.103 83.248 266.055 83.424C266.007 83.6 265.879 83.744 265.671 83.856C265.063 84.192 264.423 84.424 263.751 84.552C263.079 84.68 262.263 84.744 261.303 84.744ZM260.991 73.92C260.207 73.92 259.471 74.184 258.783 74.712C258.111 75.24 257.719 76.12 257.607 77.352H263.919C263.919 76.104 263.615 75.224 263.007 74.712C262.399 74.184 261.727 73.92 260.991 73.92ZM271.272 73.728V75.096C271.336 74.936 271.472 74.712 271.68 74.424C271.888 74.136 272.16 73.856 272.496 73.584C272.848 73.296 273.264 73.048 273.744 72.84C274.224 72.616 274.792 72.496 275.448 72.48C276.6 72.464 277.52 72.776 278.208 73.416C278.896 74.04 279.24 74.784 279.24 75.648V84.504H276.888V76.824C276.888 76.2 276.744 75.648 276.456 75.168C276.184 74.672 275.64 74.432 274.824 74.448C274.424 74.464 274.008 74.608 273.576 74.88C273.16 75.136 272.776 75.464 272.424 75.864C272.088 76.28 271.808 76.744 271.584 77.256C271.36 77.752 271.248 78.248 271.248 78.744V84.504H268.896V75.96C268.896 75.752 268.888 75.568 268.872 75.408C268.872 75.232 268.856 75.072 268.824 74.928C268.808 74.784 268.76 74.664 268.68 74.568C268.616 74.456 268.528 74.352 268.416 74.256C268.304 74.176 268.168 74.12 268.008 74.088C267.864 74.04 267.72 74.016 267.576 74.016C267.336 74.016 267.152 73.952 267.024 73.824C266.912 73.68 266.856 73.512 266.856 73.32C266.856 73.16 266.912 73.016 267.024 72.888C267.152 72.76 267.296 72.696 267.456 72.696H270C270.384 72.696 270.688 72.832 270.912 73.104C271.152 73.36 271.272 73.568 271.272 73.728ZM288.68 82.896V84.504C288.328 84.584 287.928 84.64 287.48 84.672C287.032 84.72 286.688 84.744 286.448 84.744C285.632 84.744 284.984 84.664 284.504 84.504C284.024 84.344 283.656 84.104 283.4 83.784C283.144 83.48 282.976 83.104 282.896 82.656C282.832 82.208 282.8 81.696 282.8 81.12V74.352H280.88V72.696H282.8V70.776L285.128 68.592V72.696H288.44V74.352H285.152V81.552C285.152 81.904 285.184 82.184 285.248 82.392C285.328 82.584 285.448 82.728 285.608 82.824C285.848 82.968 286.24 83.056 286.784 83.088C287.328 83.104 287.96 83.04 288.68 82.896ZM305.616 84.504V83.208C305.184 83.688 304.64 84.064 303.984 84.336C303.344 84.624 302.496 84.768 301.44 84.768C300.464 84.768 299.672 84.464 299.064 83.856C298.456 83.248 298.152 82.464 298.152 81.504C298.152 80.704 298.352 80.032 298.752 79.488C299.168 78.944 299.688 78.504 300.312 78.168C300.936 77.832 301.616 77.592 302.352 77.448C303.104 77.304 303.816 77.232 304.488 77.232C304.584 77.232 304.696 77.232 304.824 77.232C304.952 77.232 305.072 77.224 305.184 77.208C305.296 77.208 305.392 77.208 305.472 77.208C305.552 77.192 305.6 77.184 305.616 77.184V76.56C305.616 76.272 305.576 75.976 305.496 75.672C305.416 75.352 305.288 75.072 305.112 74.832C304.92 74.576 304.664 74.368 304.344 74.208C304.024 74.048 303.624 73.968 303.144 73.968C302.424 73.968 301.864 74.144 301.464 74.496C301.064 74.848 300.864 75.36 300.864 76.032H298.296C298.296 75.632 298.384 75.224 298.56 74.808C298.752 74.376 299.056 73.984 299.472 73.632C299.872 73.296 300.384 73.016 301.008 72.792C301.632 72.568 302.376 72.456 303.24 72.456C304.728 72.456 305.888 72.832 306.72 73.584C307.552 74.32 307.968 75.336 307.968 76.632V84.504H305.616ZM305.616 80.28V78.696C305.296 78.696 304.904 78.712 304.44 78.744C303.976 78.76 303.52 78.816 303.072 78.912C302.416 79.072 301.856 79.328 301.392 79.68C300.928 80.032 300.696 80.56 300.696 81.264C300.696 81.424 300.712 81.608 300.744 81.816C300.792 82.008 300.88 82.184 301.008 82.344C301.136 82.52 301.312 82.664 301.536 82.776C301.76 82.888 302.056 82.944 302.424 82.944C302.824 82.944 303.208 82.888 303.576 82.776C303.96 82.648 304.304 82.464 304.608 82.224C304.912 82 305.152 81.728 305.328 81.408C305.52 81.072 305.616 80.696 305.616 80.28ZM313.837 77.352V79.152C313.837 79.504 313.885 79.904 313.981 80.352C314.093 80.8 314.269 81.232 314.509 81.648C314.749 82.048 315.045 82.392 315.397 82.68C315.765 82.952 316.205 83.088 316.717 83.088C317.277 83.088 317.749 82.952 318.133 82.68C318.533 82.408 318.853 82.048 319.093 81.6C319.333 81.168 319.509 80.68 319.621 80.136C319.733 79.592 319.789 79.056 319.789 78.528C319.789 78.064 319.733 77.568 319.621 77.04C319.509 76.512 319.333 76.024 319.093 75.576C318.853 75.144 318.533 74.784 318.133 74.496C317.733 74.192 317.245 74.04 316.669 74.04C316.013 74.04 315.389 74.328 314.797 74.904C314.205 75.48 313.885 76.296 313.837 77.352ZM313.813 73.704V73.968C313.877 73.856 313.997 73.712 314.173 73.536C314.365 73.36 314.597 73.192 314.869 73.032C315.125 72.888 315.429 72.76 315.781 72.648C316.133 72.52 316.517 72.456 316.933 72.456C317.669 72.456 318.357 72.592 318.997 72.864C319.653 73.136 320.221 73.528 320.701 74.04C321.165 74.568 321.533 75.208 321.805 75.96C322.093 76.696 322.237 77.536 322.237 78.48C322.237 79.296 322.133 80.088 321.925 80.856C321.733 81.608 321.429 82.272 321.013 82.848C320.597 83.424 320.053 83.88 319.381 84.216C318.709 84.568 317.909 84.744 316.981 84.744C316.165 84.744 315.477 84.552 314.917 84.168C314.357 83.8 313.997 83.456 313.837 83.136V88.872H311.461V75.96C311.461 75.752 311.453 75.568 311.437 75.408C311.437 75.232 311.421 75.072 311.389 74.928C311.373 74.784 311.325 74.664 311.245 74.568C311.181 74.456 311.093 74.352 310.981 74.256C310.869 74.192 310.733 74.144 310.573 74.112C310.429 74.064 310.285 74.04 310.141 74.04C309.901 74.04 309.717 73.968 309.589 73.824C309.477 73.68 309.421 73.512 309.421 73.32C309.421 73.16 309.477 73.016 309.589 72.888C309.717 72.76 309.861 72.696 310.021 72.696H312.541C312.925 72.696 313.229 72.792 313.453 72.984C313.693 73.176 313.813 73.416 313.813 73.704ZM327.266 77.352V79.152C327.266 79.504 327.314 79.904 327.41 80.352C327.522 80.8 327.698 81.232 327.938 81.648C328.178 82.048 328.474 82.392 328.826 82.68C329.194 82.952 329.634 83.088 330.146 83.088C330.706 83.088 331.178 82.952 331.562 82.68C331.962 82.408 332.282 82.048 332.522 81.6C332.762 81.168 332.938 80.68 333.05 80.136C333.162 79.592 333.218 79.056 333.218 78.528C333.218 78.064 333.162 77.568 333.05 77.04C332.938 76.512 332.762 76.024 332.522 75.576C332.282 75.144 331.962 74.784 331.562 74.496C331.162 74.192 330.674 74.04 330.098 74.04C329.442 74.04 328.818 74.328 328.226 74.904C327.634 75.48 327.314 76.296 327.266 77.352ZM327.242 73.704V73.968C327.306 73.856 327.426 73.712 327.602 73.536C327.794 73.36 328.026 73.192 328.298 73.032C328.554 72.888 328.858 72.76 329.21 72.648C329.562 72.52 329.946 72.456 330.362 72.456C331.098 72.456 331.786 72.592 332.426 72.864C333.082 73.136 333.65 73.528 334.13 74.04C334.594 74.568 334.962 75.208 335.234 75.96C335.522 76.696 335.666 77.536 335.666 78.48C335.666 79.296 335.562 80.088 335.354 80.856C335.162 81.608 334.858 82.272 334.442 82.848C334.026 83.424 333.482 83.88 332.81 84.216C332.138 84.568 331.338 84.744 330.41 84.744C329.594 84.744 328.906 84.552 328.346 84.168C327.786 83.8 327.426 83.456 327.266 83.136V88.872H324.89V75.96C324.89 75.752 324.882 75.568 324.866 75.408C324.866 75.232 324.85 75.072 324.818 74.928C324.802 74.784 324.754 74.664 324.674 74.568C324.61 74.456 324.522 74.352 324.41 74.256C324.298 74.192 324.162 74.144 324.002 74.112C323.858 74.064 323.714 74.04 323.57 74.04C323.33 74.04 323.146 73.968 323.018 73.824C322.906 73.68 322.85 73.512 322.85 73.32C322.85 73.16 322.906 73.016 323.018 72.888C323.146 72.76 323.29 72.696 323.45 72.696H325.97C326.354 72.696 326.658 72.792 326.882 72.984C327.122 73.176 327.242 73.416 327.242 73.704ZM338.032 84.624C338.032 84.128 338.216 83.696 338.584 83.328C338.952 82.944 339.4 82.752 339.928 82.752C340.456 82.752 340.904 82.944 341.272 83.328C341.656 83.696 341.848 84.128 341.848 84.624C341.848 85.136 341.656 85.576 341.272 85.944C340.904 86.328 340.456 86.52 339.928 86.52C339.4 86.52 338.952 86.328 338.584 85.944C338.216 85.576 338.032 85.136 338.032 84.624Z" fill="#FFCB77"/>
</svg>
