<svg width="205" height="60" viewBox="0 0 205 60" fill="none" xmlns="http://www.w3.org/2000/svg">
<path d="M57.73 31.63H54.67V14.38C54.67 13.56 54.54 12.96 54.28 12.58C54.02 12.2 53.56 11.99 52.9 11.95C52.48 11.95 52.22 11.85 52.12 11.65C52.04 11.43 52 11.22 52 11.02C52 10.84 52.08 10.67 52.24 10.51C52.4 10.35 52.57 10.27 52.75 10.27H67.48L67.66 14.26C67.66 14.5 67.58 14.68 67.42 14.8C67.26 14.92 67.08 14.99 66.88 15.01C66.68 15.03 66.49 14.99 66.31 14.89C66.13 14.77 66.02 14.58 65.98 14.32C65.98 14.32 65.93 14.14 65.83 13.78C65.73 13.4 65.6 13.09 65.44 12.85C65.32 12.67 65.11 12.53 64.81 12.43C64.53 12.33 64.07 12.28 63.43 12.28H59.35C58.63 12.28 58.18 12.43 58 12.73C57.82 13.03 57.73 13.46 57.73 14.02V19.48H62.14C62.4 19.48 62.64 19.46 62.86 19.42C63.1 19.38 63.32 19.33 63.52 19.27C63.94 19.15 64.25 18.97 64.45 18.73C64.67 18.47 64.78 18 64.78 17.32C64.78 17.14 64.86 17.01 65.02 16.93C65.18 16.85 65.36 16.81 65.56 16.81C65.76 16.81 65.94 16.86 66.1 16.96C66.28 17.04 66.37 17.15 66.37 17.29V23.77C66.37 23.91 66.29 24.03 66.13 24.13C65.97 24.21 65.79 24.25 65.59 24.25C65.41 24.25 65.24 24.21 65.08 24.13C64.92 24.03 64.84 23.87 64.84 23.65C64.84 23.65 64.79 23.46 64.69 23.08C64.59 22.68 64.42 22.33 64.18 22.03C64 21.85 63.78 21.73 63.52 21.67C63.26 21.59 62.8 21.55 62.14 21.55H57.73V31.63ZM73.7212 11.56V31.63H70.7512V14.05C70.7512 13.81 70.7412 13.59 70.7212 13.39C70.7212 13.17 70.7012 12.97 70.6612 12.79C70.6412 12.61 70.5812 12.46 70.4812 12.34C70.4012 12.2 70.2912 12.07 70.1512 11.95C70.0112 11.85 69.8412 11.77 69.6412 11.71C69.4612 11.65 69.2812 11.62 69.1012 11.62C68.8012 11.62 68.5712 11.54 68.4112 11.38C68.2712 11.22 68.2012 11.02 68.2012 10.78C68.2012 10.58 68.2712 10.4 68.4112 10.24C68.5712 10.08 68.7512 10 68.9512 10H72.1312C72.6112 10 72.9912 10.18 73.2712 10.54C73.5712 10.88 73.7212 11.22 73.7212 11.56ZM84.9271 31.93C83.8471 31.93 82.8371 31.75 81.8971 31.39C80.9571 31.03 80.1271 30.49 79.4071 29.77C78.7071 29.07 78.1571 28.21 77.7571 27.19C77.3571 26.17 77.1571 25.01 77.1571 23.71C77.1571 22.57 77.3371 21.56 77.6971 20.68C78.0771 19.78 78.5971 19.03 79.2571 18.43C79.9371 17.83 80.7271 17.37 81.6271 17.05C82.5471 16.73 83.5471 16.57 84.6271 16.57C85.4071 16.57 86.1871 16.72 86.9671 17.02C87.7671 17.3 88.4771 17.71 89.0971 18.25C89.7371 18.81 90.2571 19.5 90.6571 20.32C91.0571 21.12 91.2571 22.04 91.2571 23.08V24.79H80.3071C80.4471 26.29 80.9571 27.49 81.8371 28.39C82.7371 29.27 84.0171 29.79 85.6771 29.95C85.9571 29.99 86.4971 29.97 87.2971 29.89C88.1171 29.81 88.9471 29.59 89.7871 29.23C90.0271 29.13 90.2371 29.13 90.4171 29.23C90.6171 29.33 90.7571 29.47 90.8371 29.65C90.9171 29.85 90.9271 30.06 90.8671 30.28C90.8071 30.5 90.6471 30.68 90.3871 30.82C89.6271 31.24 88.8271 31.53 87.9871 31.69C87.1471 31.85 86.1271 31.93 84.9271 31.93ZM84.5371 18.4C83.5571 18.4 82.6371 18.73 81.7771 19.39C80.9371 20.05 80.4471 21.15 80.3071 22.69H88.1971C88.1971 21.13 87.8171 20.03 87.0571 19.39C86.2971 18.73 85.4571 18.4 84.5371 18.4ZM100.689 31.93C99.6088 31.93 98.5988 31.75 97.6588 31.39C96.7188 31.03 95.8888 30.49 95.1688 29.77C94.4688 29.07 93.9188 28.21 93.5188 27.19C93.1188 26.17 92.9188 25.01 92.9188 23.71C92.9188 22.57 93.0988 21.56 93.4588 20.68C93.8388 19.78 94.3588 19.03 95.0188 18.43C95.6988 17.83 96.4888 17.37 97.3888 17.05C98.3088 16.73 99.3088 16.57 100.389 16.57C101.169 16.57 101.949 16.72 102.729 17.02C103.529 17.3 104.239 17.71 104.859 18.25C105.499 18.81 106.019 19.5 106.419 20.32C106.819 21.12 107.019 22.04 107.019 23.08V24.79H96.0688C96.2088 26.29 96.7188 27.49 97.5988 28.39C98.4988 29.27 99.7788 29.79 101.439 29.95C101.719 29.99 102.259 29.97 103.059 29.89C103.879 29.81 104.709 29.59 105.549 29.23C105.789 29.13 105.999 29.13 106.179 29.23C106.379 29.33 106.519 29.47 106.599 29.65C106.679 29.85 106.689 30.06 106.629 30.28C106.569 30.5 106.409 30.68 106.149 30.82C105.389 31.24 104.589 31.53 103.749 31.69C102.909 31.85 101.889 31.93 100.689 31.93ZM100.299 18.4C99.3188 18.4 98.3988 18.73 97.5388 19.39C96.6988 20.05 96.2088 21.15 96.0688 22.69H103.959C103.959 21.13 103.579 20.03 102.819 19.39C102.059 18.73 101.219 18.4 100.299 18.4ZM117.801 29.62V31.63C117.361 31.73 116.861 31.8 116.301 31.84C115.741 31.9 115.311 31.93 115.011 31.93C113.991 31.93 113.181 31.83 112.581 31.63C111.981 31.43 111.521 31.13 111.201 30.73C110.881 30.35 110.671 29.88 110.571 29.32C110.491 28.76 110.451 28.12 110.451 27.4V18.94H108.051V16.87H110.451V14.47L113.361 11.74V16.87H117.501V18.94H113.391V27.94C113.391 28.38 113.431 28.73 113.511 28.99C113.611 29.23 113.761 29.41 113.961 29.53C114.261 29.71 114.751 29.82 115.431 29.86C116.111 29.88 116.901 29.8 117.801 29.62ZM129.309 17.29V19.96C128.649 19.54 127.949 19.2 127.209 18.94C126.469 18.68 125.749 18.55 125.049 18.55C124.409 18.55 123.829 18.67 123.309 18.91C122.789 19.13 122.519 19.54 122.499 20.14C122.479 20.38 122.499 20.61 122.559 20.83C122.619 21.05 122.739 21.23 122.919 21.37C123.399 21.81 123.929 22.13 124.509 22.33C125.109 22.53 125.709 22.73 126.309 22.93C126.909 23.13 127.489 23.39 128.049 23.71C128.629 24.01 129.159 24.47 129.639 25.09C129.819 25.39 129.969 25.71 130.089 26.05C130.209 26.37 130.269 26.74 130.269 27.16C130.269 28.02 130.089 28.76 129.729 29.38C129.369 29.98 128.899 30.47 128.319 30.85C127.759 31.23 127.119 31.5 126.399 31.66C125.699 31.84 125.009 31.93 124.329 31.93C123.589 31.93 122.879 31.88 122.199 31.78C121.519 31.68 120.909 31.53 120.369 31.33C119.949 31.19 119.669 30.96 119.529 30.64C119.409 30.32 119.379 30.01 119.439 29.71C119.519 29.41 119.669 29.17 119.889 28.99C120.109 28.81 120.369 28.77 120.669 28.87C120.869 28.97 121.089 29.08 121.329 29.2C121.569 29.3 121.829 29.4 122.109 29.5C122.389 29.6 122.689 29.68 123.009 29.74C123.349 29.8 123.709 29.83 124.089 29.83C124.969 29.83 125.729 29.7 126.369 29.44C127.029 29.16 127.359 28.58 127.359 27.7C127.359 27.26 127.209 26.86 126.909 26.5C126.629 26.14 126.219 25.83 125.679 25.57C125.279 25.41 124.829 25.25 124.329 25.09C123.829 24.93 123.329 24.74 122.829 24.52C122.309 24.32 121.819 24.09 121.359 23.83C120.919 23.55 120.549 23.22 120.249 22.84C119.849 22.36 119.619 21.79 119.559 21.13C119.519 20.47 119.629 19.81 119.889 19.15C120.269 18.21 120.899 17.55 121.779 17.17C122.679 16.77 123.689 16.56 124.809 16.54C125.069 16.54 125.399 16.56 125.799 16.6C126.199 16.62 126.619 16.67 127.059 16.75C127.499 16.81 127.919 16.89 128.319 16.99C128.719 17.09 129.049 17.19 129.309 17.29Z" fill="#227C9D"/>
<path d="M34.0551 22.8037L32.6253 18.381L32.615 18.3506C32.1591 17.0431 30.933 16.1651 29.564 16.1651L19.2542 16.1658C17.8852 16.1658 16.659 17.0438 16.2033 18.3506L14.7599 22.8168C14.2485 23.0329 13.7782 23.354 13.3753 23.7713C12.5973 24.5758 12.1689 25.6306 12.1689 26.7413V34.0472C12.1689 35.5817 13.4175 36.8304 14.9521 36.8304C16.369 36.8304 17.541 35.766 17.7127 34.3951H31.1173C31.2891 35.766 32.4611 36.8304 33.8779 36.8304C35.3345 36.8304 36.6611 35.6695 36.6611 34.3951V26.6717C36.6611 24.9242 35.5816 23.4249 34.0551 22.8037ZM19.2544 18.949L29.564 18.9483C29.7442 18.9483 29.9151 19.0747 29.9834 19.2573L31.0306 22.4969H17.788L18.8347 19.2573C18.9028 19.0751 19.0737 18.949 19.2544 18.949ZM33.8779 30.2203C33.8779 30.9874 33.2537 31.6119 32.4863 31.6119H16.3437C15.5764 31.6119 14.9521 30.9874 14.9521 30.2203V26.7413C14.9521 25.9492 15.5895 25.2801 16.3437 25.2801H32.4863C33.2537 25.2801 33.8779 25.9044 33.8779 26.6717V30.2203ZM21.2839 27.0196H27.6157V29.8028H21.2839V27.0196ZM32.1384 28.4112C32.1384 29.1794 31.5155 29.8028 30.7468 29.8028C29.9782 29.8028 29.3552 29.1794 29.3552 28.4112C29.3552 27.6426 29.9782 27.0196 30.7468 27.0196C31.5155 27.0196 32.1384 27.6426 32.1384 28.4112ZM19.5444 28.4112C19.5444 29.1794 18.9215 29.8028 18.1528 29.8028C17.3842 29.8028 16.7612 29.1794 16.7612 28.4112C16.7612 27.6426 17.3842 27.0196 18.1528 27.0196C18.9215 27.0196 19.5444 27.6426 19.5444 28.4112ZM41.8796 20.6878C41.111 20.6878 40.488 20.0644 40.488 19.2962C40.488 18.5276 41.111 17.9046 41.8796 17.9046C42.6483 17.9046 43.2712 18.5276 43.2712 19.2962C43.2712 20.0644 42.6483 20.6878 41.8796 20.6878ZM20.936 11.5728C21.7047 11.5728 22.3276 12.1958 22.3276 12.9644C22.3276 13.7326 21.7047 14.356 20.936 14.356C20.1674 14.356 19.5444 13.7326 19.5444 12.9644C19.5444 12.1958 20.1674 11.5728 20.936 11.5728ZM14.9728 15.1866C14.9591 15.051 14.9521 14.9133 14.9521 14.7742V11.5728C14.9521 10.4622 15.3805 9.40737 16.1585 8.60263C16.5658 8.18102 17.0422 7.85726 17.5603 7.64156L18.9889 3.38369C19.4466 2.08081 20.6708 1.20605 22.0374 1.20605H32.3472C33.7138 1.20605 34.9379 2.08081 35.3956 3.38369L35.714 4.54481H32.7525C32.6775 4.38021 32.517 3.98817 32.3472 3.98817H22.0374C21.8536 3.98817 21.6797 4.12037 21.6142 4.30759L21.6101 4.31933L20.6299 7.32845H25.3239C25.0739 7.71984 24.866 8.14406 24.7081 8.59633L24.6923 8.64199L24.2174 10.1117H19.127C18.3727 10.1117 17.7354 10.7807 17.7354 11.5728V13.5802C16.683 13.8575 15.7293 14.4163 14.9728 15.1866ZM47.7939 17.5567V25.2801C47.7939 26.5545 46.4674 27.7154 45.0107 27.7154C43.5939 27.7154 42.4219 26.6511 42.2501 25.2801H39.3043C39.0951 24.2521 38.6583 23.3062 38.0493 22.4969H43.6191C44.3865 22.4969 45.0107 21.8724 45.0107 21.1053V17.5567C45.0107 16.7894 44.3865 16.1651 43.6191 16.1651H34.6263C33.5357 14.4589 31.6388 13.3819 29.5635 13.3819H42.1338L41.1177 10.4232C41.0545 10.2423 40.8805 10.1117 40.6968 10.1117H30.387C30.2041 10.1117 30.031 10.2412 29.9649 10.4274L28.9527 13.4508L26.0106 13.4515L27.3361 9.51305C27.7918 8.20624 29.018 7.32845 30.387 7.32845H40.6968C42.0658 7.32845 43.2919 8.20624 43.7476 9.51305L45.1808 13.6859C46.7111 14.3056 47.7939 15.8068 47.7939 17.5567ZM36.2961 20.6878L35.3961 17.9046H38.7485V20.6878H36.2961Z" fill="#FEF9EF"/>
<path d="M0.766 56.378L4.564 46.244C4.6 46.136 4.63 46.046 4.654 45.974C4.678 45.89 4.702 45.812 4.726 45.74C4.75 45.668 4.768 45.596 4.78 45.524C4.804 45.452 4.822 45.368 4.834 45.272C4.834 45.176 4.822 45.098 4.798 45.038C4.774 44.966 4.72 44.894 4.636 44.822C4.564 44.762 4.456 44.72 4.312 44.696C4.18 44.66 4.042 44.642 3.898 44.642C3.754 44.642 3.64 44.594 3.556 44.498C3.472 44.402 3.43 44.27 3.43 44.102C3.43 43.958 3.472 43.844 3.556 43.76C3.652 43.676 3.754 43.634 3.862 43.634H7.138L11.998 56.378H9.928L8.38 52.31H3.952L2.422 56.378H0.766ZM6.13 46.28L4.42 51.068H7.966L6.13 46.28ZM19.2125 56.378V48.764H17.7365V47.522H19.2125V46.658C19.2125 46.502 19.2125 46.328 19.2125 46.136C19.2245 45.944 19.2485 45.74 19.2845 45.524C19.3205 45.236 19.3985 44.954 19.5185 44.678C19.6385 44.402 19.8065 44.156 20.0225 43.94C20.2505 43.724 20.5265 43.55 20.8505 43.418C21.1745 43.286 21.5645 43.22 22.0205 43.22C22.9445 43.22 23.6285 43.43 24.0725 43.85C24.5165 44.27 24.7565 44.81 24.7925 45.47H22.9385C22.9265 45.086 22.8485 44.798 22.7045 44.606C22.5725 44.402 22.3265 44.3 21.9665 44.3C21.6665 44.3 21.4265 44.408 21.2465 44.624C21.0785 44.84 20.9885 45.218 20.9765 45.758C20.9645 45.83 20.9585 45.902 20.9585 45.974C20.9585 46.046 20.9585 46.118 20.9585 46.19C20.9585 46.262 20.9585 46.334 20.9585 46.406C20.9705 46.478 20.9765 46.55 20.9765 46.622V47.522H23.4785V48.764H20.9765V56.378H19.2125ZM27.4448 44.336V56.378H25.6628V45.83C25.6628 45.686 25.6568 45.554 25.6448 45.434C25.6448 45.302 25.6328 45.182 25.6088 45.074C25.5968 44.966 25.5608 44.876 25.5008 44.804C25.4528 44.72 25.3868 44.642 25.3028 44.57C25.2188 44.51 25.1168 44.462 24.9968 44.426C24.8888 44.39 24.7808 44.372 24.6728 44.372C24.4928 44.372 24.3548 44.324 24.2588 44.228C24.1748 44.132 24.1328 44.012 24.1328 43.868C24.1328 43.748 24.1748 43.64 24.2588 43.544C24.3548 43.448 24.4628 43.4 24.5828 43.4H26.4908C26.7788 43.4 27.0068 43.508 27.1748 43.724C27.3548 43.928 27.4448 44.132 27.4448 44.336ZM34.1684 56.558C33.5204 56.558 32.9144 56.45 32.3504 56.234C31.7864 56.018 31.2884 55.694 30.8564 55.262C30.4364 54.842 30.1064 54.326 29.8664 53.714C29.6264 53.102 29.5064 52.406 29.5064 51.626C29.5064 50.942 29.6144 50.336 29.8304 49.808C30.0584 49.268 30.3704 48.818 30.7664 48.458C31.1744 48.098 31.6484 47.822 32.1884 47.63C32.7404 47.438 33.3404 47.342 33.9884 47.342C34.4564 47.342 34.9244 47.432 35.3924 47.612C35.8724 47.78 36.2984 48.026 36.6704 48.35C37.0544 48.686 37.3664 49.1 37.6064 49.592C37.8464 50.072 37.9664 50.624 37.9664 51.248V52.274H31.3964C31.4804 53.174 31.7864 53.894 32.3144 54.434C32.8544 54.962 33.6224 55.274 34.6184 55.37C34.7864 55.394 35.1104 55.382 35.5904 55.334C36.0824 55.286 36.5804 55.154 37.0844 54.938C37.2284 54.878 37.3544 54.878 37.4624 54.938C37.5824 54.998 37.6664 55.082 37.7144 55.19C37.7624 55.31 37.7684 55.436 37.7324 55.568C37.6964 55.7 37.6004 55.808 37.4444 55.892C36.9884 56.144 36.5084 56.318 36.0044 56.414C35.5004 56.51 34.8884 56.558 34.1684 56.558ZM33.9344 48.44C33.3464 48.44 32.7944 48.638 32.2784 49.034C31.7744 49.43 31.4804 50.09 31.3964 51.014H36.1304C36.1304 50.078 35.9024 49.418 35.4464 49.034C34.9904 48.638 34.4864 48.44 33.9344 48.44ZM43.6254 56.558C42.9774 56.558 42.3714 56.45 41.8074 56.234C41.2434 56.018 40.7454 55.694 40.3134 55.262C39.8934 54.842 39.5634 54.326 39.3234 53.714C39.0834 53.102 38.9634 52.406 38.9634 51.626C38.9634 50.942 39.0714 50.336 39.2874 49.808C39.5154 49.268 39.8274 48.818 40.2234 48.458C40.6314 48.098 41.1054 47.822 41.6454 47.63C42.1974 47.438 42.7974 47.342 43.4454 47.342C43.9134 47.342 44.3814 47.432 44.8494 47.612C45.3294 47.78 45.7554 48.026 46.1274 48.35C46.5114 48.686 46.8234 49.1 47.0634 49.592C47.3034 50.072 47.4234 50.624 47.4234 51.248V52.274H40.8534C40.9374 53.174 41.2434 53.894 41.7714 54.434C42.3114 54.962 43.0794 55.274 44.0754 55.37C44.2434 55.394 44.5674 55.382 45.0474 55.334C45.5394 55.286 46.0374 55.154 46.5414 54.938C46.6854 54.878 46.8114 54.878 46.9194 54.938C47.0394 54.998 47.1234 55.082 47.1714 55.19C47.2194 55.31 47.2254 55.436 47.1894 55.568C47.1534 55.7 47.0574 55.808 46.9014 55.892C46.4454 56.144 45.9654 56.318 45.4614 56.414C44.9574 56.51 44.3454 56.558 43.6254 56.558ZM43.3914 48.44C42.8034 48.44 42.2514 48.638 41.7354 49.034C41.2314 49.43 40.9374 50.09 40.8534 51.014H45.5874C45.5874 50.078 45.3594 49.418 44.9034 49.034C44.4474 48.638 43.9434 48.44 43.3914 48.44ZM53.8924 55.172V56.378C53.6284 56.438 53.3284 56.48 52.9924 56.504C52.6564 56.54 52.3984 56.558 52.2184 56.558C51.6064 56.558 51.1204 56.498 50.7604 56.378C50.4004 56.258 50.1244 56.078 49.9324 55.838C49.7404 55.61 49.6144 55.328 49.5544 54.992C49.5064 54.656 49.4824 54.272 49.4824 53.84V48.764H48.0424V47.522H49.4824V46.082L51.2284 44.444V47.522H53.7124V48.764H51.2464V54.164C51.2464 54.428 51.2704 54.638 51.3184 54.794C51.3784 54.938 51.4684 55.046 51.5884 55.118C51.7684 55.226 52.0624 55.292 52.4704 55.316C52.8784 55.328 53.3524 55.28 53.8924 55.172ZM61.1588 48.692C61.0748 48.644 60.9728 48.608 60.8528 48.584C60.7448 48.548 60.6368 48.53 60.5288 48.53C60.3488 48.53 60.2168 48.476 60.1328 48.368C60.0368 48.26 59.9888 48.134 59.9888 47.99C59.9888 47.87 60.0368 47.762 60.1328 47.666C60.2168 47.57 60.3188 47.522 60.4388 47.522H62.3288C62.6168 47.522 62.8448 47.618 63.0128 47.81C63.1928 47.99 63.2828 48.104 63.2828 48.152V48.818C63.3188 48.734 63.3908 48.614 63.4988 48.458C63.6068 48.29 63.7628 48.122 63.9668 47.954C64.1708 47.798 64.4228 47.66 64.7228 47.54C65.0228 47.408 65.3768 47.342 65.7848 47.342C66.5648 47.342 67.1528 47.522 67.5488 47.882C67.9568 48.242 68.2148 48.608 68.3228 48.98C68.3228 48.98 68.3648 48.896 68.4488 48.728C68.5328 48.56 68.6768 48.374 68.8808 48.17C69.0968 47.966 69.3728 47.78 69.7088 47.612C70.0568 47.432 70.4888 47.342 71.0048 47.342C71.8568 47.342 72.4988 47.63 72.9308 48.206C73.3748 48.782 73.5968 49.538 73.5968 50.474V56.378H71.8328V50.942C71.8328 50.342 71.7368 49.838 71.5448 49.43C71.3648 49.01 71.0108 48.8 70.4828 48.8C70.1348 48.8 69.8348 48.914 69.5828 49.142C69.3308 49.358 69.1148 49.622 68.9348 49.934C68.7668 50.258 68.6408 50.6 68.5568 50.96C68.4728 51.308 68.4308 51.62 68.4308 51.896V56.378H66.6668V50.438C66.6668 50.006 66.5768 49.622 66.3968 49.286C66.2168 48.95 65.8748 48.782 65.3708 48.782C65.1188 48.782 64.8668 48.878 64.6148 49.07C64.3748 49.25 64.1528 49.484 63.9488 49.772C63.7568 50.072 63.5948 50.42 63.4628 50.816C63.3428 51.2 63.2828 51.596 63.2828 52.004V56.378H61.5188V49.97C61.5188 49.814 61.5128 49.676 61.5008 49.556C61.5008 49.424 61.4888 49.304 61.4648 49.196C61.4528 49.088 61.4168 48.998 61.3568 48.926C61.3088 48.842 61.2428 48.764 61.1588 48.692ZM80.9913 56.378V55.406C80.6673 55.766 80.2593 56.048 79.7673 56.252C79.2873 56.468 78.6513 56.576 77.8593 56.576C77.1273 56.576 76.5333 56.348 76.0773 55.892C75.6213 55.436 75.3933 54.848 75.3933 54.128C75.3933 53.528 75.5433 53.024 75.8433 52.616C76.1553 52.208 76.5453 51.878 77.0133 51.626C77.4813 51.374 77.9913 51.194 78.5433 51.086C79.1073 50.978 79.6413 50.924 80.1453 50.924C80.2173 50.924 80.3013 50.924 80.3973 50.924C80.4933 50.924 80.5833 50.918 80.6673 50.906C80.7513 50.906 80.8233 50.906 80.8833 50.906C80.9433 50.894 80.9793 50.888 80.9913 50.888V50.42C80.9913 50.204 80.9613 49.982 80.9013 49.754C80.8413 49.514 80.7453 49.304 80.6133 49.124C80.4693 48.932 80.2773 48.776 80.0373 48.656C79.7973 48.536 79.4973 48.476 79.1373 48.476C78.5973 48.476 78.1773 48.608 77.8773 48.872C77.5773 49.136 77.4273 49.52 77.4273 50.024H75.5013C75.5013 49.724 75.5673 49.418 75.6993 49.106C75.8433 48.782 76.0713 48.488 76.3833 48.224C76.6833 47.972 77.0673 47.762 77.5353 47.594C78.0033 47.426 78.5613 47.342 79.2093 47.342C80.3253 47.342 81.1953 47.624 81.8193 48.188C82.4433 48.74 82.7553 49.502 82.7553 50.474V56.378H80.9913ZM80.9913 53.21V52.022C80.7513 52.022 80.4573 52.034 80.1093 52.058C79.7613 52.07 79.4193 52.112 79.0833 52.184C78.5913 52.304 78.1713 52.496 77.8233 52.76C77.4753 53.024 77.3013 53.42 77.3013 53.948C77.3013 54.068 77.3133 54.206 77.3373 54.362C77.3733 54.506 77.4393 54.638 77.5353 54.758C77.6313 54.89 77.7633 54.998 77.9313 55.082C78.0993 55.166 78.3213 55.208 78.5973 55.208C78.8973 55.208 79.1853 55.166 79.4613 55.082C79.7493 54.986 80.0073 54.848 80.2353 54.668C80.4633 54.5 80.6433 54.296 80.7753 54.056C80.9193 53.804 80.9913 53.522 80.9913 53.21ZM87.0849 48.296V49.322C87.1329 49.202 87.2349 49.034 87.3909 48.818C87.5469 48.602 87.7509 48.392 88.0029 48.188C88.2669 47.972 88.5789 47.786 88.9389 47.63C89.2989 47.462 89.7249 47.372 90.2169 47.36C91.0809 47.348 91.7709 47.582 92.2869 48.062C92.8029 48.53 93.0609 49.088 93.0609 49.736V56.378H91.2969V50.618C91.2969 50.15 91.1889 49.736 90.9729 49.376C90.7689 49.004 90.3609 48.824 89.7489 48.836C89.4489 48.848 89.1369 48.956 88.8129 49.16C88.5009 49.352 88.2129 49.598 87.9489 49.898C87.6969 50.21 87.4869 50.558 87.3189 50.942C87.1509 51.314 87.0669 51.686 87.0669 52.058V56.378H85.3029V49.97C85.3029 49.814 85.2969 49.676 85.2849 49.556C85.2849 49.424 85.2729 49.304 85.2489 49.196C85.2369 49.088 85.2009 48.998 85.1409 48.926C85.0929 48.842 85.0269 48.764 84.9429 48.692C84.8589 48.632 84.7569 48.59 84.6369 48.566C84.5289 48.53 84.4209 48.512 84.3129 48.512C84.1329 48.512 83.9949 48.464 83.8989 48.368C83.8149 48.26 83.7729 48.134 83.7729 47.99C83.7729 47.87 83.8149 47.762 83.8989 47.666C83.9949 47.57 84.1029 47.522 84.2229 47.522H86.1309C86.4189 47.522 86.6469 47.624 86.8149 47.828C86.9949 48.02 87.0849 48.176 87.0849 48.296ZM100.608 56.378V55.406C100.284 55.766 99.8765 56.048 99.3845 56.252C98.9045 56.468 98.2685 56.576 97.4765 56.576C96.7445 56.576 96.1505 56.348 95.6945 55.892C95.2385 55.436 95.0105 54.848 95.0105 54.128C95.0105 53.528 95.1605 53.024 95.4605 52.616C95.7725 52.208 96.1625 51.878 96.6305 51.626C97.0985 51.374 97.6085 51.194 98.1605 51.086C98.7245 50.978 99.2585 50.924 99.7625 50.924C99.8345 50.924 99.9185 50.924 100.014 50.924C100.11 50.924 100.2 50.918 100.284 50.906C100.368 50.906 100.44 50.906 100.5 50.906C100.56 50.894 100.596 50.888 100.608 50.888V50.42C100.608 50.204 100.578 49.982 100.518 49.754C100.458 49.514 100.362 49.304 100.23 49.124C100.086 48.932 99.8945 48.776 99.6545 48.656C99.4145 48.536 99.1145 48.476 98.7545 48.476C98.2145 48.476 97.7945 48.608 97.4945 48.872C97.1945 49.136 97.0445 49.52 97.0445 50.024H95.1185C95.1185 49.724 95.1845 49.418 95.3165 49.106C95.4605 48.782 95.6885 48.488 96.0005 48.224C96.3005 47.972 96.6845 47.762 97.1525 47.594C97.6205 47.426 98.1785 47.342 98.8265 47.342C99.9425 47.342 100.812 47.624 101.436 48.188C102.06 48.74 102.372 49.502 102.372 50.474V56.378H100.608ZM100.608 53.21V52.022C100.368 52.022 100.074 52.034 99.7265 52.058C99.3785 52.07 99.0365 52.112 98.7005 52.184C98.2085 52.304 97.7885 52.496 97.4405 52.76C97.0925 53.024 96.9185 53.42 96.9185 53.948C96.9185 54.068 96.9305 54.206 96.9545 54.362C96.9905 54.506 97.0565 54.638 97.1525 54.758C97.2485 54.89 97.3805 54.998 97.5485 55.082C97.7165 55.166 97.9385 55.208 98.2145 55.208C98.5145 55.208 98.8025 55.166 99.0785 55.082C99.3665 54.986 99.6245 54.848 99.8525 54.668C100.08 54.5 100.26 54.296 100.392 54.056C100.536 53.804 100.608 53.522 100.608 53.21ZM110.608 52.274V51.482C110.608 51.218 110.566 50.924 110.482 50.6C110.41 50.264 110.284 49.952 110.104 49.664C109.924 49.376 109.684 49.13 109.384 48.926C109.096 48.722 108.742 48.62 108.322 48.62C107.902 48.62 107.542 48.716 107.242 48.908C106.954 49.088 106.708 49.328 106.504 49.628C106.312 49.928 106.168 50.276 106.072 50.672C105.988 51.068 105.946 51.476 105.946 51.896C105.946 52.292 105.988 52.67 106.072 53.03C106.168 53.39 106.318 53.708 106.522 53.984C106.726 54.26 106.984 54.482 107.296 54.65C107.608 54.806 107.986 54.884 108.43 54.884C108.694 54.884 108.958 54.818 109.222 54.686C109.486 54.554 109.72 54.374 109.924 54.146C110.128 53.906 110.29 53.63 110.41 53.318C110.542 52.994 110.608 52.646 110.608 52.274ZM112.372 49.646V56.252C112.372 56.876 112.27 57.404 112.066 57.836C111.862 58.28 111.58 58.64 111.22 58.916C110.86 59.192 110.428 59.39 109.924 59.51C109.432 59.642 108.898 59.708 108.322 59.708C107.062 59.708 106.132 59.462 105.532 58.97C104.932 58.49 104.596 57.86 104.524 57.08H106.378C106.426 57.5 106.594 57.842 106.882 58.106C107.182 58.37 107.716 58.502 108.484 58.502C108.904 58.502 109.252 58.436 109.528 58.304C109.804 58.184 110.02 58.016 110.176 57.8C110.332 57.584 110.44 57.338 110.5 57.062C110.572 56.786 110.608 56.504 110.608 56.216V55.046C110.548 55.13 110.458 55.238 110.338 55.37C110.23 55.49 110.08 55.604 109.888 55.712C109.684 55.832 109.432 55.928 109.132 56C108.844 56.084 108.496 56.126 108.088 56.126C107.548 56.126 107.032 56.03 106.54 55.838C106.06 55.646 105.64 55.364 105.28 54.992C104.92 54.62 104.632 54.176 104.416 53.66C104.212 53.132 104.11 52.544 104.11 51.896C104.11 51.284 104.194 50.708 104.362 50.168C104.53 49.616 104.782 49.13 105.118 48.71C105.454 48.29 105.868 47.96 106.36 47.72C106.864 47.468 107.446 47.342 108.106 47.342C108.43 47.342 108.73 47.384 109.006 47.468C109.294 47.552 109.552 47.654 109.78 47.774C110.008 47.894 110.194 48.026 110.338 48.17C110.482 48.314 110.572 48.446 110.608 48.566V47.972C110.608 47.888 110.674 47.792 110.806 47.684C110.938 47.576 111.094 47.522 111.274 47.522H113.38C113.476 47.522 113.566 47.57 113.65 47.666C113.734 47.762 113.776 47.876 113.776 48.008C113.764 48.152 113.71 48.26 113.614 48.332C113.518 48.404 113.416 48.44 113.308 48.44C113.056 48.44 112.834 48.518 112.642 48.674C112.462 48.818 112.372 49.142 112.372 49.646ZM119.123 56.558C118.475 56.558 117.869 56.45 117.305 56.234C116.741 56.018 116.243 55.694 115.811 55.262C115.391 54.842 115.061 54.326 114.821 53.714C114.581 53.102 114.461 52.406 114.461 51.626C114.461 50.942 114.569 50.336 114.785 49.808C115.013 49.268 115.325 48.818 115.721 48.458C116.129 48.098 116.603 47.822 117.143 47.63C117.695 47.438 118.295 47.342 118.943 47.342C119.411 47.342 119.879 47.432 120.347 47.612C120.827 47.78 121.253 48.026 121.625 48.35C122.009 48.686 122.321 49.1 122.561 49.592C122.801 50.072 122.921 50.624 122.921 51.248V52.274H116.351C116.435 53.174 116.741 53.894 117.269 54.434C117.809 54.962 118.577 55.274 119.573 55.37C119.741 55.394 120.065 55.382 120.545 55.334C121.037 55.286 121.535 55.154 122.039 54.938C122.183 54.878 122.309 54.878 122.417 54.938C122.537 54.998 122.621 55.082 122.669 55.19C122.717 55.31 122.723 55.436 122.687 55.568C122.651 55.7 122.555 55.808 122.399 55.892C121.943 56.144 121.463 56.318 120.959 56.414C120.455 56.51 119.843 56.558 119.123 56.558ZM118.889 48.44C118.301 48.44 117.749 48.638 117.233 49.034C116.729 49.43 116.435 50.09 116.351 51.014H121.085C121.085 50.078 120.857 49.418 120.401 49.034C119.945 48.638 119.441 48.44 118.889 48.44ZM124.422 48.692C124.338 48.644 124.236 48.608 124.116 48.584C124.008 48.548 123.9 48.53 123.792 48.53C123.612 48.53 123.48 48.476 123.396 48.368C123.3 48.26 123.252 48.134 123.252 47.99C123.252 47.87 123.3 47.762 123.396 47.666C123.48 47.57 123.582 47.522 123.702 47.522H125.592C125.88 47.522 126.108 47.618 126.276 47.81C126.456 47.99 126.546 48.104 126.546 48.152V48.818C126.582 48.734 126.654 48.614 126.762 48.458C126.87 48.29 127.026 48.122 127.23 47.954C127.434 47.798 127.686 47.66 127.986 47.54C128.286 47.408 128.64 47.342 129.048 47.342C129.828 47.342 130.416 47.522 130.812 47.882C131.22 48.242 131.478 48.608 131.586 48.98C131.586 48.98 131.628 48.896 131.712 48.728C131.796 48.56 131.94 48.374 132.144 48.17C132.36 47.966 132.636 47.78 132.972 47.612C133.32 47.432 133.752 47.342 134.268 47.342C135.12 47.342 135.762 47.63 136.194 48.206C136.638 48.782 136.86 49.538 136.86 50.474V56.378H135.096V50.942C135.096 50.342 135 49.838 134.808 49.43C134.628 49.01 134.274 48.8 133.746 48.8C133.398 48.8 133.098 48.914 132.846 49.142C132.594 49.358 132.378 49.622 132.198 49.934C132.03 50.258 131.904 50.6 131.82 50.96C131.736 51.308 131.694 51.62 131.694 51.896V56.378H129.93V50.438C129.93 50.006 129.84 49.622 129.66 49.286C129.48 48.95 129.138 48.782 128.634 48.782C128.382 48.782 128.13 48.878 127.878 49.07C127.638 49.25 127.416 49.484 127.212 49.772C127.02 50.072 126.858 50.42 126.726 50.816C126.606 51.2 126.546 51.596 126.546 52.004V56.378H124.782V49.97C124.782 49.814 124.776 49.676 124.764 49.556C124.764 49.424 124.752 49.304 124.728 49.196C124.716 49.088 124.68 48.998 124.62 48.926C124.572 48.842 124.506 48.764 124.422 48.692ZM142.977 56.558C142.329 56.558 141.723 56.45 141.159 56.234C140.595 56.018 140.097 55.694 139.665 55.262C139.245 54.842 138.915 54.326 138.675 53.714C138.435 53.102 138.315 52.406 138.315 51.626C138.315 50.942 138.423 50.336 138.639 49.808C138.867 49.268 139.179 48.818 139.575 48.458C139.983 48.098 140.457 47.822 140.997 47.63C141.549 47.438 142.149 47.342 142.797 47.342C143.265 47.342 143.733 47.432 144.201 47.612C144.681 47.78 145.107 48.026 145.479 48.35C145.863 48.686 146.175 49.1 146.415 49.592C146.655 50.072 146.775 50.624 146.775 51.248V52.274H140.205C140.289 53.174 140.595 53.894 141.123 54.434C141.663 54.962 142.431 55.274 143.427 55.37C143.595 55.394 143.919 55.382 144.399 55.334C144.891 55.286 145.389 55.154 145.893 54.938C146.037 54.878 146.163 54.878 146.271 54.938C146.391 54.998 146.475 55.082 146.523 55.19C146.571 55.31 146.577 55.436 146.541 55.568C146.505 55.7 146.409 55.808 146.253 55.892C145.797 56.144 145.317 56.318 144.813 56.414C144.309 56.51 143.697 56.558 142.977 56.558ZM142.743 48.44C142.155 48.44 141.603 48.638 141.087 49.034C140.583 49.43 140.289 50.09 140.205 51.014H144.939C144.939 50.078 144.711 49.418 144.255 49.034C143.799 48.638 143.295 48.44 142.743 48.44ZM150.454 48.296V49.322C150.502 49.202 150.604 49.034 150.76 48.818C150.916 48.602 151.12 48.392 151.372 48.188C151.636 47.972 151.948 47.786 152.308 47.63C152.668 47.462 153.094 47.372 153.586 47.36C154.45 47.348 155.14 47.582 155.656 48.062C156.172 48.53 156.43 49.088 156.43 49.736V56.378H154.666V50.618C154.666 50.15 154.558 49.736 154.342 49.376C154.138 49.004 153.73 48.824 153.118 48.836C152.818 48.848 152.506 48.956 152.182 49.16C151.87 49.352 151.582 49.598 151.318 49.898C151.066 50.21 150.856 50.558 150.688 50.942C150.52 51.314 150.436 51.686 150.436 52.058V56.378H148.672V49.97C148.672 49.814 148.666 49.676 148.654 49.556C148.654 49.424 148.642 49.304 148.618 49.196C148.606 49.088 148.57 48.998 148.51 48.926C148.462 48.842 148.396 48.764 148.312 48.692C148.228 48.632 148.126 48.59 148.006 48.566C147.898 48.53 147.79 48.512 147.682 48.512C147.502 48.512 147.364 48.464 147.268 48.368C147.184 48.26 147.142 48.134 147.142 47.99C147.142 47.87 147.184 47.762 147.268 47.666C147.364 47.57 147.472 47.522 147.592 47.522H149.5C149.788 47.522 150.016 47.624 150.184 47.828C150.364 48.02 150.454 48.176 150.454 48.296ZM163.51 55.172V56.378C163.246 56.438 162.946 56.48 162.61 56.504C162.274 56.54 162.016 56.558 161.836 56.558C161.224 56.558 160.738 56.498 160.378 56.378C160.018 56.258 159.742 56.078 159.55 55.838C159.358 55.61 159.232 55.328 159.172 54.992C159.124 54.656 159.1 54.272 159.1 53.84V48.764H157.66V47.522H159.1V46.082L160.846 44.444V47.522H163.33V48.764H160.864V54.164C160.864 54.428 160.888 54.638 160.936 54.794C160.996 54.938 161.086 55.046 161.206 55.118C161.386 55.226 161.68 55.292 162.088 55.316C162.496 55.328 162.97 55.28 163.51 55.172ZM176.212 56.378V55.406C175.888 55.766 175.48 56.048 174.988 56.252C174.508 56.468 173.872 56.576 173.08 56.576C172.348 56.576 171.754 56.348 171.298 55.892C170.842 55.436 170.614 54.848 170.614 54.128C170.614 53.528 170.764 53.024 171.064 52.616C171.376 52.208 171.766 51.878 172.234 51.626C172.702 51.374 173.212 51.194 173.764 51.086C174.328 50.978 174.862 50.924 175.366 50.924C175.438 50.924 175.522 50.924 175.618 50.924C175.714 50.924 175.804 50.918 175.888 50.906C175.972 50.906 176.044 50.906 176.104 50.906C176.164 50.894 176.2 50.888 176.212 50.888V50.42C176.212 50.204 176.182 49.982 176.122 49.754C176.062 49.514 175.966 49.304 175.834 49.124C175.69 48.932 175.498 48.776 175.258 48.656C175.018 48.536 174.718 48.476 174.358 48.476C173.818 48.476 173.398 48.608 173.098 48.872C172.798 49.136 172.648 49.52 172.648 50.024H170.722C170.722 49.724 170.788 49.418 170.92 49.106C171.064 48.782 171.292 48.488 171.604 48.224C171.904 47.972 172.288 47.762 172.756 47.594C173.224 47.426 173.782 47.342 174.43 47.342C175.546 47.342 176.416 47.624 177.04 48.188C177.664 48.74 177.976 49.502 177.976 50.474V56.378H176.212ZM176.212 53.21V52.022C175.972 52.022 175.678 52.034 175.33 52.058C174.982 52.07 174.64 52.112 174.304 52.184C173.812 52.304 173.392 52.496 173.044 52.76C172.696 53.024 172.522 53.42 172.522 53.948C172.522 54.068 172.534 54.206 172.558 54.362C172.594 54.506 172.66 54.638 172.756 54.758C172.852 54.89 172.984 54.998 173.152 55.082C173.32 55.166 173.542 55.208 173.818 55.208C174.118 55.208 174.406 55.166 174.682 55.082C174.97 54.986 175.228 54.848 175.456 54.668C175.684 54.5 175.864 54.296 175.996 54.056C176.14 53.804 176.212 53.522 176.212 53.21ZM182.378 51.014V52.364C182.378 52.628 182.414 52.928 182.486 53.264C182.57 53.6 182.702 53.924 182.882 54.236C183.062 54.536 183.284 54.794 183.548 55.01C183.824 55.214 184.154 55.316 184.538 55.316C184.958 55.316 185.312 55.214 185.6 55.01C185.9 54.806 186.14 54.536 186.32 54.2C186.5 53.876 186.632 53.51 186.716 53.102C186.8 52.694 186.842 52.292 186.842 51.896C186.842 51.548 186.8 51.176 186.716 50.78C186.632 50.384 186.5 50.018 186.32 49.682C186.14 49.358 185.9 49.088 185.6 48.872C185.3 48.644 184.934 48.53 184.502 48.53C184.01 48.53 183.542 48.746 183.098 49.178C182.654 49.61 182.414 50.222 182.378 51.014ZM182.36 48.278V48.476C182.408 48.392 182.498 48.284 182.63 48.152C182.774 48.02 182.948 47.894 183.152 47.774C183.344 47.666 183.572 47.57 183.836 47.486C184.1 47.39 184.388 47.342 184.7 47.342C185.252 47.342 185.768 47.444 186.248 47.648C186.74 47.852 187.166 48.146 187.526 48.53C187.874 48.926 188.15 49.406 188.354 49.97C188.57 50.522 188.678 51.152 188.678 51.86C188.678 52.472 188.6 53.066 188.444 53.642C188.3 54.206 188.072 54.704 187.76 55.136C187.448 55.568 187.04 55.91 186.536 56.162C186.032 56.426 185.432 56.558 184.736 56.558C184.124 56.558 183.608 56.414 183.188 56.126C182.768 55.85 182.498 55.592 182.378 55.352V59.654H180.596V49.97C180.596 49.814 180.59 49.676 180.578 49.556C180.578 49.424 180.566 49.304 180.542 49.196C180.53 49.088 180.494 48.998 180.434 48.926C180.386 48.842 180.32 48.764 180.236 48.692C180.152 48.644 180.05 48.608 179.93 48.584C179.822 48.548 179.714 48.53 179.606 48.53C179.426 48.53 179.288 48.476 179.192 48.368C179.108 48.26 179.066 48.134 179.066 47.99C179.066 47.87 179.108 47.762 179.192 47.666C179.288 47.57 179.396 47.522 179.516 47.522H181.406C181.694 47.522 181.922 47.594 182.09 47.738C182.27 47.882 182.36 48.062 182.36 48.278ZM192.45 51.014V52.364C192.45 52.628 192.486 52.928 192.558 53.264C192.642 53.6 192.774 53.924 192.954 54.236C193.134 54.536 193.356 54.794 193.62 55.01C193.896 55.214 194.226 55.316 194.61 55.316C195.03 55.316 195.384 55.214 195.672 55.01C195.972 54.806 196.212 54.536 196.392 54.2C196.572 53.876 196.704 53.51 196.788 53.102C196.872 52.694 196.914 52.292 196.914 51.896C196.914 51.548 196.872 51.176 196.788 50.78C196.704 50.384 196.572 50.018 196.392 49.682C196.212 49.358 195.972 49.088 195.672 48.872C195.372 48.644 195.006 48.53 194.574 48.53C194.082 48.53 193.614 48.746 193.17 49.178C192.726 49.61 192.486 50.222 192.45 51.014ZM192.432 48.278V48.476C192.48 48.392 192.57 48.284 192.702 48.152C192.846 48.02 193.02 47.894 193.224 47.774C193.416 47.666 193.644 47.57 193.908 47.486C194.172 47.39 194.46 47.342 194.772 47.342C195.324 47.342 195.84 47.444 196.32 47.648C196.812 47.852 197.238 48.146 197.598 48.53C197.946 48.926 198.222 49.406 198.426 49.97C198.642 50.522 198.75 51.152 198.75 51.86C198.75 52.472 198.672 53.066 198.516 53.642C198.372 54.206 198.144 54.704 197.832 55.136C197.52 55.568 197.112 55.91 196.608 56.162C196.104 56.426 195.504 56.558 194.808 56.558C194.196 56.558 193.68 56.414 193.26 56.126C192.84 55.85 192.57 55.592 192.45 55.352V59.654H190.668V49.97C190.668 49.814 190.662 49.676 190.65 49.556C190.65 49.424 190.638 49.304 190.614 49.196C190.602 49.088 190.566 48.998 190.506 48.926C190.458 48.842 190.392 48.764 190.308 48.692C190.224 48.644 190.122 48.608 190.002 48.584C189.894 48.548 189.786 48.53 189.678 48.53C189.498 48.53 189.36 48.476 189.264 48.368C189.18 48.26 189.138 48.134 189.138 47.99C189.138 47.87 189.18 47.762 189.264 47.666C189.36 47.57 189.468 47.522 189.588 47.522H191.478C191.766 47.522 191.994 47.594 192.162 47.738C192.342 47.882 192.432 48.062 192.432 48.278ZM200.524 56.468C200.524 56.096 200.662 55.772 200.938 55.496C201.214 55.208 201.55 55.064 201.946 55.064C202.342 55.064 202.678 55.208 202.954 55.496C203.242 55.772 203.386 56.096 203.386 56.468C203.386 56.852 203.242 57.182 202.954 57.458C202.678 57.746 202.342 57.89 201.946 57.89C201.55 57.89 201.214 57.746 200.938 57.458C200.662 57.182 200.524 56.852 200.524 56.468Z" fill="#FFCB77"/>
</svg>
