<svg width="320" height="251" viewBox="0 0 320 251" fill="none" xmlns="http://www.w3.org/2000/svg">
<g clip-path="url(#clip0)">
<g opacity="0.5">
<path opacity="0.5" d="M228.545 0.0328614C227.29 0.0131548 225.706 0.361304 224.738 2.0922C222.841 5.49488 225.894 8.84172 224.319 12.4677C223.872 13.4545 223.167 14.3031 222.278 14.9245C220.756 16.0182 219.205 16.3434 217.667 16.997C215.819 17.7312 214.291 19.092 213.35 20.8398C212.414 22.7278 212.096 24.8611 212.441 26.939C212.744 28.752 213.458 30.1906 214.048 31.7408C214.764 33.6605 215.281 35.6481 215.592 37.6725C215.769 38.6165 215.82 39.5794 215.744 40.5365C215.572 41.7558 215.275 42.9543 214.858 44.1133L211.473 54.6859C210.986 56.0634 210.622 57.4812 210.386 58.9228C210.237 60.4277 210.282 61.9452 210.518 63.4389C210.887 66.5329 211.298 69.7516 212.767 71.6861C214.236 73.6207 217.117 73.7455 219.225 71.003C221.23 68.3754 221.747 64.4013 223.585 61.5438C226.48 57.0376 231.11 57.4284 234.212 53.2079C237.176 49.1615 237.13 43.3218 238.991 38.3425C240.308 34.7756 242.613 31.7737 244.168 28.3086C246.41 23.313 246.924 17.7031 246.143 13.2757C245.446 9.38363 243.724 5.74626 241.154 2.73595C240.193 1.57326 239.145 0.492684 237.812 0.108405C236.392 -0.312003 234.976 0.765291 233.514 0.863824C231.825 0.949219 230.247 0.0591369 228.545 0.0328614Z" fill="#17C3B2"/>
<path opacity="0.5" d="M236.501 0.0656738C236.501 0.0656738 228.334 47.2466 214.766 73.0065" stroke="#535461" stroke-width="2" stroke-miterlimit="10"/>
<path opacity="0.5" d="M224.645 2.30896C224.645 2.30896 234.611 12.4907 230.797 26.5612" stroke="#535461" stroke-width="2" stroke-miterlimit="10"/>
<path opacity="0.5" d="M212.899 21.881C212.899 21.881 230.435 28.8506 228.117 36.7726" stroke="#535461" stroke-width="2" stroke-miterlimit="10"/>
<path opacity="0.5" d="M246.196 13.1707C246.196 13.1707 238.378 16.3467 230.277 28.6436" stroke="#535461" stroke-width="2" stroke-miterlimit="10"/>
<path opacity="0.5" d="M234.097 53.2572C234.097 53.2572 228.805 55.0899 226.101 43.7323" stroke="#535461" stroke-width="2" stroke-miterlimit="10"/>
<path opacity="0.5" d="M212.082 54.3378C212.082 54.3378 222.264 55.691 223.779 51.0533" stroke="#535461" stroke-width="2" stroke-miterlimit="10"/>
</g>
<g opacity="0.5">
<path opacity="0.5" d="M33.3338 58.4302C32.629 59.468 32.0494 60.9756 32.9715 62.7328C34.7828 66.1814 39.2615 65.472 41.4383 68.7728C42.02 69.6875 42.3441 70.7414 42.3769 71.8241C42.4592 73.6929 41.8796 75.1644 41.5799 76.8099C41.1842 78.7503 41.4861 80.7678 42.4329 82.5084C43.5014 84.3232 45.114 85.758 47.0433 86.6106C48.7295 87.3529 50.3365 87.5434 51.9502 87.9047C53.952 88.3625 55.9018 89.0229 57.7693 89.8754C58.6569 90.2465 59.4917 90.7324 60.2523 91.3205C61.1801 92.1326 62.0221 93.0372 62.7651 94.0203L69.7697 102.645C70.6597 103.808 71.6516 104.89 72.7336 105.877C73.914 106.827 75.211 107.623 76.5932 108.245C79.3891 109.635 82.3135 111.057 84.7406 110.896C87.1677 110.735 88.8538 108.4 87.7044 105.135C86.6177 102.028 83.555 99.4101 82.1653 96.3096C79.9753 91.4223 82.8437 87.77 81.0094 82.8762C79.2508 78.1729 74.3209 75.0198 71.1726 70.7238C68.9135 67.6561 67.6555 64.1024 65.6038 60.9C62.6399 56.3018 58.227 52.7842 54.0776 51.004C50.4314 49.4496 46.4365 48.8896 42.502 49.3815C41.0003 49.5457 39.5217 49.8249 38.4547 50.7216C37.3218 51.6741 37.4667 53.4542 36.729 54.7187C35.9057 56.1967 34.2921 57.0244 33.3338 58.4302Z" fill="#17C3B2"/>
<path opacity="0.5" d="M37.7302 51.8153C37.7302 51.8153 72.7961 84.5119 86.9371 109.97" stroke="#535461" stroke-width="2" stroke-miterlimit="10"/>
<path opacity="0.5" d="M33.1065 62.9299C33.1065 62.9299 47.1191 60.2136 56.8175 71.1081" stroke="#535461" stroke-width="2" stroke-miterlimit="10"/>
<path opacity="0.5" d="M43.0652 83.4576C43.0652 83.4576 58.5432 72.6617 63.898 78.9415" stroke="#535461" stroke-width="2" stroke-miterlimit="10"/>
<path opacity="0.5" d="M54.0381 50.9417C54.0381 50.9417 52.408 59.2053 58.2732 72.7043" stroke="#535461" stroke-width="2" stroke-miterlimit="10"/>
<path opacity="0.5" d="M80.9995 83.001C80.9995 83.001 79.6295 88.4203 68.6171 84.4363" stroke="#535461" stroke-width="2" stroke-miterlimit="10"/>
<path opacity="0.5" d="M69.8224 101.956C69.8224 101.956 76.5438 94.2076 73.4877 90.4042" stroke="#535461" stroke-width="2" stroke-miterlimit="10"/>
</g>
<path d="M26.744 20.5047C25.0974 22.4458 23.5562 25.1325 24.7681 27.783C27.1195 32.9757 35.7444 30.4434 38.8235 35.2847C39.7456 36.7331 39.8707 38.5034 39.6567 40.0832C39.2417 43.1739 37.7071 45.7982 36.6467 48.6228C35.5863 51.4474 35.0363 54.8632 36.5314 57.8455C37.9706 60.7325 41.0036 62.5554 43.9411 63.2812C46.8787 64.0071 49.8228 63.8429 52.757 63.9381C56.2429 64.0745 59.7041 64.5832 63.0812 65.4555C64.5672 65.775 65.9925 66.3294 67.3031 67.0977C68.8015 68.0535 70.0134 69.456 71.1989 70.8354L81.7372 83.0831C83.1368 84.7253 84.566 86.3675 86.3015 87.5729C88.3038 88.9622 90.5827 89.6684 92.8253 90.3483C97.6499 91.8197 102.705 93.3043 107.315 92.2959C111.926 91.2876 115.795 86.893 114.643 81.8054C113.546 76.9609 108.6 73.5254 106.933 68.7794C104.299 61.3007 110.803 54.364 108.85 46.7539C106.98 39.4559 98.6872 35.6919 94.0768 29.5139C90.7836 25.0865 89.4861 19.5489 86.6078 14.8391C82.4617 8.05341 75.2298 3.55045 68.0012 1.84254C60.7727 0.134634 53.5046 0.959027 46.7403 2.66037C43.8753 3.38623 41.0102 4.30258 38.7379 6.11559C36.324 8.04356 36.044 10.9667 34.2855 13.2954C32.247 16.0083 28.9637 17.8739 26.744 20.5047Z" fill="#17C3B2"/>
<path d="M37.0024 8.15527C37.0024 8.15527 92.8781 52.0025 111.679 90.1217" stroke="#535461" stroke-width="2" stroke-miterlimit="10"/>
<path d="M24.946 28.0688C24.946 28.0688 52.0721 19.3059 66.9507 34.5195" stroke="#535461" stroke-width="2" stroke-miterlimit="10"/>
<path d="M37.3943 59.2513C37.3943 59.2513 69.7038 36.5886 77.871 45.4271" stroke="#535461" stroke-width="2" stroke-miterlimit="10"/>
<path d="M67.886 1.74402C67.886 1.74402 62.3172 15.9952 69.2033 36.7101" stroke="#535461" stroke-width="2" stroke-miterlimit="10"/>
<path d="M108.738 47.0004C108.738 47.0004 104.52 56.4365 85.06 53.1357" stroke="#535461" stroke-width="2" stroke-miterlimit="10"/>
<path d="M81.994 81.9565C81.994 81.9565 96.9682 67.0189 92.3907 61.593" stroke="#535461" stroke-width="2" stroke-miterlimit="10"/>
<path opacity="0.1" d="M160 251C248.366 251 320 244.959 320 237.508C320 230.056 248.366 224.015 160 224.015C71.6344 224.015 0 230.056 0 237.508C0 244.959 71.6344 251 160 251Z" fill="#17C3B2"/>
<path d="M284.213 131.128C283.531 129.137 282.546 126.615 281.769 126.021C281.722 125.982 281.67 125.95 281.614 125.925H281.519V123.465L279.681 123.758C279.389 122.869 279.169 121.958 279.023 121.035C279.2 121.212 279.425 121.332 279.671 121.381C279.916 121.43 280.171 121.406 280.403 121.311C280.373 121.261 280.347 121.209 280.32 121.156L280.403 121.12C280.113 120.611 279.96 120.037 279.958 119.452C279.973 118.917 280.058 118.387 280.212 117.875C280.541 116.742 281.097 115.684 281.407 114.545C281.605 113.811 281.698 113.054 281.684 112.295C281.694 111.008 281.4 109.737 280.827 108.583C280.682 108.25 280.456 107.959 280.169 107.736C279.91 107.593 279.644 107.464 279.372 107.348C278.915 107.042 278.521 106.65 278.213 106.196C276.907 104.61 275.159 103.446 273.19 102.852C272.677 102.661 272.121 102.617 271.583 102.724C270.348 103.052 269.901 104.58 268.899 105.381C268.017 106.087 266.805 106.16 265.695 106.396C264.585 106.632 263.469 107.102 262.712 107.956C262.19 108.551 261.905 109.317 261.911 110.107C261.881 110.477 261.946 110.848 262.101 111.185C262.255 111.522 262.494 111.813 262.794 112.032C263.136 112.256 263.523 112.401 263.928 112.458C264.333 112.514 264.745 112.481 265.135 112.361C264.83 113.412 264.746 114.515 264.888 115.6C265.031 116.685 265.397 117.729 265.963 118.667C266.529 119.604 267.283 120.415 268.179 121.048C269.074 121.681 270.091 122.123 271.165 122.345L271.379 122.73C272.041 123.958 272.543 125.266 272.874 126.622C271.182 127.577 269.334 128.474 268.218 128.559C268.173 128.995 268.091 129.425 267.974 129.847C267.713 130.904 267.212 131.888 266.509 132.721C264.99 134.422 258.164 147.284 258.164 147.284C258.164 147.284 257.95 147.796 257.597 148.67C253.359 149.189 246.44 149.938 244.51 149.554L236.936 142.367C236.936 142.367 234.486 144.233 234.7 146.499L233.353 145.205C233.353 145.205 226.147 150.69 237.525 154.283L254.837 156.287C253.191 161.249 251.65 167.027 252.127 170.17H252.269C252.6 170.17 252.93 170.144 253.257 170.094L253.227 170.653L251.551 200.439C251.551 200.439 251.172 205.924 256.293 208.381C256.293 208.381 262.55 226.725 260.087 228.807C260.087 228.807 260.38 228.961 260.874 229.175L255.727 233.724C255.727 233.724 251.933 234.67 249.848 234.479C249.482 234.429 249.11 234.515 248.803 234.721C248.496 234.927 248.276 235.239 248.185 235.596C248.185 235.635 248.185 235.675 248.165 235.714V235.763C248.165 235.803 248.165 235.842 248.165 235.885C248.165 235.928 248.165 235.915 248.165 235.931C248.165 235.947 248.165 236 248.165 236.036C248.165 236.072 248.165 236.066 248.165 236.079C248.165 236.092 248.165 236.161 248.189 236.2V236.246C248.199 236.29 248.214 236.334 248.231 236.378L248.248 236.417C248.264 236.46 248.284 236.502 248.307 236.545V236.575C248.33 236.617 248.356 236.657 248.383 236.7L248.406 236.736C248.437 236.779 248.471 236.823 248.508 236.867L248.538 236.9C248.577 236.946 248.62 236.989 248.663 237.031L248.682 237.048L248.824 237.169L248.854 237.192C248.906 237.235 248.966 237.274 249.025 237.314L249.065 237.34C249.127 237.379 249.193 237.419 249.262 237.455H249.292L249.506 237.56H249.535L249.786 237.659L249.838 237.678L250.112 237.767H250.158L250.458 237.846H250.481L250.81 237.911H250.876L251.231 237.964H251.301L251.702 238.003C252.483 238.063 253.533 238.086 254.749 238.079C254.749 238.079 254.749 238.109 254.749 238.125C254.749 238.141 254.749 238.194 254.749 238.23V238.273C254.749 238.312 254.749 238.355 254.772 238.394V238.44C254.783 238.484 254.797 238.528 254.814 238.572L254.831 238.611C254.847 238.654 254.867 238.696 254.89 238.739V238.769C254.913 238.811 254.94 238.851 254.966 238.894L254.989 238.93C255.02 238.973 255.054 239.017 255.091 239.061L255.121 239.094C255.16 239.14 255.203 239.183 255.246 239.225L255.266 239.242L255.407 239.363L255.437 239.386C255.49 239.429 255.549 239.468 255.608 239.508L255.651 239.534C255.713 239.573 255.779 239.613 255.848 239.649H255.878L256.092 239.754H256.122L256.372 239.853L256.425 239.872L256.698 239.961H256.744L257.044 240.04H257.067L257.396 240.105H257.462L257.818 240.158H257.887L258.289 240.197C263.229 240.575 278.957 239.442 278.957 239.442V239.399V239.343C279.112 238.611 279.869 234.354 277.182 231.208C277.261 231.126 277.34 231.037 277.412 230.945C277.412 230.945 275.328 227.352 276.464 226.216C277.6 225.079 270.777 205.412 270.777 205.412C270.777 205.412 267.174 199.74 269.258 193.309C271.343 186.878 269.067 179.882 269.067 179.882C269.067 179.882 274.04 178.407 274.142 172.302C274.142 172.118 274.142 171.927 274.142 171.733C274.251 171.749 274.361 171.755 274.472 171.753C274.542 171.758 274.612 171.758 274.682 171.753C274.682 171.753 273.734 168.35 274.873 165.89C276.013 163.43 278.476 165.7 280.752 155.679C282.398 148.427 283.847 140.084 284.522 136.025C284.814 134.391 284.708 132.712 284.213 131.128ZM240.937 152.404L239.208 150.762C239.781 150.999 240.417 151.232 241.128 151.455L247.648 152.211C244.737 152.473 242.034 152.621 240.937 152.404Z" fill="url(#paint0_linear)"/>
<path d="M257.442 151.445C257.442 151.445 244.029 153.304 241.233 152.759L233.768 145.678C233.768 145.678 226.687 151.068 237.868 154.595L258.746 157.029L257.442 151.445Z" fill="#FDC2CC"/>
<path opacity="0.05" d="M257.442 151.445C257.442 151.445 244.029 153.304 241.233 152.759L233.768 145.678C233.768 145.678 226.687 151.068 237.868 154.595L258.746 157.029L257.442 151.445Z" fill="black"/>
<path d="M262.287 226.873L255.766 232.633C255.766 232.633 252.042 233.563 249.99 233.376C247.938 233.189 247.01 236.535 251.854 236.907C256.698 237.278 272.16 236.164 272.16 236.164C272.16 236.164 273.652 230.219 269.179 226.873H262.287Z" fill="#47465A"/>
<path opacity="0.05" d="M262.287 226.873L255.766 232.633C255.766 232.633 252.042 233.563 249.99 233.376C247.938 233.189 247.01 236.535 251.854 236.907C256.698 237.278 272.16 236.164 272.16 236.164C272.16 236.164 273.652 230.219 269.179 226.873H262.287Z" fill="black"/>
<path opacity="0.3" d="M272.394 233.592C272.382 234.27 272.304 234.944 272.16 235.606C272.16 235.606 256.682 236.719 251.854 236.348C249.526 236.171 248.534 235.304 248.357 234.473C248.146 235.425 248.989 236.686 251.854 236.906C256.698 237.278 272.16 236.164 272.16 236.164C272.341 235.319 272.42 234.456 272.394 233.592Z" fill="white"/>
<path d="M269.924 121.524C269.924 121.524 274.024 127.285 272.532 131.187C271.04 135.089 280.357 127.098 280.357 127.098C280.357 127.098 277.376 121.895 278.865 116.322L269.924 121.524Z" fill="#FDC2CC"/>
<path d="M268.807 229.103L262.287 234.87C262.287 234.87 258.562 235.8 256.51 235.612C254.459 235.425 253.527 238.765 258.374 239.14C263.222 239.514 278.68 238.398 278.68 238.398C278.68 238.398 280.172 232.453 275.7 229.106L268.807 229.103Z" fill="#47465A"/>
<path d="M270.671 227.802C269.7 228.998 268.33 229.444 266.897 229.526C263.64 229.681 260.054 227.802 260.054 227.802C262.474 225.759 256.329 207.734 256.329 207.734C251.301 205.32 251.673 199.93 251.673 199.93L253.319 170.676L253.731 163.328L258.947 160.169L263.061 163.315L266.96 166.301C267.213 167.25 267.376 168.221 267.447 169.201C267.898 176.029 262.488 177.635 262.488 177.635C262.488 177.635 264.724 184.51 262.675 190.826C260.627 197.142 264.167 202.715 264.167 202.715C264.167 202.715 270.875 222.038 269.766 223.155C268.656 224.271 270.671 227.802 270.671 227.802Z" fill="#227C9D"/>
<path opacity="0.05" d="M270.671 227.802C269.7 228.998 268.33 229.444 266.897 229.526C263.64 229.681 260.054 227.802 260.054 227.802C262.474 225.759 256.329 207.734 256.329 207.734C251.301 205.32 251.673 199.93 251.673 199.93L253.319 170.676L253.731 163.328L258.947 160.169L263.061 163.315L266.96 166.301C267.213 167.25 267.376 168.221 267.447 169.201C267.898 176.029 262.488 177.635 262.488 177.635C262.488 177.635 264.724 184.51 262.675 190.826C260.627 197.142 264.167 202.715 264.167 202.715C264.167 202.715 270.875 222.038 269.766 223.155C268.656 224.271 270.671 227.802 270.671 227.802Z" fill="black"/>
<path d="M277.192 230.032C274.024 233.934 266.574 230.032 266.574 230.032C266.726 229.895 266.84 229.721 266.904 229.526C268.27 225.822 262.293 208.109 262.293 208.109C257.265 205.695 256.695 199.934 256.695 199.934L255.378 170.16L255.206 166.304L263.044 163.319L265.451 162.402L273.464 168.525C273.811 169.791 273.983 171.098 273.978 172.41C273.879 178.417 269.005 179.866 269.005 179.866C269.005 179.866 271.241 186.74 269.193 193.056C267.144 199.372 270.684 204.946 270.684 204.946C270.684 204.946 277.393 224.268 276.283 225.385C275.173 226.501 277.192 230.032 277.192 230.032Z" fill="#227C9D"/>
<path opacity="0.1" d="M273.978 172.417C272.367 172.187 269.107 170.252 267.431 169.201C266.792 168.8 266.383 168.544 266.383 168.544C266.383 168.544 264.707 163.9 260.235 167.431C258.781 168.607 257.139 169.532 255.378 170.167C254.704 170.404 254.009 170.578 253.303 170.686L253.715 163.338L258.931 160.179L263.044 163.325L265.451 162.409L273.464 168.524C273.811 169.793 273.984 171.102 273.978 172.417Z" fill="black"/>
<path d="M284.061 136.774C283.403 140.761 281.973 148.956 280.356 156.083C278.12 165.936 275.7 163.7 274.58 166.117C273.461 168.534 274.392 171.878 274.392 171.878C272.529 172.065 266.38 167.976 266.38 167.976C266.38 167.976 264.704 163.332 260.232 166.862C255.76 170.393 252.219 170.206 252.219 170.206C251.287 164.074 258.18 147.724 258.18 147.724C258.18 147.724 264.895 135.089 266.37 133.417C267.061 132.598 267.553 131.632 267.809 130.592C267.924 130.178 268.003 129.755 268.046 129.328C270.467 129.141 276.431 125.058 276.431 125.058L281.088 124.316V126.73C281.142 126.754 281.193 126.785 281.239 126.822C282.006 127.407 282.971 129.886 283.64 131.841C284.185 133.425 284.33 135.12 284.061 136.774Z" fill="#FE6D73"/>
<path opacity="0.1" d="M280.356 129.144C280.356 129.144 275.512 125.242 268.247 137.877C260.983 150.513 259.306 148.466 259.306 148.466C259.306 148.466 260.798 154.05 260.051 155.157C260.051 155.157 265.079 154.786 266.943 155.157C268.807 155.528 280.356 141.034 280.356 141.034C280.356 141.034 286.32 132.859 280.356 129.144Z" fill="black"/>
<path opacity="0.1" d="M280.172 128.398C280.172 128.398 275.328 124.513 268.063 137.132C260.798 149.751 259.125 147.724 259.125 147.724C259.125 147.724 264.895 154.04 266.759 154.401C268.623 154.763 280.172 140.278 280.172 140.278C280.172 140.278 286.129 132.116 280.172 128.398Z" fill="black"/>
<path opacity="0.1" d="M259.879 153.948C259.955 152.572 259.435 150.151 259.135 148.897C260.268 148.749 260.983 148.65 260.983 148.65L262.3 154.234L259.879 153.948Z" fill="black"/>
<path opacity="0.1" d="M279.052 116.693L270.111 121.885C270.488 122.434 270.835 123.002 271.152 123.587C271.668 123.692 272.193 123.744 272.72 123.744C275.107 123.744 276.22 121.245 277.659 119.563C277.567 118.223 278.654 118.19 279.052 116.693Z" fill="black"/>
<path d="M272.535 123.383C276.857 123.383 280.36 119.889 280.36 115.579C280.36 111.269 276.857 107.776 272.535 107.776C268.214 107.776 264.71 111.269 264.71 115.579C264.71 119.889 268.214 123.383 272.535 123.383Z" fill="#FDC2CC"/>
<path opacity="0.1" d="M262.636 109.267C263.426 108.459 264.452 107.922 265.567 107.733C266.653 107.5 267.846 107.427 268.715 106.748C269.703 105.963 270.138 104.471 271.35 104.14C271.877 104.034 272.423 104.077 272.927 104.265C274.863 104.847 276.583 105.99 277.867 107.549C278.169 107.996 278.555 108.38 279.003 108.682C279.271 108.795 279.532 108.922 279.787 109.063C280.066 109.283 280.285 109.568 280.426 109.894C281.299 111.653 281.501 113.67 280.992 115.566C280.689 116.686 280.142 117.724 279.82 118.851C279.497 119.977 279.415 121.229 280.007 122.224C279.434 122.516 278.71 122.148 278.361 121.616C278.012 121.084 277.893 120.427 277.702 119.813C277.329 118.605 276.631 117.522 275.683 116.683C275.097 116.164 274.037 115.816 273.638 116.486C273.48 116.745 273.49 117.074 273.355 117.343C273.088 117.869 272.318 117.974 271.807 117.672C271.315 117.333 270.97 116.821 270.839 116.24C270.072 113.651 268.764 112.022 265.988 113.129C264.954 113.543 263.736 113.822 262.741 113.113C261.43 112.177 261.697 110.324 262.636 109.267Z" fill="black"/>
<path d="M262.636 109.076C263.426 108.269 264.452 107.732 265.567 107.542C266.653 107.309 267.846 107.237 268.715 106.557C269.703 105.772 270.138 104.281 271.35 103.949C271.877 103.843 272.423 103.887 272.927 104.074C274.863 104.657 276.583 105.8 277.867 107.358C278.169 107.805 278.555 108.19 279.003 108.492C279.271 108.605 279.532 108.732 279.787 108.873C280.066 109.092 280.285 109.378 280.426 109.704C281.299 111.463 281.501 113.479 280.992 115.376C280.689 116.496 280.142 117.534 279.82 118.66C279.497 119.787 279.415 121.038 280.007 122.033C279.434 122.326 278.71 121.958 278.361 121.426C278.012 120.894 277.893 120.237 277.702 119.622C277.329 118.414 276.631 117.332 275.683 116.492C275.097 115.973 274.037 115.625 273.638 116.295C273.48 116.555 273.49 116.883 273.355 117.153C273.088 117.678 272.318 117.783 271.807 117.481C271.315 117.142 270.97 116.631 270.839 116.049C270.072 113.461 268.764 111.832 265.988 112.939C264.954 113.353 263.736 113.632 262.741 112.922C261.43 111.989 261.697 110.14 262.636 109.076Z" fill="#B96B6B"/>
<path opacity="0.05" d="M281.256 126.812H277.468C277.468 126.812 270.016 130.527 269.831 130.343C269.706 130.218 268.554 130.432 267.823 130.586C267.937 130.172 268.016 129.749 268.06 129.321C270.48 129.134 276.444 125.052 276.444 125.052L281.101 124.309V126.723C281.156 126.746 281.208 126.776 281.256 126.812Z" fill="black"/>
<path opacity="0.3" d="M278.914 235.823C278.903 236.5 278.825 237.174 278.68 237.836C278.68 237.836 263.202 238.949 258.374 238.578C256.046 238.401 255.055 237.534 254.877 236.703C254.666 237.655 255.509 238.917 258.374 239.137C263.219 239.508 278.68 238.394 278.68 238.394C278.862 237.55 278.94 236.686 278.914 235.823Z" fill="white"/>
<g opacity="0.05">
<path opacity="0.05" d="M258.467 166.675C255.954 168.646 253.731 169.471 252.272 169.799C252.272 169.937 252.298 170.075 252.318 170.206C252.318 170.206 255.858 170.393 260.331 166.863C261.023 166.271 261.842 165.844 262.725 165.615C261.76 165.151 260.357 165.181 258.467 166.675Z" fill="black"/>
<path opacity="0.05" d="M283.748 131.837C283.09 129.867 282.102 127.403 281.348 126.819C281.301 126.782 281.25 126.751 281.196 126.727C281.196 126.727 279.655 126.779 279.704 126.819C280.472 127.403 281.216 129.696 281.885 131.65C282.423 133.234 282.562 134.926 282.29 136.577C281.631 140.564 280.202 148.759 278.585 155.886C276.349 165.739 273.928 163.503 272.808 165.92C271.893 167.891 272.351 170.498 272.548 171.375C273.345 171.704 274.037 171.911 274.485 171.865C274.485 171.865 273.553 168.521 274.672 166.104C275.792 163.687 278.213 165.917 280.449 156.07C282.066 148.946 283.488 140.748 284.154 136.761C284.426 135.111 284.287 133.42 283.748 131.837Z" fill="black"/>
</g>
<path d="M93.5959 235.133C93.5959 235.133 89.3148 235.428 86.6473 230.863C86.13 229.941 85.5186 229.075 84.8229 228.278C83.9685 226.881 83.5247 225.273 83.5418 223.637C83.69 220.248 80.1432 201.671 80.1432 201.671C80.1432 201.671 80.5878 194.593 77.0377 190.175C74.7029 187.265 71.3438 178.923 69.3185 173.563C69.4548 173.684 69.6188 173.769 69.796 173.812L69.7137 173.349L69.796 173.369L68.7619 167.618C67.2378 165.869 65.9532 163.927 64.9418 161.841L65.1789 161.791L68.3174 161.134C68.3174 161.134 73.4185 153.909 73.7314 150.348L74.1463 150.368H74.7325C81.2234 150.227 88.8636 151.107 88.8636 151.107C88.8636 151.084 88.8274 150.992 88.7879 150.848C88.5896 150.132 88.4367 149.405 88.3301 148.67L88.6232 148.65L91.5278 148.457C91.5278 148.457 101.579 137.253 97.8837 135.187C94.1887 133.121 90.3455 144.476 90.3455 144.476L89.104 144.702L88.7747 144.765C88.8076 144.716 88.8406 144.67 88.8801 144.624C88.9196 144.578 72.4701 143.888 69.9574 139.907C69.9574 139.907 62.7123 134.156 62.4192 130.323C62.2612 128.29 60.9834 127.209 59.8143 126.645C58.9202 126.22 57.9303 126.035 56.9426 126.109L53.5507 126.342L53.7911 126.769H53.6956C53.4829 126.283 53.3047 125.783 53.1621 125.272H53.2312C53.2082 125.167 53.1851 125.061 53.1654 124.943C54.2048 124.699 55.1845 124.248 56.0463 123.619C56.9082 122.99 57.6347 122.195 58.1828 121.281C58.731 120.366 59.0896 119.352 59.2375 118.297C59.3853 117.242 59.3195 116.168 59.0437 115.139C59.3724 115.182 59.7057 115.173 60.0317 115.113C61.2765 114.857 62.1624 113.595 62.1953 112.328C62.1953 112.246 62.1953 112.163 62.1953 112.081C62.1953 112.081 62.1953 112.049 62.1953 112.032C62.1831 111.397 62.029 110.773 61.7441 110.204C61.4592 109.636 61.0509 109.138 60.5487 108.748C59.8703 108.186 59.0635 107.785 58.4476 107.161C57.7166 106.416 57.3181 105.417 56.7484 104.534C55.7984 103.081 54.389 101.986 52.7438 101.423C51.5188 101.01 50.0203 100.964 49.0818 101.85C48.5977 102.307 48.3178 102.96 47.7645 103.345C46.984 103.9 45.9236 103.736 44.9686 103.847C43.2364 104.051 41.7149 105.283 40.9509 106.849C40.4824 107.839 40.2566 108.925 40.2922 110.019C40.2818 110.77 40.3715 111.518 40.559 112.246C40.7434 112.971 41.0167 113.671 41.2176 114.39C41.6326 115.888 41.7281 117.465 42.2056 118.946C42.5291 120.042 43.1736 121.016 44.0564 121.744L43.9148 122.355C43.8226 122.375 41.5206 122.867 39.9267 126.336C38.6687 129.068 34.4139 131.893 32.5434 133.033C32.1944 133.246 31.8915 133.526 31.6523 133.857C31.4131 134.188 31.2425 134.563 31.1503 134.961C30.9707 135.765 30.8911 136.588 30.9132 137.411C30.8803 139.188 31.2425 141.645 32.685 144.762C35.9386 151.839 38.3032 154.943 38.3032 154.943C38.3032 154.943 38.4843 157.111 38.4942 159.397C38.4942 161.098 38.369 162.793 38.0068 163.64C37.7005 164.356 37.605 166.186 37.6116 168.272C37.6116 172.275 38.0068 177.501 38.0068 177.501C38.0068 177.501 39.1363 177.714 40.8883 177.97L41.9784 197.083C42.1153 199.397 41.3707 201.677 39.8938 203.468C39.1263 204.407 38.2408 205.243 37.2592 205.957C34.1537 208.168 27.5015 231.464 27.5015 231.464C27.5015 231.464 27.8308 231.484 28.3643 231.527L26.3192 237.215C26.3192 237.215 34.4863 243.456 39.4591 241.751C39.9902 241.579 40.5474 241.5 41.1057 241.518C42.0936 241.518 44.1848 240.746 43.0157 239.724C40.8916 237.872 38.346 235.067 36.6434 233.116C36.8039 233.194 36.9581 233.284 37.1044 233.385V233.34L37.1736 233.385C37.1736 233.385 37.1901 233.156 37.2263 232.784L37.1538 232.761C37.3053 231.228 37.7795 227.372 38.7247 226.899C39.9069 226.308 48.6273 209.061 48.6273 209.061L57.3477 186.651C57.3477 186.651 64.2964 198.593 70.2076 200.656V205.639C70.2076 205.639 73.4613 220.382 74.6436 222.005C75.8258 223.627 74.6436 230.114 74.6436 230.114C74.8773 230.381 75.1453 230.616 75.4405 230.814L74.4954 236.158C74.4954 236.158 81.2958 235.862 92.8253 239.403C92.855 239.409 97.2909 237.498 93.5959 235.133ZM66.3941 158.014L64.955 158.372L64.6718 158.444C64.6421 158.267 64.6224 158.162 64.6224 158.162C64.2929 158.31 63.939 158.395 63.5784 158.415C63.0683 156.803 62.7738 155.131 62.7024 153.442C62.7024 153.442 61.866 150.036 61.8199 147.284C61.8363 146.21 61.9977 145.274 62.4061 144.745L62.8869 144.785L63.2162 145.113L63.2392 145.136L63.4105 145.29L63.5883 145.451L63.618 145.478L63.8123 145.645L63.8452 145.675L64.0428 145.842L64.0625 145.859L64.2832 146.039L64.3326 146.079L64.5664 146.266H64.5862L64.8167 146.446L64.8694 146.486L65.1229 146.68L65.1756 146.719L65.4193 146.896L65.4621 146.926L65.7388 147.123L65.8046 147.169L66.0944 147.369L66.1208 147.386L66.404 147.573L66.4732 147.619L66.7794 147.813L66.8453 147.852L67.1318 148.026L67.1845 148.059L67.5138 148.25L67.5928 148.296L67.9222 148.486H67.9485L68.2778 148.66L68.3602 148.703L68.7092 148.877L68.7817 148.91L69.111 149.061L69.1736 149.09L69.5391 149.248L69.628 149.284L70.0101 149.435C67.606 151.994 66.3941 158.014 66.3941 158.014Z" fill="url(#paint1_linear)"/>
<path d="M29.9352 228.012L27.192 235.642C27.192 235.642 34.7037 241.386 39.5843 240.197C40.3194 240.015 41.0684 239.894 41.8236 239.836C42.8346 239.761 44.5735 239.028 43.4999 238.092C40.0354 235.07 35.4184 229.457 35.4184 229.457L29.9352 228.012Z" fill="#4F4D59"/>
<path d="M75.5393 227.29L74.2418 234.63C74.2418 234.63 80.8809 234.341 92.137 237.796C92.137 237.796 96.4676 235.924 92.8583 233.622C92.8583 233.622 88.6726 233.911 86.0743 229.447C83.4759 224.984 81.8886 225.562 81.8886 225.562L75.5393 227.29Z" fill="#4F4D59"/>
<path d="M41.1913 174.036L42.4625 196.37C42.5987 198.75 41.8069 201.091 40.2527 202.903C39.5501 203.735 38.7496 204.479 37.8685 205.12C34.8387 207.278 28.3445 230.019 28.3445 230.019C28.3445 230.019 35.7048 230.449 37.7236 231.891C37.7236 231.891 38.155 226.134 39.3109 225.559C40.4668 224.984 48.9797 208.151 48.9797 208.151L57.4992 186.26C57.4992 186.26 64.2832 197.92 70.0562 199.934V204.827C70.0562 204.827 73.2308 219.22 74.3867 220.803C75.5426 222.386 74.3867 228.718 74.3867 228.718C74.3867 228.718 77.7063 232.893 85.3531 228.429C85.3531 228.429 82.8996 225.693 83.0478 222.383C83.196 219.072 79.7283 200.939 79.7283 200.939C79.7283 200.939 80.1597 194.041 76.6986 189.712C73.2374 185.384 67.4611 168.853 67.4611 168.853L63.4895 160.33L41.1913 174.036Z" fill="#1F718F"/>
<g opacity="0.1">
<path opacity="0.1" d="M29.7178 230.025C29.7178 230.025 36.212 207.284 39.2417 205.126C40.1732 204.447 41.0152 203.654 41.7479 202.765C43.2304 200.978 43.9757 198.695 43.8325 196.38L42.5613 174.046L63.8386 160.954L63.5488 160.333L41.2572 174.036L42.5283 196.37C42.6769 198.685 41.9363 200.971 40.4569 202.761C39.7242 203.65 38.8822 204.444 37.9508 205.123C34.9211 207.281 28.4269 230.022 28.4269 230.022C28.4269 230.022 35.7872 230.452 37.8059 231.894C37.8059 231.894 37.8224 231.671 37.8586 231.306C35.0133 230.338 29.7178 230.025 29.7178 230.025Z" fill="black"/>
<path opacity="0.1" d="M75.7567 228.731C75.7567 228.731 76.9126 222.399 75.7567 220.816C74.6008 219.233 71.413 204.837 71.413 204.837V199.943C65.6531 197.93 58.8692 186.26 58.8692 186.26L58.3653 187.574C60.3215 190.668 65.5412 198.35 70.1253 199.95V204.844C70.1253 204.844 73.3 219.236 74.4559 220.819C75.6118 222.402 74.4559 228.735 74.4559 228.735C74.4559 228.735 76.0662 230.755 79.6229 230.482C76.9719 230.272 75.7567 228.731 75.7567 228.731Z" fill="black"/>
</g>
<path d="M90.8429 148.992L88.0074 149.179L86.5123 149.278V145.665L88.4882 145.31L89.7034 145.09C89.7034 145.09 93.4544 134.008 97.0637 136.022C100.673 138.035 90.8429 148.992 90.8429 148.992Z" fill="#714B4F"/>
<path d="M45.377 119.343C45.377 119.343 43.4999 126.54 42.9236 131.003C42.3473 135.467 56.3433 131.867 56.3433 131.867C56.3433 131.867 51.0051 125.39 54.0381 121.935L45.377 119.343Z" fill="#714B4F"/>
<path d="M60.5454 149.281L60.8352 152.017L56.3631 151.728L51.8712 147.833L47.399 135.319L44.5142 130.859L42.3472 128.126L43.2133 124.815C43.2133 124.815 43.6085 125.144 44.277 125.669C46.4736 127.347 51.6307 130.832 55.3982 129.87C55.5725 129.827 55.744 129.773 55.9119 129.709L61.5334 139.349L60.5454 149.281Z" fill="#E6E6F0"/>
<path opacity="0.1" d="M44.3659 123.948C44.3659 123.948 42.0607 124.378 40.4701 127.834C39.2483 130.491 35.1285 133.23 33.2876 134.357C32.9367 134.571 32.6323 134.853 32.3924 135.186C32.1526 135.519 31.9822 135.897 31.8913 136.298C31.5192 137.94 31.3776 140.994 33.3996 145.395C36.5742 152.293 38.8828 155.328 38.8828 155.328C38.8828 155.328 39.4591 162.225 38.593 164.251C37.7269 166.278 38.593 177.35 38.593 177.35C38.593 177.35 53.7417 180.227 58.7967 177.35C63.8518 174.473 63.1273 163.388 63.1273 163.388C63.1273 163.388 67.8892 173.451 69.6215 173.75L68.6105 168.137C68.6105 168.137 62.9824 162.09 62.6827 154.319C62.6827 154.319 60.9505 147.268 62.3929 145.395C62.3929 145.395 86.7823 147.412 88.2247 145.685C88.2247 145.685 72.2066 144.965 69.7532 141.086C69.7532 141.086 62.6827 135.473 62.3929 131.732C62.3506 131.03 62.1298 130.351 61.7512 129.758C61.3727 129.165 60.8489 128.678 60.2293 128.343C59.2476 127.786 58.1212 127.536 56.9954 127.623L53.7351 127.847C53.7351 127.847 59.3632 137.779 59.0734 139.073C58.7836 140.367 59.3632 150.874 59.3632 150.874C59.3632 150.874 52.8821 136.902 50.0072 135.319C47.1322 133.736 43.8028 127.236 43.8028 127.236L44.3791 123.951" fill="black"/>
<path opacity="0.1" d="M60.5454 149.281L60.8352 152.017L56.3631 151.728L51.8712 147.833L47.399 135.319L44.5142 130.859L42.3472 128.126L43.2133 124.815C43.2133 124.815 43.6085 125.144 44.277 125.669L44.0794 126.812C44.0794 126.812 47.399 133.312 50.2838 134.895C53.1687 136.478 59.6629 150.44 59.6629 150.44C59.6629 150.44 59.0865 139.93 59.3731 138.639C59.5706 137.759 57.0415 132.908 55.3982 129.876C55.5725 129.833 55.744 129.779 55.9119 129.716L61.5334 139.349L60.5454 149.281Z" fill="black"/>
<path opacity="0.1" d="M88.0008 149.182L86.5057 149.281V145.668L88.4817 145.313C87.7868 146.23 87.8098 147.833 88.0008 149.182Z" fill="black"/>
<path d="M44.3659 123.528C44.3659 123.528 42.0607 123.958 40.4701 127.413C39.2483 130.07 35.1285 132.81 33.2876 133.936C32.9367 134.15 32.6323 134.432 32.3924 134.766C32.1526 135.099 31.9822 135.477 31.8913 135.877C31.5192 137.519 31.3776 140.574 33.3996 144.975C36.5742 151.872 38.8828 154.907 38.8828 154.907C38.8828 154.907 39.4591 161.805 38.593 163.831C37.7269 165.858 38.593 176.929 38.593 176.929C38.593 176.929 53.7417 179.807 58.7967 176.929C63.8518 174.052 63.1273 162.941 63.1273 162.941C63.1273 162.941 67.8892 173.018 69.6215 173.303L68.6105 167.69C68.6105 167.69 62.9824 161.644 62.6827 153.873C62.6827 153.873 60.9505 146.821 62.3929 144.949C62.3929 144.949 68.021 150.995 74.3703 150.861C80.7196 150.726 88.2247 151.58 88.2247 151.58C88.2247 151.58 86.7823 146.982 88.2247 145.248C88.2247 145.248 72.2066 144.528 69.7532 140.649C69.7532 140.649 62.6827 135.036 62.3929 131.295C62.3506 130.594 62.1298 129.914 61.7512 129.321C61.3727 128.728 60.8489 128.241 60.2293 127.906C59.2476 127.349 58.1212 127.099 56.9954 127.187L53.7351 127.41C53.7351 127.41 59.3763 137.322 59.0865 138.636C58.7967 139.95 59.3763 150.437 59.3763 150.437C59.3763 150.437 52.8821 136.472 50.0072 134.889C47.1322 133.305 43.7896 126.812 43.7896 126.812L44.3659 123.528Z" fill="#1F718F"/>
<path opacity="0.1" d="M41.1913 138.636C41.1913 138.636 44.6558 150.296 46.6745 151.734C48.6932 153.173 60.9604 160.514 64.5697 158.786C64.5697 158.786 65.4358 163.105 64.1383 164.11C64.1383 164.11 50.6823 163.585 50.5736 163.535C50.5736 163.535 41.7709 162.383 40.3285 158.067C38.8861 153.751 37.1539 146.407 37.1539 146.407L41.1913 138.636Z" fill="black"/>
<path d="M59.6661 151.8C59.9444 151.8 60.17 151.478 60.17 151.081C60.17 150.683 59.9444 150.361 59.6661 150.361C59.3879 150.361 59.1623 150.683 59.1623 151.081C59.1623 151.478 59.3879 151.8 59.6661 151.8Z" fill="#BA7855"/>
<path d="M61.1086 156.839C61.3869 156.839 61.6124 156.516 61.6124 156.119C61.6124 155.722 61.3869 155.4 61.1086 155.4C60.8303 155.4 60.6047 155.722 60.6047 156.119C60.6047 156.516 60.8303 156.839 61.1086 156.839Z" fill="#BA7855"/>
<g opacity="0.1">
<path opacity="0.1" d="M39.604 176.772C39.604 176.772 38.7379 165.69 39.604 163.673C40.4701 161.657 39.8938 154.75 39.8938 154.75C39.8938 154.75 37.5885 151.728 34.4106 144.817C32.3886 140.416 32.5335 137.362 32.9023 135.72C32.9936 135.319 33.1645 134.941 33.4049 134.608C33.6453 134.274 33.9504 133.992 34.3019 133.778C36.1428 132.652 40.2626 129.913 41.4811 127.256C42.3769 125.308 43.4998 124.319 44.3133 123.83L44.3692 123.501C44.3692 123.501 42.064 123.932 40.4734 127.387C39.2516 130.044 35.1318 132.783 33.2942 133.91C32.9426 134.124 32.6376 134.406 32.3972 134.739C32.1568 135.072 31.9859 135.45 31.8946 135.851C31.5225 137.493 31.3809 140.548 33.4029 144.949C36.5775 151.846 38.8861 154.881 38.8861 154.881C38.8861 154.881 39.4624 161.778 38.5963 163.805C37.7302 165.831 38.5963 176.903 38.5963 176.903C38.5963 176.903 49.421 178.959 55.823 177.859C49.3486 178.624 39.604 176.772 39.604 176.772Z" fill="black"/>
<path opacity="0.1" d="M59.0866 138.636C58.889 139.523 59.0866 144.739 59.2479 147.931C59.9461 149.353 60.3841 150.293 60.3841 150.293C60.3841 150.293 59.8078 139.782 60.0943 138.492C60.3676 137.26 55.2994 128.228 54.7955 127.325L53.745 127.397C53.745 127.397 59.3764 137.322 59.0866 138.636Z" fill="black"/>
<path opacity="0.1" d="M75.3944 150.72C69.0451 150.864 63.4171 144.808 63.4171 144.808C63.2469 145.043 63.1228 145.308 63.0515 145.589C64.6981 147.136 69.3086 150.969 74.3834 150.844C80.7327 150.7 88.2379 151.564 88.2379 151.564C88.2379 151.564 88.2082 151.468 88.1621 151.304C83.9204 150.873 79.6579 150.678 75.3944 150.72Z" fill="black"/>
<path opacity="0.1" d="M64.1383 162.81C64.1383 162.81 64.1976 163.71 64.1646 165.059C65.6663 168.015 68.3997 173.113 69.6215 173.317L69.4074 172.134C67.2998 169.51 64.1383 162.81 64.1383 162.81Z" fill="black"/>
</g>
<path d="M68.1791 161.371L65.1131 162.028L62.6959 162.537L63.9934 158.924L64.8958 158.697L66.302 158.349C66.302 158.349 68.324 148.273 72.3648 148.995C76.4055 149.718 68.1791 161.371 68.1791 161.371Z" fill="#714B4F"/>
<path opacity="0.1" d="M65.1131 162.015L62.6959 162.524L63.9934 158.911L64.8958 158.684C65.0976 159.782 65.1706 160.9 65.1131 162.015Z" fill="black"/>
<path d="M41.1913 138.341C41.1913 138.341 44.6558 150 46.6745 151.439C48.6932 152.877 60.9604 160.218 64.5697 158.491C64.5697 158.491 65.4358 162.81 64.1383 163.815C64.1383 163.815 50.6823 163.289 50.5736 163.24C50.5736 163.24 41.7709 162.087 40.3285 157.771C38.8861 153.456 37.1539 146.112 37.1539 146.112L41.1913 138.341Z" fill="#1F718F"/>
<path opacity="0.1" d="M45.5218 119.632C45.5218 119.632 45.2287 120.759 44.8369 122.398C45.6375 123.906 46.9138 125.109 48.4685 125.821C50.0232 126.534 51.7699 126.716 53.4387 126.339C53.0929 124.861 53.1686 123.383 54.1829 122.211L45.5218 119.632Z" fill="black"/>
<path d="M51.5847 126.25C55.8879 126.25 59.3764 122.771 59.3764 118.479C59.3764 114.188 55.8879 110.708 51.5847 110.708C47.2814 110.708 43.793 114.188 43.793 118.479C43.793 122.771 47.2814 126.25 51.5847 126.25Z" fill="#714B4F"/>
<path opacity="0.1" d="M58.3489 116.341C58.9146 116.498 59.5071 116.534 60.0877 116.446C61.3029 116.197 62.169 114.965 62.1986 113.727C62.1865 113.107 62.036 112.497 61.758 111.942C61.48 111.387 61.0815 110.9 60.5916 110.518C59.9329 109.97 59.1426 109.579 58.5399 108.968C57.8253 108.242 57.4367 107.263 56.8933 106.409C55.9624 104.989 54.5816 103.921 52.9711 103.374C51.7757 102.97 50.3135 102.924 49.3947 103.792C48.9238 104.235 48.6471 104.875 48.1202 105.25C47.3562 105.792 46.3221 105.631 45.3902 105.739C44.5454 105.869 43.7457 106.204 43.0616 106.715C42.3775 107.226 41.8302 107.897 41.468 108.669C40.7603 110.233 40.6251 111.995 41.086 113.648C41.2671 114.354 41.5305 115.041 41.7248 115.744C42.1299 117.208 42.2254 118.746 42.693 120.191C43.1607 121.636 44.1256 123.048 45.5845 123.475C45.469 121.855 45.7896 120.234 46.5131 118.778C46.6329 118.461 46.8681 118.201 47.1718 118.049C47.4321 117.983 47.7051 117.983 47.9654 118.049C49.7925 118.32 51.6568 117.943 53.2346 116.985C53.7878 116.657 54.6506 115.504 55.2434 115.389C56.0008 115.254 57.5585 116.164 58.3489 116.341Z" fill="black"/>
<path d="M58.3489 116.052C58.9146 116.209 59.5071 116.245 60.0877 116.157C61.3029 115.908 62.169 114.676 62.1986 113.438C62.1865 112.818 62.036 112.208 61.758 111.653C61.48 111.098 61.0815 110.611 60.5916 110.229C59.9329 109.681 59.1426 109.29 58.5399 108.679C57.8253 107.953 57.4367 106.974 56.8933 106.12C55.9624 104.7 54.5816 103.632 52.9711 103.085C51.7757 102.681 50.3135 102.635 49.3947 103.502C48.9238 103.946 48.6471 104.586 48.1202 104.961C47.3562 105.503 46.3221 105.342 45.3902 105.45C44.5454 105.58 43.7457 105.915 43.0616 106.426C42.3775 106.937 41.8302 107.608 41.468 108.38C40.7634 109.94 40.6283 111.697 41.0859 113.346C41.2671 114.052 41.5305 114.739 41.7248 115.441C42.1299 116.906 42.2254 118.443 42.693 119.889C43.1607 121.334 44.1256 122.746 45.5845 123.173C45.469 121.553 45.7896 119.931 46.5131 118.476C46.6329 118.159 46.8681 117.899 47.1718 117.747C47.4321 117.68 47.7051 117.68 47.9654 117.747C49.7925 118.017 51.6568 117.641 53.2346 116.683C53.7878 116.354 54.6506 115.202 55.2434 115.087C56.0008 114.965 57.5585 115.878 58.3489 116.052Z" fill="#503F43"/>
<path d="M244.711 35.4194H74.5349V238.398H244.711V35.4194Z" fill="#FAFBFC"/>
<path d="M244.711 35.4194H74.5349V42.3003H244.711V35.4194Z" fill="#227C9D"/>
<path d="M97.5313 118.131H221.714" stroke="#227C9D" stroke-miterlimit="10"/>
<g opacity="0.5">
<path opacity="0.5" d="M97.5313 104.655H99.5072" stroke="#227C9D" stroke-miterlimit="10"/>
<path opacity="0.5" d="M103.387 104.655H217.799" stroke="#227C9D" stroke-miterlimit="10" stroke-dasharray="11.78 11.78"/>
<path opacity="0.5" d="M219.739 104.655H221.714" stroke="#227C9D" stroke-miterlimit="10"/>
</g>
<g opacity="0.5">
<path opacity="0.5" d="M97.5313 91.1826H99.5072" stroke="#227C9D" stroke-miterlimit="10"/>
<path opacity="0.5" d="M103.387 91.1826H217.799" stroke="#227C9D" stroke-miterlimit="10" stroke-dasharray="11.78 11.78"/>
<path opacity="0.5" d="M219.739 91.1826H221.714" stroke="#227C9D" stroke-miterlimit="10"/>
</g>
<g opacity="0.5">
<path opacity="0.5" d="M97.5313 77.7065H99.5072" stroke="#227C9D" stroke-miterlimit="10"/>
<path opacity="0.5" d="M103.387 77.7065H217.799" stroke="#227C9D" stroke-miterlimit="10" stroke-dasharray="11.78 11.78"/>
<path opacity="0.5" d="M219.739 77.7065H221.714" stroke="#227C9D" stroke-miterlimit="10"/>
</g>
<g opacity="0.5">
<path opacity="0.5" d="M97.5313 64.2338H99.5072" stroke="#227C9D" stroke-miterlimit="10"/>
<path opacity="0.5" d="M103.387 64.2338H217.799" stroke="#227C9D" stroke-miterlimit="10" stroke-dasharray="11.78 11.78"/>
<path opacity="0.5" d="M219.739 64.2338H221.714" stroke="#227C9D" stroke-miterlimit="10"/>
</g>
<g opacity="0.3">
<path opacity="0.3" d="M112.624 91.1826H103.713V118.131H112.624V91.1826Z" fill="#17C3B2"/>
</g>
<path d="M137.488 77.562H128.576V118.273H137.488V77.562Z" fill="#17C3B2"/>
<g opacity="0.3">
<path opacity="0.3" d="M162.355 104.511H153.443V118.414H162.355V104.511Z" fill="#17C3B2"/>
</g>
<path d="M187.218 63.8035H178.307V118.276H187.218V63.8035Z" fill="#17C3B2"/>
<g opacity="0.3">
<path opacity="0.3" d="M212.082 76.9905H203.171V118.131H212.082V76.9905Z" fill="#17C3B2"/>
</g>
<path d="M108.168 126.586C109.438 126.586 110.467 125.559 110.467 124.293C110.467 123.027 109.438 122 108.168 122C106.899 122 105.87 123.027 105.87 124.293C105.87 125.559 106.899 126.586 108.168 126.586Z" fill="#17C3B2"/>
<path d="M133.177 126.586C134.446 126.586 135.476 125.559 135.476 124.293C135.476 123.027 134.446 122 133.177 122C131.907 122 130.878 123.027 130.878 124.293C130.878 125.559 131.907 126.586 133.177 126.586Z" fill="#17C3B2"/>
<path d="M158.185 126.586C159.455 126.586 160.484 125.559 160.484 124.293C160.484 123.027 159.455 122 158.185 122C156.916 122 155.887 123.027 155.887 124.293C155.887 125.559 156.916 126.586 158.185 126.586Z" fill="#17C3B2"/>
<path d="M183.194 126.586C184.463 126.586 185.493 125.559 185.493 124.293C185.493 123.027 184.463 122 183.194 122C181.924 122 180.895 123.027 180.895 124.293C180.895 125.559 181.924 126.586 183.194 126.586Z" fill="#17C3B2"/>
<path d="M208.203 126.586C209.472 126.586 210.501 125.559 210.501 124.293C210.501 123.027 209.472 122 208.203 122C206.933 122 205.904 123.027 205.904 124.293C205.904 125.559 206.933 126.586 208.203 126.586Z" fill="#17C3B2"/>
<path d="M97.5313 204.712H221.714" stroke="#227C9D" stroke-miterlimit="10"/>
<g opacity="0.5">
<path opacity="0.5" d="M97.5313 191.236H99.5072" stroke="#227C9D" stroke-miterlimit="10"/>
<path opacity="0.5" d="M103.387 191.236H217.799" stroke="#227C9D" stroke-miterlimit="10" stroke-dasharray="11.78 11.78"/>
<path opacity="0.5" d="M219.739 191.236H221.714" stroke="#227C9D" stroke-miterlimit="10"/>
</g>
<g opacity="0.5">
<path opacity="0.5" d="M97.5313 177.764H99.5072" stroke="#227C9D" stroke-miterlimit="10"/>
<path opacity="0.5" d="M103.387 177.764H217.799" stroke="#227C9D" stroke-miterlimit="10" stroke-dasharray="11.78 11.78"/>
<path opacity="0.5" d="M219.739 177.764H221.714" stroke="#227C9D" stroke-miterlimit="10"/>
</g>
<g opacity="0.5">
<path opacity="0.5" d="M97.5313 164.288H99.5072" stroke="#227C9D" stroke-miterlimit="10"/>
<path opacity="0.5" d="M103.387 164.288H217.799" stroke="#227C9D" stroke-miterlimit="10" stroke-dasharray="11.78 11.78"/>
<path opacity="0.5" d="M219.739 164.288H221.714" stroke="#227C9D" stroke-miterlimit="10"/>
</g>
<g opacity="0.5">
<path opacity="0.5" d="M97.5313 150.815H99.5072" stroke="#227C9D" stroke-miterlimit="10"/>
<path opacity="0.5" d="M103.387 150.815H217.799" stroke="#227C9D" stroke-miterlimit="10" stroke-dasharray="11.78 11.78"/>
<path opacity="0.5" d="M219.739 150.815H221.714" stroke="#227C9D" stroke-miterlimit="10"/>
</g>
<path d="M112.624 177.764H103.713V204.712H112.624V177.764Z" fill="#17C3B2"/>
<path d="M137.488 177.619H128.576V204.854H137.488V177.619Z" fill="#17C3B2"/>
<path d="M162.355 191.095H153.443V204.998H162.355V191.095Z" fill="#17C3B2"/>
<path d="M187.218 150.385H178.307V204.857H187.218V150.385Z" fill="#17C3B2"/>
<path d="M246.002 118.246H237.09V159.387H246.002V118.246Z" fill="#17C3B2"/>
<g opacity="0.7">
<path opacity="0.7" d="M108.168 213.167C109.438 213.167 110.467 212.14 110.467 210.874C110.467 209.608 109.438 208.581 108.168 208.581C106.899 208.581 105.87 209.608 105.87 210.874C105.87 212.14 106.899 213.167 108.168 213.167Z" fill="#17C3B2"/>
</g>
<g opacity="0.7">
<path opacity="0.7" d="M133.177 213.167C134.446 213.167 135.476 212.14 135.476 210.874C135.476 209.608 134.446 208.581 133.177 208.581C131.907 208.581 130.878 209.608 130.878 210.874C130.878 212.14 131.907 213.167 133.177 213.167Z" fill="#17C3B2"/>
</g>
<g opacity="0.7">
<path opacity="0.7" d="M158.185 213.167C159.455 213.167 160.484 212.14 160.484 210.874C160.484 209.608 159.455 208.581 158.185 208.581C156.916 208.581 155.887 209.608 155.887 210.874C155.887 212.14 156.916 213.167 158.185 213.167Z" fill="#17C3B2"/>
</g>
<g opacity="0.7">
<path opacity="0.7" d="M183.194 213.167C184.463 213.167 185.493 212.14 185.493 210.874C185.493 209.608 184.463 208.581 183.194 208.581C181.924 208.581 180.895 209.608 180.895 210.874C180.895 212.14 181.924 213.167 183.194 213.167Z" fill="#17C3B2"/>
</g>
<g opacity="0.7">
<path opacity="0.7" d="M208.203 213.167C209.472 213.167 210.501 212.14 210.501 210.874C210.501 209.608 209.472 208.581 208.203 208.581C206.933 208.581 205.904 209.608 205.904 210.874C205.904 212.14 206.933 213.167 208.203 213.167Z" fill="#17C3B2"/>
</g>
<path d="M61.9286 237.655C62.5322 237.165 62.972 236.503 63.1899 235.757C63.3546 235.001 63.0318 234.098 62.3073 233.822C61.4972 233.514 60.6311 234.072 59.9757 234.64C59.3204 235.208 58.5663 235.852 57.7067 235.731C58.1485 235.331 58.479 234.825 58.666 234.26C58.853 233.695 58.8901 233.092 58.7737 232.509C58.7366 232.267 58.6341 232.04 58.4773 231.852C58.0262 231.372 57.2127 231.579 56.6727 231.957C54.9602 233.159 54.4827 235.478 54.4728 237.567C54.3016 236.815 54.4465 236.03 54.4399 235.268C54.4333 234.506 54.2225 233.625 53.5705 233.225C53.1661 233.008 52.712 232.9 52.2532 232.913C51.4826 232.883 50.6264 232.962 50.0994 233.523C49.4408 234.22 49.6153 235.392 50.1851 236.151C50.7548 236.91 51.6176 237.399 52.4146 237.931C53.0533 238.31 53.5981 238.827 54.0085 239.445C54.0567 239.531 54.0964 239.621 54.127 239.715H58.9516C60.0325 239.165 61.034 238.473 61.9286 237.655Z" fill="#17C3B2"/>
<path d="M296.404 233.714C297.008 233.223 297.448 232.561 297.666 231.816C297.83 231.06 297.507 230.157 296.783 229.881C295.973 229.572 295.107 230.131 294.451 230.699C293.796 231.267 293.042 231.911 292.182 231.789C292.624 231.39 292.955 230.883 293.142 230.319C293.329 229.754 293.366 229.151 293.249 228.567C293.212 228.326 293.11 228.098 292.953 227.91C292.502 227.431 291.688 227.638 291.148 228.016C289.436 229.218 288.958 231.536 288.948 233.625C288.777 232.873 288.922 232.088 288.916 231.326C288.909 230.564 288.698 229.684 288.046 229.283C287.642 229.067 287.188 228.959 286.729 228.971C285.958 228.942 285.102 229.021 284.575 229.582C283.916 230.279 284.091 231.451 284.661 232.21C285.23 232.968 286.093 233.458 286.89 233.99C287.529 234.369 288.074 234.886 288.484 235.504C288.532 235.59 288.572 235.68 288.603 235.773H293.427C294.508 235.224 295.51 234.531 296.404 233.714Z" fill="#17C3B2"/>
<path d="M262.287 154.224L259.879 153.945L241.437 151.807C230.244 148.279 237.324 142.906 237.324 142.906L244.777 149.967C246.927 150.398 255.358 149.396 259.135 148.913C260.268 148.765 260.983 148.667 260.983 148.667L262.287 154.224Z" fill="#FDC2CC"/>
<path d="M280.356 128.783C280.356 128.783 275.512 124.881 268.247 137.516C260.983 150.151 259.306 148.105 259.306 148.105C259.306 148.105 260.798 153.689 260.051 154.796C260.051 154.796 265.079 154.424 266.943 154.796C268.807 155.167 280.356 140.672 280.356 140.672C280.356 140.672 286.32 132.488 280.356 128.783Z" fill="#FE6D73"/>
</g>
<defs>
<linearGradient id="paint0_linear" x1="257.933" y1="240.424" x2="257.933" y2="102.665" gradientUnits="userSpaceOnUse">
<stop stop-color="#808080" stop-opacity="0.25"/>
<stop offset="0.54" stop-color="#808080" stop-opacity="0.12"/>
<stop offset="1" stop-color="#808080" stop-opacity="0.1"/>
</linearGradient>
<linearGradient id="paint1_linear" x1="22028.5" y1="113502" x2="22028.5" y2="53058.4" gradientUnits="userSpaceOnUse">
<stop stop-color="#808080" stop-opacity="0.25"/>
<stop offset="0.54" stop-color="#808080" stop-opacity="0.12"/>
<stop offset="1" stop-color="#808080" stop-opacity="0.1"/>
</linearGradient>
<clipPath id="clip0">
<rect width="320" height="251" fill="white"/>
</clipPath>
</defs>
</svg>
