<svg width="288" height="127" viewBox="0 0 288 127" fill="none" xmlns="http://www.w3.org/2000/svg">
<g clip-path="url(#clip0)">
<path d="M85.6808 104.568C84.6907 112.341 81.0499 119.453 77.1658 126.304C77.0374 126.537 76.9053 126.767 76.7699 127H36.4012C35.5848 126.788 34.7788 126.554 33.9763 126.304C29.4168 124.913 25.1122 122.791 21.23 120.02C6.37835 109.299 0.663446 89.0388 3.24474 70.8849C4.8498 59.6062 9.78983 48.0908 19.4095 42.0163C24.4886 38.8033 31.0128 37.759 36.8597 38.953C37.0127 38.9808 37.1656 39.0156 37.3218 39.047C42.3522 40.1818 46.8338 43.0015 49.3838 47.5443C53.9695 55.7074 51.2389 65.82 48.9843 74.9056C46.7366 83.9912 45.5171 94.8661 52.0415 101.567C49.8875 95.2142 52.0136 87.6359 57.1587 83.3402C61.0462 80.0994 66.4588 78.8845 71.3955 79.8905C71.8679 79.9915 72.3335 80.1063 72.792 80.2456C73.9003 80.5708 74.9689 81.0192 75.9777 81.5823C83.6727 85.8884 86.789 95.806 85.6808 104.568Z" fill="#F2F2F2"/>
<path d="M61.7445 126.304C62.8631 126.565 63.9852 126.795 65.1143 127H59.0104C58.2113 126.784 57.4157 126.554 56.6272 126.304C54.8936 125.761 53.1866 125.138 51.5064 124.434C44.7667 121.601 38.5585 117.347 33.8616 111.687C31.5645 108.944 29.6887 105.874 28.2962 102.577C26.7862 98.8501 25.8265 94.9227 25.4475 90.9186C24.5963 82.7032 25.4648 74.2616 27.0872 66.1924C28.7615 57.8292 31.4641 49.7062 35.1332 42.0094C35.5744 41.0869 36.0306 40.1702 36.5019 39.2593C36.5344 39.1843 36.5834 39.1178 36.6454 39.0647C36.7074 39.0116 36.7807 38.9734 36.8597 38.953C37.0201 38.9218 37.1862 38.9556 37.3218 39.047C37.4845 39.1405 37.6051 39.2931 37.6588 39.4732C37.7124 39.6532 37.695 39.8471 37.6101 40.0147C33.8271 47.4071 30.9594 55.2348 29.0709 63.324C27.2227 71.2157 26.1736 79.4728 26.5313 87.5872C26.8718 95.169 28.8486 102.625 33.3336 108.825C37.4295 114.485 43.0852 118.948 49.3421 121.987C53.3023 123.886 57.4624 125.334 61.7445 126.304Z" fill="white"/>
<path d="M75.1406 127H73.341C73.1395 126.77 72.9449 126.537 72.7539 126.304C68.6548 121.313 65.8779 115.368 64.6801 109.017C63.2253 101.091 64.357 92.9068 67.9075 85.6761C68.898 83.6485 70.0652 81.7125 71.3954 79.8905C71.8679 79.9915 72.3335 80.1063 72.792 80.2456C69.2931 84.8907 66.9397 90.2988 65.9238 96.0288C65.0175 101.398 65.3188 106.902 66.8058 112.14C68.2927 117.378 70.9278 122.216 74.5187 126.304C74.7201 126.537 74.9286 126.77 75.1406 127Z" fill="white"/>
<path d="M237.254 121.08C237.515 123.131 238.476 125.008 239.501 126.816C239.535 126.878 239.57 126.938 239.606 127H250.26C250.475 126.944 250.688 126.882 250.9 126.816C252.103 126.449 253.239 125.889 254.264 125.158C258.183 122.328 259.692 116.981 259.01 112.19C258.587 109.214 257.283 106.174 254.744 104.571C253.366 103.73 251.721 103.441 250.139 103.763C250.098 103.77 250.058 103.779 250.017 103.788C249.358 103.915 248.734 104.181 248.186 104.567C247.637 104.954 247.176 105.452 246.834 106.03C245.623 108.185 246.344 110.853 246.939 113.251C247.532 115.649 247.854 118.519 246.132 120.288C246.385 119.548 246.436 118.755 246.281 117.989C246.126 117.223 245.77 116.512 245.249 115.929C244.729 115.347 244.064 114.913 243.321 114.674C242.579 114.435 241.786 114.398 241.024 114.567C240.9 114.594 240.777 114.624 240.656 114.661C240.363 114.747 240.081 114.865 239.815 115.013C237.784 116.15 236.962 118.767 237.254 121.08Z" fill="#F2F2F2"/>
<path d="M243.571 126.816C243.276 126.885 242.98 126.946 242.682 127H244.293C244.504 126.943 244.714 126.882 244.922 126.816C245.379 126.673 245.83 126.509 246.273 126.323C248.072 125.591 249.669 124.437 250.93 122.959C251.536 122.235 252.031 121.424 252.399 120.554C252.798 119.571 253.051 118.534 253.151 117.477C253.334 115.293 253.188 113.093 252.718 110.952C252.276 108.745 251.563 106.601 250.595 104.569C250.478 104.326 250.358 104.084 250.233 103.844C250.225 103.824 250.212 103.806 250.195 103.792C250.179 103.778 250.16 103.768 250.139 103.763C250.097 103.755 250.053 103.763 250.017 103.788C249.974 103.812 249.942 103.853 249.928 103.9C249.914 103.948 249.918 103.999 249.941 104.043C250.939 105.994 251.696 108.06 252.195 110.195C252.708 112.289 252.933 114.443 252.865 116.598C252.828 118.603 252.204 120.552 251.07 122.203C249.967 123.691 248.516 124.883 246.845 125.677C245.799 126.178 244.701 126.56 243.571 126.816Z" fill="white"/>
<path d="M240.036 127H240.511C240.564 126.939 240.615 126.878 240.666 126.816C241.748 125.499 242.48 123.93 242.797 122.254C243.181 120.162 242.882 118.002 241.945 116.094C241.683 115.559 241.375 115.048 241.024 114.567C240.9 114.594 240.777 114.624 240.656 114.661C241.579 115.887 242.2 117.314 242.468 118.826C242.708 120.243 242.628 121.696 242.236 123.078C241.843 124.46 241.148 125.738 240.2 126.816C240.147 126.878 240.092 126.939 240.036 127Z" fill="white"/>
<path d="M141.224 73.9759H107.88L107.526 63.703C107.511 63.2576 107.592 62.8143 107.764 62.4034C107.936 61.9925 108.195 61.6239 108.523 61.3229C108.851 61.0219 109.24 60.7956 109.664 60.6597C110.087 60.5238 110.535 60.4815 110.976 60.5356L130.381 62.9165H130.383C133.26 62.9242 136.016 64.0743 138.048 66.1146C140.08 68.155 141.222 70.9193 141.224 73.8018V73.9759Z" fill="#FFCB77"/>
<path d="M126.363 37.5362H103.106C102.797 37.5361 102.491 37.5971 102.205 37.7156C101.919 37.8342 101.66 38.008 101.441 38.2272C101.222 38.4463 101.049 38.7065 100.93 38.9928C100.812 39.2792 100.751 39.5861 100.751 39.896V63.1991C100.751 63.509 100.812 63.8159 100.93 64.1022C101.049 64.3886 101.222 64.6488 101.441 64.8679C101.66 65.087 101.919 65.2609 102.205 65.3794C102.491 65.498 102.797 65.559 103.106 65.5589H126.363C126.672 65.559 126.978 65.498 127.264 65.3794C127.55 65.2609 127.809 65.087 128.028 64.8679C128.247 64.6488 128.42 64.3886 128.538 64.1022C128.657 63.8159 128.718 63.509 128.718 63.1991V39.896C128.718 39.5861 128.657 39.2792 128.538 38.9928C128.42 38.7065 128.247 38.4463 128.028 38.2272C127.809 38.008 127.55 37.8342 127.264 37.7156C126.978 37.5971 126.672 37.5361 126.363 37.5362Z" fill="#CCCCCC"/>
<path d="M121.125 54.9613L110.145 57.1039C109.493 57.2303 108.819 57.0926 108.268 56.721C107.718 56.3495 107.338 55.7745 107.21 55.1221L106.366 50.7791C106.24 50.1264 106.377 49.4503 106.748 48.8991C107.119 48.3479 107.693 47.9665 108.344 47.8387L119.324 45.6962C119.975 45.5698 120.65 45.7075 121.2 46.0791C121.75 46.4506 122.131 47.0256 122.259 47.678L123.103 52.021C123.229 52.6737 123.091 53.3497 122.72 53.901C122.35 54.4522 121.776 54.8335 121.125 54.9613Z" fill="#1F718F"/>
<path d="M118.928 49.8304L110.548 51.4656C110.395 51.4955 110.236 51.4632 110.107 51.3757C109.977 51.2883 109.888 51.1528 109.858 50.9993C109.828 50.8457 109.86 50.6865 109.948 50.5568C110.035 50.427 110.17 50.3373 110.323 50.3074L118.703 48.6723C118.856 48.6424 119.015 48.6747 119.145 48.7622C119.274 48.8496 119.364 48.985 119.393 49.1386C119.423 49.2922 119.391 49.4514 119.304 49.5811C119.216 49.7108 119.081 49.8005 118.928 49.8304Z" fill="white"/>
<path d="M117.299 52.2519L112.965 53.0976C112.812 53.1275 112.653 53.0952 112.523 53.0078C112.394 52.9203 112.304 52.7849 112.275 52.6313C112.245 52.4777 112.277 52.3186 112.364 52.1888C112.451 52.0591 112.587 51.9694 112.74 51.9395L117.074 51.0937C117.15 51.0789 117.228 51.0792 117.304 51.0947C117.38 51.1101 117.452 51.1403 117.516 51.1836C117.58 51.2269 117.635 51.2824 117.678 51.347C117.72 51.4116 117.75 51.484 117.765 51.56C117.779 51.6361 117.779 51.7143 117.764 51.7902C117.748 51.8662 117.718 51.9383 117.675 52.0025C117.632 52.0668 117.576 52.1219 117.512 52.1647C117.447 52.2074 117.375 52.2371 117.299 52.2519Z" fill="white"/>
<path d="M128.718 39.896V42.9932H100.751V39.896C100.751 39.5861 100.812 39.2792 100.93 38.9928C101.049 38.7065 101.222 38.4463 101.441 38.2272C101.66 38.008 101.919 37.8342 102.205 37.7156C102.491 37.5971 102.797 37.5361 103.106 37.5362H126.363C126.672 37.5361 126.978 37.5971 127.264 37.7156C127.55 37.8342 127.809 38.008 128.028 38.2272C128.247 38.4463 128.42 38.7065 128.538 38.9928C128.657 39.2792 128.718 39.5861 128.718 39.896Z" fill="#B3B3B3"/>
<path d="M184.563 43.9631C184.402 43.4409 184.128 42.9605 183.761 42.5558C183.395 42.151 182.944 41.8318 182.44 41.6206C181.937 41.4093 181.394 41.3112 180.849 41.3332C180.304 41.3551 179.77 41.4965 179.285 41.7475L147.29 30.2451L145.881 38.2541L177.774 47.0422C178.249 47.8302 178.996 48.4163 179.873 48.6895C180.75 48.9626 181.697 48.9039 182.534 48.5243C183.37 48.1448 184.039 47.4709 184.413 46.6302C184.788 45.7895 184.841 44.8406 184.563 43.9631Z" fill="#FFB8B8"/>
<path opacity="0.2" d="M184.563 43.9631C184.402 43.4409 184.128 42.9605 183.761 42.5558C183.395 42.151 182.944 41.8318 182.44 41.6206C181.937 41.4093 181.394 41.3112 180.849 41.3332C180.304 41.3551 179.77 41.4965 179.285 41.7475L147.29 30.2451L145.881 38.2541L177.774 47.0422C178.249 47.8302 178.996 48.4163 179.873 48.6895C180.75 48.9626 181.697 48.9039 182.534 48.5243C183.37 48.1448 184.039 47.4709 184.413 46.6302C184.788 45.7895 184.841 44.8406 184.563 43.9631Z" fill="black"/>
<path d="M152.969 31.7045L149.948 39.6136C149.862 39.8386 149.728 40.0424 149.557 40.2111C149.385 40.3799 149.179 40.5096 148.953 40.5913C148.727 40.6731 148.486 40.7051 148.246 40.6851C148.006 40.6651 147.774 40.5936 147.564 40.4754L140.221 36.3342C139.075 35.8869 138.152 35.0023 137.656 33.8744C137.159 32.7466 137.129 31.4674 137.572 30.3174C138.016 29.1674 138.896 28.2404 140.02 27.7396C141.144 27.2388 142.421 27.2051 143.57 27.6459L151.769 29.4682C152.004 29.5204 152.225 29.6227 152.416 29.7682C152.608 29.9136 152.766 30.0988 152.88 30.311C152.994 30.5232 153.061 30.7575 153.076 30.998C153.092 31.2385 153.055 31.4794 152.969 31.7045Z" fill="#FFCB77"/>
<path d="M187.082 51.2864L175.617 56.5081L177.123 62.1861C180.029 73.1507 180.801 84.5737 179.395 95.8307L187.777 97.5848L194.725 79.8313L192.293 59.641L187.082 51.2864Z" fill="#FFCB77"/>
<path d="M209.576 77.5686C202.044 77.5686 195.905 83.0555 195.608 89.9265H223.545C223.247 83.0555 217.109 77.5686 209.576 77.5686Z" fill="#1F718F"/>
<path d="M203.713 78.7527C203.321 47.7369 185.692 50.5902 185.692 50.5902C185.692 50.5902 186.022 60.2444 186.18 60.5447C197.414 81.8418 178.874 106.81 155.275 102.216C154.83 102.13 154.403 102.042 153.993 101.953C151.002 101.327 148.362 99.5838 146.609 97.0772C144.856 94.5705 144.122 91.4889 144.556 88.4591C146.881 69.7533 135.318 70.0843 135.318 70.0843H118.411L109.631 62.1663C109.321 61.8868 108.948 61.6876 108.543 61.5862C108.139 61.4848 107.715 61.4842 107.311 61.5846C106.906 61.6849 106.532 61.883 106.221 62.1617C105.911 62.4404 105.673 62.791 105.529 63.1831L104.399 66.2551C104.399 66.2551 87.7235 67.9957 89.1131 84.3568H94.2686C94.2562 84.8216 94.2747 85.2868 94.3242 85.7492L132.8 85.4357C135.055 85.4174 137.046 87.2486 137.055 89.5085C137.058 90.0587 136.949 90.6037 136.736 91.1109C136.524 91.6182 136.211 92.0772 135.817 92.4605C135.423 92.8439 134.956 93.1437 134.444 93.342C133.932 93.5403 133.385 93.6331 132.836 93.6148L126.633 93.4076C124.722 101.936 129.412 107.68 134.58 111.292C139.445 114.643 145.219 116.42 151.123 116.383H167.974C189.861 116.383 193.683 97.933 193.683 97.933C205.147 93.0594 203.713 78.7527 203.713 78.7527Z" fill="#1F718F"/>
<path d="M208.534 126.478C219.327 126.478 228.076 117.711 228.076 106.897C228.076 96.0824 219.327 87.3156 208.534 87.3156C197.742 87.3156 188.993 96.0824 188.993 106.897C188.993 117.711 197.742 126.478 208.534 126.478Z" fill="#1F718F"/>
<path d="M208.534 111.696C211.179 111.696 213.324 109.547 213.324 106.897C213.324 104.246 211.179 102.097 208.534 102.097C205.889 102.097 203.745 104.246 203.745 106.897C203.745 109.547 205.889 111.696 208.534 111.696Z" fill="white"/>
<path d="M109.871 126.478C122.294 126.478 132.365 116.386 132.365 103.938C132.365 91.4893 122.294 81.3978 109.871 81.3978C97.4473 81.3978 87.3761 91.4893 87.3761 103.938C87.3761 116.386 97.4473 126.478 109.871 126.478Z" fill="#1F718F"/>
<path d="M109.871 109.462C112.916 109.462 115.384 106.989 115.384 103.938C115.384 100.887 112.916 98.4133 109.871 98.4133C106.826 98.4133 104.357 100.887 104.357 103.938C104.357 106.989 106.826 109.462 109.871 109.462Z" fill="white"/>
<path d="M175.65 58.0509L171.525 46.8246C171.31 46.2395 171.212 45.6177 171.237 44.9947C171.262 44.3718 171.409 43.7598 171.67 43.1937C171.931 42.6277 172.3 42.1187 172.758 41.6958C173.215 41.2729 173.751 40.9444 174.334 40.729L186.16 36.3667C187.188 35.9876 188.279 35.815 189.373 35.8588C190.467 35.9025 191.542 36.1617 192.536 36.6216C193.53 37.0815 194.424 37.733 195.167 38.5391C195.909 39.3451 196.486 40.2898 196.865 41.3193C197.206 42.2433 197.38 43.2208 197.379 44.206C197.375 45.4569 197.092 46.6912 196.552 47.819C196.012 48.9468 195.228 49.9399 194.257 50.7261C193.555 51.29 192.767 51.7355 191.922 52.0451L175.65 58.0509Z" fill="#1F718F"/>
<path d="M197.205 44.2059C197.204 45.4314 196.929 46.641 196.4 47.7459C195.871 48.8508 195.101 49.8227 194.148 50.5902C192.685 50.2036 191.324 49.5024 190.159 48.5354C188.994 47.5684 188.053 46.3588 187.402 44.9906C186.751 43.6224 186.404 42.1285 186.388 40.6128C186.371 39.097 186.683 37.5957 187.304 36.2133C188.496 35.9537 189.73 35.9648 190.917 36.2457C192.104 36.5267 193.213 37.0704 194.162 37.837C195.112 38.6035 195.878 39.5735 196.405 40.6756C196.931 41.7777 197.205 42.984 197.205 44.2059Z" fill="#FFCB77"/>
<path d="M92.0661 86.6194C94.7522 86.6194 96.9298 83.9699 96.9298 80.7016C96.9298 77.4332 94.7522 74.7837 92.0661 74.7837C89.3799 74.7837 87.2024 77.4332 87.2024 80.7016C87.2024 83.9699 89.3799 86.6194 92.0661 86.6194Z" fill="#FFCB77"/>
<path d="M156.358 101.649H160.617L162.643 90.5805L156.357 90.5809L156.358 101.649Z" fill="#FFB8B8"/>
<path d="M155.271 100.256L163.659 100.256H163.659C164.361 100.256 165.056 100.394 165.705 100.663C166.353 100.933 166.943 101.327 167.439 101.824C167.935 102.322 168.329 102.912 168.598 103.562C168.866 104.212 169.005 104.908 169.005 105.612V105.786L155.271 105.786L155.271 100.256Z" fill="#2F2E41"/>
<path d="M161.301 97.1063C161.252 97.1063 161.202 97.104 161.152 97.0992L155.258 96.6692C155.019 96.647 154.789 96.5703 154.585 96.4449C154.381 96.3196 154.208 96.1489 154.08 95.9461C153.953 95.7433 153.873 95.5138 153.848 95.2753C153.822 95.0367 153.852 94.7956 153.934 94.5703L161.823 76.8117C161.879 76.6534 161.902 76.4851 161.89 76.3174C161.879 76.1497 161.832 75.9863 161.754 75.8374C161.677 75.6868 161.568 75.5543 161.436 75.4487C161.303 75.3431 161.15 75.2668 160.986 75.2248C157.277 74.2533 147.76 71.6662 139.521 68.6393C135.992 67.3424 133.769 65.4683 132.914 63.0689C131.787 59.9057 133.454 57.0209 133.526 56.8999L133.582 56.805L141.334 57.5111L149.738 58.2274L168.155 68.1233C169.698 68.9595 170.871 70.3475 171.438 72.0109C172.006 73.6743 171.928 75.4909 171.219 77.099L162.728 96.1779C162.605 96.4543 162.405 96.689 162.152 96.8537C161.899 97.0185 161.603 97.1062 161.301 97.1063Z" fill="#2F2E41"/>
<path d="M142.682 22.3768C147.394 22.3768 151.214 18.5489 151.214 13.8269C151.214 9.10495 147.394 5.27703 142.682 5.27703C137.969 5.27703 134.149 9.10495 134.149 13.8269C134.149 18.5489 137.969 22.3768 142.682 22.3768Z" fill="#FFB8B8"/>
<path d="M153.926 102.694H158.185L160.211 91.6249L153.925 91.6252L153.926 102.694Z" fill="#FFB8B8"/>
<path d="M152.839 101.3L161.227 101.3H161.227C161.929 101.3 162.624 101.439 163.273 101.708C163.921 101.977 164.511 102.371 165.007 102.869C165.503 103.366 165.897 103.957 166.166 104.606C166.434 105.256 166.573 105.953 166.573 106.656V106.83L152.84 106.831L152.839 101.3Z" fill="#2F2E41"/>
<path d="M158.869 98.1507C158.82 98.1507 158.77 98.1483 158.72 98.1435L152.826 97.7135C152.587 97.6913 152.357 97.6146 152.153 97.4893C151.949 97.3639 151.776 97.1932 151.649 96.9904C151.521 96.7876 151.441 96.5581 151.416 96.3196C151.39 96.0811 151.42 95.8399 151.502 95.6147L159.391 77.8561C159.447 77.6977 159.47 77.5294 159.458 77.3618C159.447 77.1941 159.4 77.0306 159.323 76.8818C159.245 76.7311 159.136 76.5986 159.004 76.4931C158.871 76.3875 158.718 76.3112 158.554 76.2692C154.845 75.2976 145.328 72.7106 137.089 69.6837C133.56 68.3868 131.337 66.5126 130.482 64.1132C129.355 60.95 131.022 58.0652 131.094 57.9442L131.15 57.8493L138.902 58.5554L147.306 59.2717L165.723 69.1676C167.266 70.0038 168.439 71.3919 169.006 73.0552C169.574 74.7186 169.496 76.5352 168.787 78.1433L160.296 97.2223C160.173 97.4986 159.973 97.7333 159.72 97.8981C159.467 98.0628 159.171 98.1506 158.869 98.1507Z" fill="#2F2E41"/>
<path d="M145.313 27.225L136.281 24.092C136.281 24.092 130.61 28.4573 133.334 39.2864C134.756 44.8747 134.342 50.7735 132.153 56.1071C131.89 56.767 131.586 57.41 131.243 58.0326C131.243 58.0326 141.318 70.2163 150.698 61.1655L147.05 43.5861C147.05 43.5861 152.782 31.9244 145.313 27.225Z" fill="#FFCB77"/>
<path d="M143.741 22.6676C142.527 20.8462 141.568 18.3206 142.905 16.5876C144.225 14.8769 146.828 15.1289 148.85 14.372C151.665 13.3177 153.298 10.0035 152.789 7.03537C152.279 4.06728 149.902 1.60683 147.069 0.600088C144.236 -0.406651 141.042 -0.0792357 138.268 1.08009C134.853 2.50723 131.924 5.26793 130.696 8.76501C129.467 12.2621 130.124 16.461 132.672 19.1489C135.404 22.0307 139.692 22.7987 143.658 22.7521" fill="#2F2E41"/>
<path d="M135.804 7.13063C134.274 8.3789 131.939 7.82447 130.296 6.72896C128.654 5.63344 127.321 4.0735 125.543 3.21457C122.41 1.70032 118.622 2.70695 115.572 4.38425C112.523 6.06156 109.819 8.37879 106.598 9.69505C103.377 11.0113 99.2667 11.0764 96.8276 8.59098C96.2273 10.3335 96.1783 12.2193 96.6871 13.9908C97.1958 15.7623 98.2377 17.3334 99.6705 18.4898C101.103 19.6461 102.857 20.3313 104.693 20.4518C106.529 20.5724 108.357 20.1225 109.928 19.1635C113.458 17.0093 115.407 12.4925 119.366 11.3035C121.556 10.6455 123.909 11.1755 126.123 11.7494C128.337 12.3234 130.645 12.9436 132.879 12.455C135.114 11.9663 137.204 9.95446 136.919 7.68074L135.804 7.13063Z" fill="#2F2E41"/>
<path d="M184.139 43.6149C183.914 43.1166 183.583 42.6737 183.17 42.3174C182.756 41.9611 182.269 41.7001 181.744 41.5527C181.218 41.4053 180.667 41.3751 180.129 41.4642C179.59 41.5534 179.078 41.7598 178.628 42.0687L145.461 34.6098L145.049 42.7318L177.78 47.5098C178.349 48.2331 179.162 48.7224 180.066 48.885C180.97 49.0476 181.902 48.8723 182.686 48.3922C183.47 47.9121 184.051 47.1606 184.318 46.2801C184.586 45.3996 184.522 44.4513 184.139 43.6149Z" fill="#FFB8B8"/>
<path d="M151.276 35.3559L149.252 43.5781C149.195 43.812 149.087 44.0308 148.938 44.2195C148.788 44.4082 148.6 44.5623 148.385 44.6714C148.171 44.7806 147.936 44.8421 147.695 44.8519C147.455 44.8616 147.215 44.8194 146.993 44.728L139.196 41.5263C138.003 41.2249 136.977 40.4613 136.345 39.4032C135.713 38.345 135.525 37.0787 135.823 35.8822C136.122 34.6856 136.882 33.6565 137.936 33.0206C138.991 32.3847 140.254 32.1941 141.449 32.4905L149.81 33.285C150.05 33.3079 150.281 33.3821 150.49 33.5027C150.698 33.6234 150.877 33.7875 151.017 33.9841C151.156 34.1806 151.251 34.4049 151.296 34.6416C151.341 34.8783 151.334 35.122 151.276 35.3559V35.3559Z" fill="#FFCB77"/>
<path d="M180.307 50.0681C181.65 50.0681 182.739 48.9771 182.739 47.6313C182.739 46.2855 181.65 45.1945 180.307 45.1945C178.964 45.1945 177.875 46.2855 177.875 47.6313C177.875 48.9771 178.964 50.0681 180.307 50.0681Z" fill="#FFCB77"/>
<path d="M288 126.652C288 126.744 287.963 126.833 287.898 126.898C287.833 126.963 287.745 127 287.653 127H0.347407C0.255269 127 0.166904 126.963 0.101753 126.898C0.0366014 126.833 0 126.744 0 126.652C0 126.56 0.0366014 126.471 0.101753 126.406C0.166904 126.34 0.255269 126.304 0.347407 126.304H287.653C287.745 126.304 287.833 126.341 287.898 126.406C287.963 126.471 288 126.56 288 126.652Z" fill="#1F718F"/>
</g>
<defs>
<clipPath id="clip0">
<rect width="288" height="127" fill="white"/>
</clipPath>
</defs>
</svg>
