<svg width="205" height="141" viewBox="0 0 205 141" fill="none" xmlns="http://www.w3.org/2000/svg">
<g clip-path="url(#clip0)">
<path opacity="0.1" d="M115.954 19.1958C102.814 19.2133 90.1658 15.5022 78.068 11.3795C65.9702 7.25683 53.9655 2.64025 41.0697 0.683984C32.7759 -0.573491 23.3448 -0.457901 16.8617 4.10789C10.6212 8.50029 8.81411 15.7702 7.9422 22.4866C7.2865 27.5393 6.98415 32.8424 9.43992 37.4642C11.1451 40.6727 14.0632 43.3173 16.1199 46.3751C23.2991 57.0129 18.9818 70.6017 12.0047 81.4863C8.73325 86.5933 4.90105 91.4883 2.42769 96.8878C-0.0456601 102.287 -1.05996 108.41 1.46261 113.739C3.96233 119.021 9.60868 122.855 15.6681 125.473C27.9734 130.801 42.3002 131.943 56.242 132.383C87.1036 133.358 118.025 131.368 148.864 129.379C160.276 128.643 171.739 127.903 182.916 125.771C189.121 124.589 195.511 122.834 199.911 118.988C205.496 114.105 206.638 106.133 202.574 100.403C195.759 90.7913 177.788 88.9787 172.901 78.5791C170.206 72.8539 172.53 66.2881 175.953 60.7695C183.294 48.9286 195.929 38.3224 196.142 25.0786C196.288 15.9838 189.717 7.11146 179.903 3.15865C169.615 -0.981557 155.589 0.0832684 148.382 7.79975C140.971 15.7492 127.556 19.1836 115.954 19.1958Z" fill="#FFCB77"/>
<path d="M174.476 113.026C174.476 113.026 172.316 111.605 170.174 112.616C170.174 112.616 170.834 113.88 173.544 113.761L174.476 113.026Z" fill="#FFCB77"/>
<path d="M174.75 113.101C174.75 113.101 175.408 115.595 173.759 117.292C173.759 117.292 172.767 116.264 173.759 113.745L174.75 113.101Z" fill="#FFCB77"/>
<path d="M177.436 110.707C177.436 110.707 177.276 108.586 172.469 109.29C172.469 109.29 172.446 110.658 174.133 111.306C175.821 111.954 176.594 111.407 177.436 110.707Z" fill="#FFCB77"/>
<path d="M177.739 110.693C177.739 110.693 179.771 111.343 177.958 115.835C177.958 115.835 176.617 115.537 176.376 113.749C176.135 111.961 176.849 111.344 177.739 110.693Z" fill="#FFCB77"/>
<path d="M180.453 107.684C180.453 107.684 180.729 104.193 175.815 104.551C175.815 104.551 175.464 107.703 179.586 108.523L180.453 107.684Z" fill="#FFCB77"/>
<path d="M183.7 103.743C183.7 103.743 183.026 99.787 178.115 100.966C178.115 100.966 178.097 104.386 182.898 104.686L183.7 103.743Z" fill="#FFCB77"/>
<path d="M186.073 99.6697C186.073 99.6697 184.944 95.8167 180.078 96.9691C180.078 96.9691 181.237 100.435 185.749 100.381L186.073 99.6697Z" fill="#FFCB77"/>
<path d="M188.326 95.6906C188.326 95.6906 187.224 91.6923 182.525 92.8885C182.525 92.8885 184.093 96.6872 188.015 96.3667L188.326 95.6906Z" fill="#FFCB77"/>
<path d="M189.778 91.9112C189.778 91.9112 188.931 87.0214 184.55 88.1038C184.55 88.1038 185.823 92.5522 189.457 92.624L189.778 91.9112Z" fill="#FFCB77"/>
<path d="M191.141 87.3454C191.141 87.3454 190.123 82.4171 185.691 83.8427C185.691 83.8427 187.428 88.5013 190.826 88.0197L191.141 87.3454Z" fill="#FFCB77"/>
<path d="M191.978 83.0966C191.978 83.0966 190.362 78.1666 186.936 78.2997C186.936 78.2997 188.587 83.5065 191.691 84.0791L191.978 83.0966Z" fill="#FFCB77"/>
<path d="M192.519 78.9494C192.519 78.9494 190.761 73.0158 187.973 73.4729C187.973 73.4729 189.189 78.0089 192.42 79.8741L192.519 78.9494Z" fill="#FFCB77"/>
<path d="M192.825 74.0018C192.825 74.0018 191.176 69.0578 188.43 68.8599C188.43 68.8599 189.552 73.7251 192.77 75.2873L192.825 74.0018Z" fill="#FFCB77"/>
<path d="M193.157 69.3853C193.157 69.3853 191.102 64.4359 189.29 64.3238C189.29 64.3238 190.183 69.1979 192.981 70.1979L193.157 69.3853Z" fill="#FFCB77"/>
<path d="M193.384 65.0909C193.384 65.0909 192.12 59.716 190.304 59.2694C190.304 59.2694 190.552 63.6671 193.201 65.4937L193.384 65.0909Z" fill="#FFCB77"/>
<path d="M194.069 59.4656C194.069 59.4656 192.74 55.18 191.269 54.5267C191.269 54.5267 191.559 59.5794 193.73 60.5129L194.069 59.4656Z" fill="#FFCB77"/>
<path d="M194.637 55.7877L194.904 48.2324C194.904 48.2324 192.153 53.9278 194.439 57.1135L194.637 55.7877Z" fill="#FFCB77"/>
<path d="M196.761 48.2726C196.761 48.2726 198.742 42.7559 199.222 42.4476C199.222 42.4476 195.337 46.0274 195.717 50.6317L196.761 48.2726Z" fill="#FFCB77"/>
<path d="M180.586 107.658C180.586 107.658 184.071 107.204 183.967 112.11C183.967 112.11 180.818 112.621 179.79 108.563L180.586 107.658Z" fill="#FFCB77"/>
<path d="M183.865 103.61C183.865 103.61 187.89 103.598 187.556 108.619C187.556 108.619 184.176 109.222 183.062 104.56L183.865 103.61Z" fill="#FFCB77"/>
<path d="M186.111 99.9937C186.111 99.9937 189.766 98.2861 192.104 102.694C192.104 102.694 188.729 104.116 185.788 100.707L186.111 99.9937Z" fill="#FFCB77"/>
<path d="M188.407 95.7274C188.407 95.7274 192.15 93.9113 194.347 98.2161C194.347 98.2161 190.448 99.5541 188.098 96.4087L188.407 95.7274Z" fill="#FFCB77"/>
<path d="M189.731 92.018C189.731 92.018 193.333 88.5906 196.207 92.0566C196.207 92.0566 192.528 94.878 189.566 92.7816L189.731 92.018Z" fill="#FFCB77"/>
<path d="M190.937 87.2281C190.937 87.2281 194.56 83.7254 197.411 87.3892C197.411 87.3892 193.345 90.2667 190.807 87.9637L190.937 87.2281Z" fill="#FFCB77"/>
<path d="M191.614 82.9565C191.614 82.9565 194.405 78.5781 197.692 79.5554C197.692 79.5554 194.795 84.1912 191.645 83.9846L191.614 82.9565Z" fill="#FFCB77"/>
<path d="M192.436 78.9214C192.436 78.9214 195.249 73.4081 197.91 74.3679C197.91 74.3679 195.882 78.6062 192.364 79.8514L192.436 78.9214Z" fill="#FFCB77"/>
<path d="M192.631 73.7146C192.631 73.7146 195.523 69.3747 198.232 69.9054C198.232 69.9054 195.868 74.3066 192.35 74.9703L192.631 73.7146Z" fill="#FFCB77"/>
<path d="M192.856 69.2889C192.856 69.2889 195.098 64.4184 196.919 64.3851C196.919 64.3851 195.843 69.2206 193.008 70.1156L192.856 69.2889Z" fill="#FFCB77"/>
<path d="M193.296 64.9859C193.296 64.9859 195.787 60.054 197.659 60.0435C197.659 60.0435 196.385 64.2608 193.379 65.4184L193.296 64.9859Z" fill="#FFCB77"/>
<path d="M193.67 59.7738C193.67 59.7738 195.534 55.6931 197.077 55.2308C197.077 55.2308 196.146 60.2046 193.876 60.8561L193.67 59.7738Z" fill="#FFCB77"/>
<path d="M194.859 55.6389L199.023 49.3182C199.023 49.3182 197.956 55.553 194.25 56.849L194.859 55.6389Z" fill="#FFCB77"/>
<path d="M197.717 48.7823C197.717 48.7823 202.557 45.4547 202.732 44.9171C202.732 44.9171 200.271 49.5774 195.701 50.4005L197.717 48.7823Z" fill="#FFCB77"/>
<path d="M198.007 47.2849C198.007 47.2849 203.564 41.9625 204.982 41.9678C204.982 41.9678 200.4 42.1762 197.874 47.0012L198.007 47.2849Z" fill="#FFCB77"/>
<path d="M193.725 60.5637L193.927 60.5899C194.971 52.4479 196.494 47.6299 198.213 47.0397L198.146 46.847C196.323 47.4775 194.79 52.222 193.725 60.5637Z" fill="#444053"/>
<path d="M192.188 80.0353L192.494 80.0598C192.559 79.2997 192.609 78.5221 192.642 77.7462C192.934 71.007 193.386 64.8177 193.98 60.1784L193.804 59.9595C193.208 64.6093 192.628 70.9843 192.336 77.734C192.303 78.5046 192.254 79.2787 192.188 80.0353Z" fill="#444053"/>
<path d="M168.773 116.91C168.826 116.887 174.211 114.491 179.799 108.779C183.073 105.433 185.793 101.59 187.859 97.3947C190.443 92.1529 192.018 85.7114 192.545 79.4538L192.227 79.6027C191.041 93.6486 184.623 103.246 179.519 108.474C173.986 114.136 168.661 116.507 168.608 116.53L168.773 116.91Z" fill="#444053"/>
<path d="M182.715 14.9268H13.803C13.4039 14.9268 13.0211 15.0848 12.7389 15.3659C12.4568 15.6471 12.2982 16.0284 12.2982 16.426V20.7939H184.22V16.426C184.22 16.0284 184.061 15.6471 183.779 15.3659C183.497 15.0848 183.114 14.9268 182.715 14.9268Z" fill="#1F718F"/>
<path d="M12.2982 20.7939V119.087C12.2982 119.889 12.6179 120.658 13.1869 121.224C13.7559 121.791 14.5276 122.11 15.3323 122.11H181.186C181.991 122.11 182.762 121.791 183.331 121.224C183.9 120.658 184.22 119.889 184.22 119.087V20.7939H12.2982Z" fill="white"/>
<path opacity="0.8" d="M15.0211 18.5171C15.4095 18.5171 15.7243 18.2035 15.7243 17.8166C15.7243 17.4297 15.4095 17.116 15.0211 17.116C14.6328 17.116 14.318 17.4297 14.318 17.8166C14.318 18.2035 14.6328 18.5171 15.0211 18.5171Z" fill="#FA5959"/>
<path opacity="0.8" d="M16.9549 18.5171C17.3432 18.5171 17.658 18.2035 17.658 17.8166C17.658 17.4297 17.3432 17.116 16.9549 17.116C16.5665 17.116 16.2517 17.4297 16.2517 17.8166C16.2517 18.2035 16.5665 18.5171 16.9549 18.5171Z" fill="#FED253"/>
<path opacity="0.8" d="M18.8885 18.5171C19.2769 18.5171 19.5917 18.2035 19.5917 17.8166C19.5917 17.4297 19.2769 17.116 18.8885 17.116C18.5002 17.116 18.1854 17.4297 18.1854 17.8166C18.1854 18.2035 18.5002 18.5171 18.8885 18.5171Z" fill="#8CCF4D"/>
<path opacity="0.05" d="M166.449 37.1831H28.2792V97.7135H166.449V37.1831Z" fill="black"/>
<path d="M165.395 37.6419H29.3339V96.8378H165.395V37.6419Z" fill="#1F718F"/>
<path d="M66.4254 52.877C63.7483 52.877 61.1313 53.6679 58.9054 55.1497C56.6794 56.6315 54.9445 58.7376 53.92 61.2018C52.8955 63.6659 52.6275 66.3774 53.1497 68.9933C53.672 71.6092 54.9612 74.0121 56.8542 75.8981C58.7472 77.784 61.159 79.0684 63.7847 79.5887C66.4104 80.1091 69.132 79.842 71.6053 78.8214C74.0787 77.8007 76.1927 76.0722 77.68 73.8545C79.1673 71.6369 79.9612 69.0296 79.9612 66.3624C79.9612 64.5915 79.6111 62.8379 78.9308 61.2018C78.2506 59.5656 77.2536 58.079 75.9966 56.8268C74.7397 55.5745 73.2476 54.5812 71.6053 53.9035C69.9631 53.2258 68.203 52.877 66.4254 52.877ZM68.8531 66.6864V73.0719H64.0681V66.6864C63.4059 66.1871 62.9179 65.4931 62.6729 64.7025C62.4279 63.9119 62.4384 63.0647 62.7027 62.2803C62.9671 61.496 63.4721 60.8142 64.1463 60.3311C64.8206 59.8481 65.6301 59.5882 66.4606 59.5882C67.2911 59.5882 68.1006 59.8481 68.7748 60.3311C69.4491 60.8142 69.954 61.496 70.2184 62.2803C70.4828 63.0647 70.4932 63.9119 70.2482 64.7025C70.0032 65.4931 69.5152 66.1871 68.8531 66.6864Z" fill="#FFCB77"/>
<path opacity="0.05" d="M66.4254 52.877C63.7483 52.877 61.1313 53.6679 58.9054 55.1497C56.6794 56.6315 54.9445 58.7376 53.92 61.2018C52.8955 63.6659 52.6275 66.3774 53.1497 68.9933C53.672 71.6092 54.9612 74.0121 56.8542 75.8981C58.7472 77.784 61.159 79.0684 63.7847 79.5887C66.4104 80.1091 69.132 79.842 71.6053 78.8214C74.0787 77.8007 76.1927 76.0722 77.68 73.8545C79.1673 71.6369 79.9612 69.0296 79.9612 66.3624C79.9612 64.5915 79.6111 62.8379 78.9308 61.2018C78.2506 59.5656 77.2536 58.079 75.9966 56.8268C74.7397 55.5745 73.2476 54.5812 71.6053 53.9035C69.9631 53.2258 68.203 52.877 66.4254 52.877ZM68.8531 66.6864V73.0719H64.0681V66.6864C63.4059 66.1871 62.9179 65.4931 62.6729 64.7025C62.4279 63.9119 62.4384 63.0647 62.7027 62.2803C62.9671 61.496 63.4721 60.8142 64.1463 60.3311C64.8206 59.8481 65.6301 59.5882 66.4606 59.5882C67.2911 59.5882 68.1006 59.8481 68.7748 60.3311C69.4491 60.8142 69.954 61.496 70.2184 62.2803C70.4828 63.0647 70.4932 63.9119 70.2482 64.7025C70.0032 65.4931 69.5152 66.1871 68.8531 66.6864Z" fill="black"/>
<path d="M66.4254 49.024C62.9834 49.024 59.6187 50.0409 56.7568 51.946C53.8948 53.8512 51.6642 56.5591 50.347 59.7273C49.0298 62.8955 48.6852 66.3817 49.3567 69.745C50.0282 73.1083 51.6857 76.1977 54.1195 78.6225C56.5534 81.0474 59.6544 82.6987 63.0302 83.3677C66.4061 84.0367 69.9053 83.6933 73.0853 82.381C76.2653 81.0687 78.9833 78.8464 80.8956 75.9951C82.8079 73.1438 83.8285 69.7916 83.8285 66.3624C83.8285 61.764 81.995 57.3539 78.7313 54.1023C75.4676 50.8507 71.041 49.024 66.4254 49.024ZM69.5457 66.7792V74.9879H63.3931V66.7792C62.5414 66.1371 61.9136 65.2447 61.5985 64.228C61.2833 63.2112 61.2966 62.1216 61.6366 61.1128C61.9765 60.104 62.6259 59.2271 63.493 58.6058C64.3602 57.9846 65.4013 57.6504 66.4694 57.6504C67.5374 57.6504 68.5785 57.9846 69.4457 58.6058C70.3128 59.2271 70.9622 60.104 71.3022 61.1128C71.6421 62.1216 71.6554 63.2112 71.3403 64.228C71.0251 65.2447 70.3974 66.1371 69.5457 66.7792Z" fill="#FFCB77"/>
<path d="M147.288 64.0874H91.0359V70.042H147.288V64.0874Z" fill="white"/>
<path d="M147.288 74.9458H135.159V80.9004H147.288V74.9458Z" fill="#FFCB77"/>
<path d="M96.5732 66.9754H95.5554L96.4607 66.0752C96.4769 66.0585 96.486 66.0362 96.486 66.013C96.486 65.9898 96.4769 65.9675 96.4607 65.9508C96.4526 65.9426 96.4428 65.9361 96.4321 65.9317C96.4214 65.9272 96.4099 65.9249 96.3983 65.9249C96.3867 65.9249 96.3752 65.9272 96.3645 65.9317C96.3538 65.9361 96.3441 65.9426 96.3359 65.9508L95.4306 66.8528V65.837C95.4306 65.8138 95.4213 65.7915 95.4049 65.7751C95.3884 65.7587 95.366 65.7494 95.3427 65.7494C95.3195 65.7499 95.2974 65.7593 95.2811 65.7756C95.2647 65.7919 95.2553 65.8139 95.2548 65.837V66.8528L94.3513 65.9456C94.3431 65.9374 94.3334 65.9309 94.3227 65.9264C94.3119 65.922 94.3004 65.9197 94.2888 65.9197C94.2772 65.9197 94.2658 65.922 94.255 65.9264C94.2443 65.9309 94.2346 65.9374 94.2264 65.9456C94.2102 65.9623 94.2012 65.9846 94.2012 66.0078C94.2012 66.031 94.2102 66.0533 94.2264 66.0699L95.1318 66.9701H94.1122C94.089 66.9706 94.0669 66.98 94.0505 66.9963C94.0341 67.0126 94.0247 67.0346 94.0243 67.0577C94.0243 67.0809 94.0335 67.1032 94.05 67.1196C94.0665 67.1361 94.0889 67.1453 94.1122 67.1453H95.1318L94.2264 68.0472C94.2102 68.0639 94.2012 68.0862 94.2012 68.1094C94.2012 68.1326 94.2102 68.1549 94.2264 68.1716C94.2434 68.1873 94.2657 68.1961 94.2888 68.1961C94.312 68.1961 94.3343 68.1873 94.3513 68.1716L95.2548 67.2696V68.2837C95.2548 68.3069 95.2641 68.3292 95.2806 68.3456C95.297 68.362 95.3194 68.3712 95.3427 68.3712C95.366 68.3712 95.3884 68.362 95.4049 68.3456C95.4213 68.3292 95.4306 68.3069 95.4306 68.2837V67.2696L96.3359 68.1716C96.3528 68.1873 96.3751 68.1961 96.3983 68.1961C96.4215 68.1961 96.4438 68.1873 96.4607 68.1716C96.4769 68.1549 96.486 68.1326 96.486 68.1094C96.486 68.0862 96.4769 68.0639 96.4607 68.0472L95.5554 67.1453H96.5732C96.5965 67.1453 96.6189 67.1361 96.6354 67.1196C96.6519 67.1032 96.6611 67.0809 96.6611 67.0577C96.6598 67.0354 96.6499 67.0145 96.6336 66.9992C96.6173 66.9839 96.5957 66.9754 96.5732 66.9754Z" fill="#FFCB77"/>
<path d="M100.265 66.9754H99.247L100.152 66.0752C100.169 66.0585 100.178 66.0362 100.178 66.013C100.178 65.9898 100.169 65.9675 100.152 65.9508C100.144 65.9426 100.134 65.9361 100.124 65.9317C100.113 65.9272 100.102 65.9249 100.09 65.9249C100.078 65.9249 100.067 65.9272 100.056 65.9317C100.045 65.9361 100.036 65.9426 100.028 65.9508L99.1222 66.8528V65.837C99.1222 65.8138 99.1129 65.7915 99.0964 65.7751C99.08 65.7587 99.0576 65.7494 99.0343 65.7494C99.0111 65.7499 98.989 65.7593 98.9726 65.7756C98.9563 65.7919 98.9469 65.8139 98.9464 65.837V66.8528L98.0428 65.9456C98.0347 65.9374 98.025 65.9309 98.0142 65.9264C98.0035 65.922 97.992 65.9197 97.9804 65.9197C97.9688 65.9197 97.9573 65.922 97.9466 65.9264C97.9359 65.9309 97.9262 65.9374 97.918 65.9456C97.9018 65.9623 97.8927 65.9846 97.8927 66.0078C97.8927 66.031 97.9018 66.0533 97.918 66.0699L98.8234 66.9701H97.8038C97.7806 66.9706 97.7585 66.98 97.7421 66.9963C97.7257 67.0126 97.7163 67.0346 97.7159 67.0577C97.7159 67.0809 97.7251 67.1032 97.7416 67.1196C97.7581 67.1361 97.7805 67.1453 97.8038 67.1453H98.8234L97.918 68.0472C97.9018 68.0639 97.8927 68.0862 97.8927 68.1094C97.8927 68.1326 97.9018 68.1549 97.918 68.1716C97.935 68.1873 97.9573 68.1961 97.9804 68.1961C98.0036 68.1961 98.0259 68.1873 98.0428 68.1716L98.9464 67.2696V68.2837C98.9464 68.3069 98.9557 68.3292 98.9721 68.3456C98.9886 68.362 99.011 68.3712 99.0343 68.3712C99.0576 68.3712 99.08 68.362 99.0964 68.3456C99.1129 68.3292 99.1222 68.3069 99.1222 68.2837V67.2696L100.028 68.1716C100.044 68.1873 100.067 68.1961 100.09 68.1961C100.113 68.1961 100.135 68.1873 100.152 68.1716C100.169 68.1549 100.178 68.1326 100.178 68.1094C100.178 68.0862 100.169 68.0639 100.152 68.0472L99.247 67.1453H100.265C100.288 67.1453 100.31 67.1361 100.327 67.1196C100.343 67.1032 100.353 67.0809 100.353 67.0577C100.351 67.0354 100.342 67.0145 100.325 66.9992C100.309 66.9839 100.287 66.9754 100.265 66.9754Z" fill="#FFCB77"/>
<path d="M103.956 66.9754H102.939L103.844 66.0752C103.86 66.0585 103.869 66.0362 103.869 66.013C103.869 65.9898 103.86 65.9675 103.844 65.9508C103.836 65.9426 103.826 65.9361 103.815 65.9317C103.805 65.9272 103.793 65.9249 103.781 65.9249C103.77 65.9249 103.758 65.9272 103.748 65.9317C103.737 65.9361 103.727 65.9426 103.719 65.9508L102.814 66.8528V65.837C102.814 65.8138 102.805 65.7915 102.788 65.7751C102.772 65.7587 102.749 65.7494 102.726 65.7494C102.703 65.7499 102.681 65.7593 102.664 65.7756C102.648 65.7919 102.638 65.8139 102.638 65.837V66.8528L101.734 65.9456C101.726 65.9374 101.717 65.9309 101.706 65.9264C101.695 65.922 101.684 65.9197 101.672 65.9197C101.66 65.9197 101.649 65.922 101.638 65.9264C101.628 65.9309 101.618 65.9374 101.61 65.9456C101.593 65.9623 101.584 65.9846 101.584 66.0078C101.584 66.031 101.593 66.0533 101.61 66.0699L102.515 66.9701H101.495C101.472 66.9706 101.45 66.98 101.434 66.9963C101.417 67.0126 101.408 67.0346 101.407 67.0577C101.407 67.0809 101.417 67.1032 101.433 67.1196C101.45 67.1361 101.472 67.1453 101.495 67.1453H102.515L101.61 68.0472C101.593 68.0639 101.584 68.0862 101.584 68.1094C101.584 68.1326 101.593 68.1549 101.61 68.1716C101.627 68.1873 101.649 68.1961 101.672 68.1961C101.695 68.1961 101.718 68.1873 101.734 68.1716L102.638 67.2696V68.2837C102.638 68.3069 102.647 68.3292 102.664 68.3456C102.68 68.362 102.703 68.3712 102.726 68.3712C102.749 68.3712 102.772 68.362 102.788 68.3456C102.805 68.3292 102.814 68.3069 102.814 68.2837V67.2696L103.719 68.1716C103.736 68.1873 103.758 68.1961 103.781 68.1961C103.805 68.1961 103.827 68.1873 103.844 68.1716C103.86 68.1549 103.869 68.1326 103.869 68.1094C103.869 68.0862 103.86 68.0639 103.844 68.0472L102.939 67.1453H103.956C103.98 67.1453 104.002 67.1361 104.019 67.1196C104.035 67.1032 104.044 67.0809 104.044 67.0577C104.043 67.0354 104.033 67.0145 104.017 66.9992C104 66.9839 103.979 66.9754 103.956 66.9754Z" fill="#FFCB77"/>
<path d="M107.648 66.9754H106.63L107.535 66.0752C107.552 66.0585 107.561 66.0362 107.561 66.013C107.561 65.9898 107.552 65.9675 107.535 65.9508C107.527 65.9426 107.518 65.9361 107.507 65.9317C107.496 65.9272 107.485 65.9249 107.473 65.9249C107.461 65.9249 107.45 65.9272 107.439 65.9317C107.429 65.9361 107.419 65.9426 107.411 65.9508L106.505 66.8528V65.837C106.505 65.8138 106.496 65.7915 106.48 65.7751C106.463 65.7587 106.441 65.7494 106.417 65.7494C106.394 65.7499 106.372 65.7593 106.356 65.7756C106.339 65.7919 106.33 65.8139 106.33 65.837V66.8528L105.426 65.9456C105.418 65.9374 105.408 65.9309 105.397 65.9264C105.387 65.922 105.375 65.9197 105.364 65.9197C105.352 65.9197 105.34 65.922 105.33 65.9264C105.319 65.9309 105.309 65.9374 105.301 65.9456C105.285 65.9623 105.276 65.9846 105.276 66.0078C105.276 66.031 105.285 66.0533 105.301 66.0699L106.206 66.9701H105.187C105.164 66.9706 105.142 66.98 105.125 66.9963C105.109 67.0126 105.099 67.0346 105.099 67.0577C105.099 67.0809 105.108 67.1032 105.125 67.1196C105.141 67.1361 105.164 67.1453 105.187 67.1453H106.206L105.301 68.0472C105.285 68.0639 105.276 68.0862 105.276 68.1094C105.276 68.1326 105.285 68.1549 105.301 68.1716C105.318 68.1873 105.34 68.1961 105.364 68.1961C105.387 68.1961 105.409 68.1873 105.426 68.1716L106.33 67.2696V68.2837C106.33 68.3069 106.339 68.3292 106.355 68.3456C106.372 68.362 106.394 68.3712 106.417 68.3712C106.441 68.3712 106.463 68.362 106.48 68.3456C106.496 68.3292 106.505 68.3069 106.505 68.2837V67.2696L107.411 68.1716C107.428 68.1873 107.45 68.1961 107.473 68.1961C107.496 68.1961 107.518 68.1873 107.535 68.1716C107.552 68.1549 107.561 68.1326 107.561 68.1094C107.561 68.0862 107.552 68.0639 107.535 68.0472L106.63 67.1453H107.648C107.671 67.1453 107.694 67.1361 107.71 67.1196C107.727 67.1032 107.736 67.0809 107.736 67.0577C107.734 67.0354 107.725 67.0145 107.708 66.9992C107.692 66.9839 107.67 66.9754 107.648 66.9754Z" fill="#FFCB77"/>
<path d="M111.34 66.9754H110.322L111.227 66.0752C111.243 66.0585 111.252 66.0362 111.252 66.013C111.252 65.9898 111.243 65.9675 111.227 65.9508C111.219 65.9426 111.209 65.9361 111.198 65.9317C111.188 65.9272 111.176 65.9249 111.165 65.9249C111.153 65.9249 111.142 65.9272 111.131 65.9317C111.12 65.9361 111.11 65.9426 111.102 65.9508L110.197 66.8528V65.837C110.197 65.8138 110.188 65.7915 110.171 65.7751C110.155 65.7587 110.132 65.7494 110.109 65.7494C110.086 65.7499 110.064 65.7593 110.047 65.7756C110.031 65.7919 110.022 65.8139 110.021 65.837V66.8528L109.118 65.9456C109.109 65.9374 109.1 65.9309 109.089 65.9264C109.078 65.922 109.067 65.9197 109.055 65.9197C109.044 65.9197 109.032 65.922 109.021 65.9264C109.011 65.9309 109.001 65.9374 108.993 65.9456C108.977 65.9623 108.967 65.9846 108.967 66.0078C108.967 66.031 108.977 66.0533 108.993 66.0699L109.898 66.9701H108.878C108.855 66.9706 108.833 66.98 108.817 66.9963C108.8 67.0126 108.791 67.0346 108.791 67.0577C108.791 67.0809 108.8 67.1032 108.816 67.1196C108.833 67.1361 108.855 67.1453 108.878 67.1453H109.898L108.993 68.0472C108.977 68.0639 108.967 68.0862 108.967 68.1094C108.967 68.1326 108.977 68.1549 108.993 68.1716C109.01 68.1873 109.032 68.1961 109.055 68.1961C109.078 68.1961 109.101 68.1873 109.118 68.1716L110.021 67.2696V68.2837C110.021 68.3069 110.03 68.3292 110.047 68.3456C110.063 68.362 110.086 68.3712 110.109 68.3712C110.132 68.3712 110.155 68.362 110.171 68.3456C110.188 68.3292 110.197 68.3069 110.197 68.2837V67.2696L111.102 68.1716C111.119 68.1873 111.141 68.1961 111.165 68.1961C111.188 68.1961 111.21 68.1873 111.227 68.1716C111.243 68.1549 111.252 68.1326 111.252 68.1094C111.252 68.0862 111.243 68.0639 111.227 68.0472L110.322 67.1453H111.34C111.363 67.1453 111.385 67.1361 111.402 67.1196C111.418 67.1032 111.427 67.0809 111.427 67.0577C111.426 67.0354 111.416 67.0145 111.4 66.9992C111.384 66.9839 111.362 66.9754 111.34 66.9754Z" fill="#FFCB77"/>
<path d="M115.031 66.9754H114.013L114.919 66.0752C114.935 66.0585 114.944 66.0362 114.944 66.013C114.944 65.9898 114.935 65.9675 114.919 65.9508C114.91 65.9426 114.901 65.9361 114.89 65.9317C114.879 65.9272 114.868 65.9249 114.856 65.9249C114.845 65.9249 114.833 65.9272 114.822 65.9317C114.812 65.9361 114.802 65.9426 114.794 65.9508L113.888 66.8528V65.837C113.888 65.8138 113.879 65.7915 113.863 65.7751C113.846 65.7587 113.824 65.7494 113.801 65.7494C113.777 65.7499 113.755 65.7593 113.739 65.7756C113.723 65.7919 113.713 65.8139 113.713 65.837V66.8528L112.809 65.9456C112.801 65.9374 112.791 65.9309 112.781 65.9264C112.77 65.922 112.758 65.9197 112.747 65.9197C112.735 65.9197 112.724 65.922 112.713 65.9264C112.702 65.9309 112.693 65.9374 112.684 65.9456C112.668 65.9623 112.659 65.9846 112.659 66.0078C112.659 66.031 112.668 66.0533 112.684 66.0699L113.59 66.9701H112.57C112.547 66.9706 112.525 66.98 112.508 66.9963C112.492 67.0126 112.483 67.0346 112.482 67.0577C112.482 67.0809 112.491 67.1032 112.508 67.1196C112.524 67.1361 112.547 67.1453 112.57 67.1453H113.59L112.684 68.0472C112.668 68.0639 112.659 68.0862 112.659 68.1094C112.659 68.1326 112.668 68.1549 112.684 68.1716C112.701 68.1873 112.724 68.1961 112.747 68.1961C112.77 68.1961 112.792 68.1873 112.809 68.1716L113.713 67.2696V68.2837C113.713 68.3069 113.722 68.3292 113.738 68.3456C113.755 68.362 113.777 68.3712 113.801 68.3712C113.824 68.3712 113.846 68.362 113.863 68.3456C113.879 68.3292 113.888 68.3069 113.888 68.2837V67.2696L114.794 68.1716C114.811 68.1873 114.833 68.1961 114.856 68.1961C114.879 68.1961 114.902 68.1873 114.919 68.1716C114.935 68.1549 114.944 68.1326 114.944 68.1094C114.944 68.0862 114.935 68.0639 114.919 68.0472L114.013 67.1453H115.031C115.054 67.1453 115.077 67.1361 115.093 67.1196C115.11 67.1032 115.119 67.0809 115.119 67.0577C115.118 67.0354 115.108 67.0145 115.091 66.9992C115.075 66.9839 115.054 66.9754 115.031 66.9754Z" fill="#FFCB77"/>
<path d="M118.723 66.9754H117.705L118.61 66.0752C118.626 66.0585 118.635 66.0362 118.635 66.013C118.635 65.9898 118.626 65.9675 118.61 65.9508C118.602 65.9426 118.592 65.9361 118.582 65.9317C118.571 65.9272 118.559 65.9249 118.548 65.9249C118.536 65.9249 118.525 65.9272 118.514 65.9317C118.503 65.9361 118.494 65.9426 118.485 65.9508L117.58 66.8528V65.837C117.58 65.8138 117.571 65.7915 117.554 65.7751C117.538 65.7587 117.515 65.7494 117.492 65.7494C117.469 65.7499 117.447 65.7593 117.431 65.7756C117.414 65.7919 117.405 65.8139 117.404 65.837V66.8528L116.501 65.9456C116.493 65.9374 116.483 65.9309 116.472 65.9264C116.461 65.922 116.45 65.9197 116.438 65.9197C116.427 65.9197 116.415 65.922 116.405 65.9264C116.394 65.9309 116.384 65.9374 116.376 65.9456C116.36 65.9623 116.351 65.9846 116.351 66.0078C116.351 66.031 116.36 66.0533 116.376 66.0699L117.281 66.9701H116.262C116.238 66.9706 116.216 66.98 116.2 66.9963C116.184 67.0126 116.174 67.0346 116.174 67.0577C116.174 67.0809 116.183 67.1032 116.2 67.1196C116.216 67.1361 116.238 67.1453 116.262 67.1453H117.281L116.376 68.0472C116.36 68.0639 116.351 68.0862 116.351 68.1094C116.351 68.1326 116.36 68.1549 116.376 68.1716C116.393 68.1873 116.415 68.1961 116.438 68.1961C116.461 68.1961 116.484 68.1873 116.501 68.1716L117.404 67.2696V68.2837C117.404 68.3069 117.414 68.3292 117.43 68.3456C117.447 68.362 117.469 68.3712 117.492 68.3712C117.515 68.3712 117.538 68.362 117.554 68.3456C117.571 68.3292 117.58 68.3069 117.58 68.2837V67.2696L118.485 68.1716C118.502 68.1873 118.525 68.1961 118.548 68.1961C118.571 68.1961 118.593 68.1873 118.61 68.1716C118.626 68.1549 118.635 68.1326 118.635 68.1094C118.635 68.0862 118.626 68.0639 118.61 68.0472L117.705 67.1453H118.723C118.746 67.1453 118.768 67.1361 118.785 67.1196C118.801 67.1032 118.811 67.0809 118.811 67.0577C118.809 67.0354 118.799 67.0145 118.783 66.9992C118.767 66.9839 118.745 66.9754 118.723 66.9754Z" fill="#FFCB77"/>
<path d="M122.414 66.9754H121.396L122.302 66.0752C122.318 66.0585 122.327 66.0362 122.327 66.013C122.327 65.9898 122.318 65.9675 122.302 65.9508C122.294 65.9426 122.284 65.9361 122.273 65.9317C122.262 65.9272 122.251 65.9249 122.239 65.9249C122.228 65.9249 122.216 65.9272 122.206 65.9317C122.195 65.9361 122.185 65.9426 122.177 65.9508L121.272 66.8528V65.837C121.272 65.8138 121.262 65.7915 121.246 65.7751C121.229 65.7587 121.207 65.7494 121.184 65.7494C121.161 65.7499 121.138 65.7593 121.122 65.7756C121.106 65.7919 121.096 65.8139 121.096 65.837V66.8528L120.192 65.9456C120.184 65.9374 120.174 65.9309 120.164 65.9264C120.153 65.922 120.141 65.9197 120.13 65.9197C120.118 65.9197 120.107 65.922 120.096 65.9264C120.085 65.9309 120.076 65.9374 120.067 65.9456C120.051 65.9623 120.042 65.9846 120.042 66.0078C120.042 66.031 120.051 66.0533 120.067 66.0699L120.973 66.9701H119.953C119.93 66.9706 119.908 66.98 119.892 66.9963C119.875 67.0126 119.866 67.0346 119.865 67.0577C119.865 67.0809 119.875 67.1032 119.891 67.1196C119.908 67.1361 119.93 67.1453 119.953 67.1453H120.973L120.067 68.0472C120.051 68.0639 120.042 68.0862 120.042 68.1094C120.042 68.1326 120.051 68.1549 120.067 68.1716C120.084 68.1873 120.107 68.1961 120.13 68.1961C120.153 68.1961 120.175 68.1873 120.192 68.1716L121.096 67.2696V68.2837C121.096 68.3069 121.105 68.3292 121.122 68.3456C121.138 68.362 121.16 68.3712 121.184 68.3712C121.207 68.3712 121.229 68.362 121.246 68.3456C121.262 68.3292 121.272 68.3069 121.272 68.2837V67.2696L122.177 68.1716C122.194 68.1873 122.216 68.1961 122.239 68.1961C122.262 68.1961 122.285 68.1873 122.302 68.1716C122.318 68.1549 122.327 68.1326 122.327 68.1094C122.327 68.0862 122.318 68.0639 122.302 68.0472L121.396 67.1453H122.414C122.438 67.1453 122.46 67.1361 122.476 67.1196C122.493 67.1032 122.502 67.0809 122.502 67.0577C122.501 67.0354 122.491 67.0145 122.475 66.9992C122.458 66.9839 122.437 66.9754 122.414 66.9754Z" fill="#FFCB77"/>
<path d="M126.106 66.9754H125.088L125.993 66.0752C126.01 66.0585 126.019 66.0362 126.019 66.013C126.019 65.9898 126.01 65.9675 125.993 65.9508C125.985 65.9426 125.975 65.9361 125.965 65.9317C125.954 65.9272 125.943 65.9249 125.931 65.9249C125.919 65.9249 125.908 65.9272 125.897 65.9317C125.886 65.9361 125.877 65.9426 125.869 65.9508L124.963 66.8528V65.837C124.963 65.8138 124.954 65.7915 124.937 65.7751C124.921 65.7587 124.899 65.7494 124.875 65.7494C124.852 65.7499 124.83 65.7593 124.814 65.7756C124.797 65.7919 124.788 65.8139 124.787 65.837V66.8528L123.884 65.9456C123.876 65.9374 123.866 65.9309 123.855 65.9264C123.845 65.922 123.833 65.9197 123.821 65.9197C123.81 65.9197 123.798 65.922 123.788 65.9264C123.777 65.9309 123.767 65.9374 123.759 65.9456C123.743 65.9623 123.734 65.9846 123.734 66.0078C123.734 66.031 123.743 66.0533 123.759 66.0699L124.664 66.9701H123.645C123.622 66.9706 123.6 66.98 123.583 66.9963C123.567 67.0126 123.557 67.0346 123.557 67.0577C123.557 67.0809 123.566 67.1032 123.583 67.1196C123.599 67.1361 123.621 67.1453 123.645 67.1453H124.664L123.759 68.0472C123.743 68.0639 123.734 68.0862 123.734 68.1094C123.734 68.1326 123.743 68.1549 123.759 68.1716C123.776 68.1873 123.798 68.1961 123.821 68.1961C123.845 68.1961 123.867 68.1873 123.884 68.1716L124.787 67.2696V68.2837C124.787 68.3069 124.797 68.3292 124.813 68.3456C124.83 68.362 124.852 68.3712 124.875 68.3712C124.899 68.3712 124.921 68.362 124.937 68.3456C124.954 68.3292 124.963 68.3069 124.963 68.2837V67.2696L125.869 68.1716C125.885 68.1873 125.908 68.1961 125.931 68.1961C125.954 68.1961 125.976 68.1873 125.993 68.1716C126.01 68.1549 126.019 68.1326 126.019 68.1094C126.019 68.0862 126.01 68.0639 125.993 68.0472L125.088 67.1453H126.106C126.129 67.1453 126.152 67.1361 126.168 67.1196C126.184 67.1032 126.194 67.0809 126.194 67.0577C126.192 67.0354 126.183 67.0145 126.166 66.9992C126.15 66.9839 126.128 66.9754 126.106 66.9754Z" fill="#FFCB77"/>
<path d="M129.797 66.9754H128.78L129.685 66.0752C129.701 66.0585 129.71 66.0362 129.71 66.013C129.71 65.9898 129.701 65.9675 129.685 65.9508C129.677 65.9426 129.667 65.9361 129.656 65.9317C129.646 65.9272 129.634 65.9249 129.622 65.9249C129.611 65.9249 129.599 65.9272 129.589 65.9317C129.578 65.9361 129.568 65.9426 129.56 65.9508L128.655 66.8528V65.837C128.655 65.8138 128.645 65.7915 128.629 65.7751C128.612 65.7587 128.59 65.7494 128.567 65.7494C128.544 65.7499 128.522 65.7593 128.505 65.7756C128.489 65.7919 128.479 65.8139 128.479 65.837V66.8528L127.575 65.9456C127.567 65.9374 127.557 65.9309 127.547 65.9264C127.536 65.922 127.525 65.9197 127.513 65.9197C127.501 65.9197 127.49 65.922 127.479 65.9264C127.468 65.9309 127.459 65.9374 127.451 65.9456C127.434 65.9623 127.425 65.9846 127.425 66.0078C127.425 66.031 127.434 66.0533 127.451 66.0699L128.356 66.9701H127.336C127.313 66.9706 127.291 66.98 127.275 66.9963C127.258 67.0126 127.249 67.0346 127.248 67.0577C127.248 67.0809 127.258 67.1032 127.274 67.1196C127.291 67.1361 127.313 67.1453 127.336 67.1453H128.356L127.451 68.0472C127.434 68.0639 127.425 68.0862 127.425 68.1094C127.425 68.1326 127.434 68.1549 127.451 68.1716C127.467 68.1873 127.49 68.1961 127.513 68.1961C127.536 68.1961 127.558 68.1873 127.575 68.1716L128.479 67.2696V68.2837C128.479 68.3069 128.488 68.3292 128.505 68.3456C128.521 68.362 128.544 68.3712 128.567 68.3712C128.59 68.3712 128.612 68.362 128.629 68.3456C128.645 68.3292 128.655 68.3069 128.655 68.2837V67.2696L129.56 68.1716C129.577 68.1873 129.599 68.1961 129.622 68.1961C129.646 68.1961 129.668 68.1873 129.685 68.1716C129.701 68.1549 129.71 68.1326 129.71 68.1094C129.71 68.0862 129.701 68.0639 129.685 68.0472L128.78 67.1453H129.797C129.821 67.1453 129.843 67.1361 129.86 67.1196C129.876 67.1032 129.885 67.0809 129.885 67.0577C129.884 67.0354 129.874 67.0145 129.858 66.9992C129.841 66.9839 129.82 66.9754 129.797 66.9754Z" fill="#FFCB77"/>
<path d="M133.489 66.9754H132.471L133.376 66.0752C133.393 66.0585 133.402 66.0362 133.402 66.013C133.402 65.9898 133.393 65.9675 133.376 65.9508C133.368 65.9426 133.359 65.9361 133.348 65.9317C133.337 65.9272 133.326 65.9249 133.314 65.9249C133.302 65.9249 133.291 65.9272 133.28 65.9317C133.269 65.9361 133.26 65.9426 133.252 65.9508L132.346 66.8528V65.837C132.346 65.8138 132.337 65.7915 132.321 65.7751C132.304 65.7587 132.282 65.7494 132.258 65.7494C132.235 65.7499 132.213 65.7593 132.197 65.7756C132.18 65.7919 132.171 65.8139 132.171 65.837V66.8528L131.267 65.9456C131.259 65.9374 131.249 65.9309 131.238 65.9264C131.228 65.922 131.216 65.9197 131.205 65.9197C131.193 65.9197 131.181 65.922 131.171 65.9264C131.16 65.9309 131.15 65.9374 131.142 65.9456C131.126 65.9623 131.117 65.9846 131.117 66.0078C131.117 66.031 131.126 66.0533 131.142 66.0699L132.047 66.9701H131.028C131.005 66.9706 130.983 66.98 130.966 66.9963C130.95 67.0126 130.94 67.0346 130.94 67.0577C130.94 67.0809 130.949 67.1032 130.966 67.1196C130.982 67.1361 131.005 67.1453 131.028 67.1453H132.047L131.142 68.0472C131.126 68.0639 131.117 68.0862 131.117 68.1094C131.117 68.1326 131.126 68.1549 131.142 68.1716C131.159 68.1873 131.181 68.1961 131.205 68.1961C131.228 68.1961 131.25 68.1873 131.267 68.1716L132.171 67.2696V68.2837C132.171 68.3069 132.18 68.3292 132.196 68.3456C132.213 68.362 132.235 68.3712 132.258 68.3712C132.282 68.3712 132.304 68.362 132.321 68.3456C132.337 68.3292 132.346 68.3069 132.346 68.2837V67.2696L133.252 68.1716C133.269 68.1873 133.291 68.1961 133.314 68.1961C133.337 68.1961 133.359 68.1873 133.376 68.1716C133.393 68.1549 133.402 68.1326 133.402 68.1094C133.402 68.0862 133.393 68.0639 133.376 68.0472L132.471 67.1453H133.489C133.512 67.1453 133.535 67.1361 133.551 67.1196C133.568 67.1032 133.577 67.0809 133.577 67.0577C133.575 67.0354 133.566 67.0145 133.549 66.9992C133.533 66.9839 133.511 66.9754 133.489 66.9754Z" fill="#FFCB77"/>
<path d="M161.789 88.2806C161.784 88.0689 161.758 87.8583 161.71 87.6519C161.552 87.0599 161.195 86.3436 160.608 86.165C160.002 85.9801 159.416 85.7336 158.861 85.4294C158.755 83.552 159.188 81.6307 158.716 79.8111C158.541 79.1456 158.251 78.5081 158.173 77.8268C158.077 76.9791 158.309 76.0754 157.969 75.2943C157.702 74.6778 157.115 74.2435 156.484 74.0158C155.853 73.7882 155.173 73.7269 154.503 73.6656C153.659 73.5973 150.927 73.275 149.974 74.0263C149.909 74.0772 149.85 74.136 149.799 74.2015C149.778 74.2304 149.759 74.2608 149.742 74.2925L149.734 74.3066C149.715 74.3431 149.699 74.3812 149.686 74.4204C149.673 74.4634 149.663 74.5073 149.656 74.5517C149.656 74.5658 149.656 74.5798 149.656 74.5938C149.656 74.6078 149.656 74.6551 149.656 74.6866V74.7339C149.656 74.7654 149.656 74.7969 149.656 74.8302C149.656 74.8635 149.656 74.8547 149.656 74.867C149.669 75.0246 149.691 75.1822 149.691 75.3381C149.693 75.4157 149.686 75.4933 149.67 75.5693C149.612 75.7758 149.513 75.9687 149.379 76.1367L149.347 76.1823C149.328 76.2103 149.308 76.2366 149.291 76.2646C149.273 76.2926 149.259 76.3136 149.245 76.3381C149.231 76.3626 149.217 76.3784 149.205 76.4012C149.188 76.43 149.172 76.4599 149.159 76.4905C149.159 76.508 149.139 76.5238 149.132 76.5413C149.11 76.5886 149.093 76.6379 149.08 76.6884C149.039 76.8406 149.035 77.0004 149.069 77.1543C149.117 77.3507 149.198 77.5374 149.31 77.7059C149.354 77.7777 149.401 77.8478 149.451 77.9179L149.574 78.0842C149.551 78.2467 149.538 78.4105 149.537 78.5746C149.537 79.123 149.662 79.6643 149.902 80.1576C150.143 80.6508 150.493 81.0833 150.925 81.4223C150.995 82.1619 150.987 82.9068 150.903 83.6448C150.887 83.7989 150.867 83.9548 150.846 84.1089C150.825 84.263 150.809 84.3646 150.788 84.4925C150.531 84.5292 150.269 84.5094 150.02 84.4347C149.905 84.3837 149.788 84.3386 149.669 84.2998C149.157 84.1719 148.635 84.6798 148.129 84.5257C148.129 84.5502 148.115 84.573 148.106 84.5958C148 84.5303 147.879 84.4946 147.754 84.4925C147.454 84.4784 147.209 84.2613 146.991 84.0564L146.322 83.4276C146.278 83.3891 146.239 83.3456 146.206 83.298C146.17 83.2299 146.142 83.1575 146.125 83.0826C146.012 82.7201 145.74 82.4311 145.476 82.1561C145.426 82.0934 145.36 82.0456 145.284 82.0178C145.255 82.0134 145.226 82.0134 145.197 82.0178C145.179 81.9933 145.159 81.9699 145.139 81.9477C145.093 81.8957 145.044 81.8466 144.993 81.8006C144.673 81.5064 144.641 81.2542 144.363 80.9249C144.121 80.6109 143.901 80.2803 143.706 79.9354C143.683 79.7515 143.651 79.5624 143.613 79.3715C143.524 78.9344 143.395 78.5065 143.228 78.093L142.876 77.3171L142.836 77.3574C142.581 76.9791 142.308 76.7725 142.064 76.8215C141.654 76.9056 141.452 77.6972 141.517 78.7322L141.658 79.7831C141.658 79.8093 141.67 79.8356 141.677 79.8619C141.652 79.9864 141.639 80.1131 141.639 80.2402C141.639 80.3873 141.776 80.4958 141.848 80.6272C141.963 80.8051 142.024 81.0126 142.024 81.2244C142.015 81.2997 141.992 81.3715 141.988 81.4451C141.998 81.6096 142.055 81.7678 142.154 81.9004L143.033 83.3716L143.208 83.6798L143.219 83.6938C143.274 83.8014 143.355 83.8939 143.454 83.9635C143.489 84.3319 143.587 84.6916 143.744 85.0266C143.774 85.0932 143.808 85.1562 143.843 85.2193C144.079 85.6063 144.358 85.9663 144.673 86.2928L145.091 86.7605C145.504 87.2193 145.917 87.6799 146.366 88.1038C146.526 88.2738 146.72 88.4091 146.935 88.5013C147.04 88.5433 147.155 88.5568 147.268 88.5405C147.38 88.5242 147.486 88.4787 147.575 88.4085C147.575 88.6257 147.575 88.8428 147.575 89.06C147.64 89.064 147.703 89.0853 147.757 89.1216C147.812 89.158 147.855 89.2081 147.884 89.2669C147.912 89.3256 147.924 89.3908 147.919 89.4557C147.913 89.5206 147.89 89.5829 147.853 89.6362C147.484 90.5802 147.111 91.5329 146.552 92.3788C146.946 92.6115 147.312 92.8895 147.642 93.2072C147.856 93.4433 148.046 93.6996 148.21 93.9725C148.225 94.1021 148.238 94.23 148.245 94.3578C148.375 96.4455 147.564 98.5173 146.838 100.507C146.629 101.071 146.401 101.661 146.418 102.248C146.28 102.332 146.149 102.427 146.024 102.53C146.169 102.904 146.112 103.239 146.097 103.64C146.091 103.88 146.042 104.118 145.951 104.341C145.874 104.495 145.79 104.645 145.698 104.791C145.242 105.591 145.142 106.542 145.051 107.456C144.996 108.008 145.211 108.682 144.959 109.176C144.525 110.024 144.14 110.927 144.08 111.87C144.078 112.082 144.051 112.293 143.999 112.498C143.945 112.674 143.848 112.822 143.799 112.994C143.748 113.224 143.736 113.461 143.764 113.695C143.797 114.534 143.672 115.372 143.395 116.166C143.175 116.791 142.932 117.46 143.105 118.103C142.681 118.547 142.419 119.12 142.361 119.73C142.356 119.886 142.338 120.041 142.305 120.194C142.251 120.35 142.18 120.5 142.094 120.64C141.74 121.283 141.574 122.011 141.616 122.742C141.088 123.455 140.825 124.334 140.668 125.208C140.512 126.082 140.443 126.972 140.243 127.835C139.976 128.977 139.492 130.131 139.397 131.301C138.828 131.663 138.582 132.366 138.473 133.03C138.364 133.693 138.346 134.39 138.067 135.003C137.922 135.322 137.715 135.608 137.578 135.933C137.482 136.193 137.411 136.461 137.367 136.734C137.282 137.161 137.209 137.637 137.312 138.047C137.163 138.205 136.989 138.336 136.797 138.438C136.825 138.329 136.848 138.221 136.868 138.11C136.414 138.52 135.591 138.376 135.229 138.869C135.121 139.027 135.078 139.222 135.111 139.411C135.144 139.6 135.249 139.769 135.405 139.883C135.518 139.951 135.641 140.004 135.769 140.038C136.648 140.319 137.551 140.601 138.455 140.452C138.562 140.44 138.665 140.408 138.759 140.355C138.877 140.269 138.973 140.158 139.042 140.03C139.177 139.816 139.313 139.602 139.446 139.389C139.77 139.485 140.1 139.562 140.433 139.618C140.466 139.898 140.491 140.179 140.503 140.459C140.679 140.494 140.914 140.504 140.997 140.341C141.022 140.28 141.032 140.213 141.027 140.147C141.027 140.023 141.044 139.858 141.055 139.69H141.09C141.626 139.712 142.16 139.604 142.646 139.376C142.458 137.825 143.078 136.308 143.616 134.84C144.184 133.296 144.671 131.723 145.161 130.15C145.513 129.043 145.901 127.972 146.246 126.863C146.68 125.462 147.115 124.061 147.552 122.66C147.742 122.043 147.934 121.434 148.152 120.821C148.61 119.58 149.155 118.373 149.781 117.208C149.957 116.877 150.133 116.549 150.277 116.206C150.453 115.787 150.577 115.35 150.718 114.917C151.025 114.029 151.393 113.164 151.822 112.329C151.834 112.306 151.843 112.285 151.855 112.264C151.998 112.843 152.14 113.432 152.235 114.015C152.364 114.73 152.374 115.461 152.265 116.18C152.181 116.668 152.021 117.152 152.04 117.647C152.066 118.332 152.434 118.954 152.615 119.614C152.732 120.108 152.798 120.613 152.812 121.12C152.861 121.908 153.29 122.793 152.987 123.523C152.047 125.837 152.502 128.45 151.966 130.879C151.69 132.126 150.845 133.298 150.911 134.573C150.958 135.477 151.038 136.38 151.15 137.28C151.178 137.564 151.252 137.842 151.37 138.101C151.44 138.238 151.521 138.369 151.611 138.494C151.534 138.524 151.469 138.602 151.412 138.769C151.268 139.207 151.412 139.75 151.803 139.995C151.962 140.079 152.133 140.139 152.311 140.17C152.55 140.238 152.797 140.272 153.046 140.271C153.123 140.267 153.2 140.258 153.276 140.243C153.548 140.357 153.825 140.457 154.107 140.541C154.107 140.613 154.121 140.685 154.13 140.757C154.131 140.794 154.139 140.831 154.155 140.865C154.17 140.899 154.193 140.93 154.222 140.954C154.265 140.975 154.314 140.983 154.362 140.979H155.317C155.317 140.9 155.317 140.82 155.317 140.741C155.426 140.752 155.536 140.741 155.641 140.707C155.745 140.673 155.841 140.618 155.923 140.545C156.008 140.437 156.068 140.313 156.099 140.18C156.359 139.301 156.618 138.421 156.874 137.541C157.182 136.568 157.31 135.547 157.252 134.529C156.913 131.301 157.658 128.063 157.416 124.826C157.27 122.881 157.37 120.925 157.714 119.005C157.794 118.57 157.89 118.129 157.925 117.696C158.003 116.88 157.908 116.055 157.966 115.245C157.985 114.961 158.024 114.679 158.059 114.397C158.3 112.647 158.426 110.883 158.437 109.117C158.432 108.531 158.395 107.947 158.328 107.365C158.511 107.319 158.678 107.222 158.808 107.085C158.964 106.882 158.924 106.596 158.922 106.337C158.922 105.717 159.184 105.132 159.395 104.547C159.666 103.74 159.888 102.918 160.059 102.085C160.241 101.413 160.34 100.722 160.355 100.027C160.355 99.9569 160.351 99.8869 160.344 99.8168C160.411 99.7711 160.466 99.7113 160.506 99.6417C160.552 99.5391 160.58 99.4296 160.59 99.3177C160.654 98.8711 160.719 98.4227 160.782 97.9744C160.829 97.6533 160.875 97.3328 160.921 97.0129L161.48 93.1266C161.527 92.7886 161.577 92.4524 161.624 92.1161L161.77 91.1108C161.786 90.9917 161.803 90.8726 161.816 90.7606C162.245 90.046 161.835 89.0933 161.789 88.2806ZM157.126 102.831C156.918 102.341 156.725 101.838 156.774 101.309H156.755C156.801 101.146 156.793 100.973 156.732 100.815C156.677 100.687 156.582 100.579 156.524 100.451C156.462 100.295 156.43 100.128 156.429 99.9604C156.386 98.8952 156.47 97.8287 156.681 96.7835C156.704 96.6609 156.728 96.5365 156.751 96.4139C156.825 96.3715 156.892 96.319 156.952 96.2581C157.044 96.1531 157.12 96.035 157.178 95.9078C157.377 95.5102 157.558 95.1057 157.725 94.6941C157.78 94.561 157.859 94.4069 157.994 94.3736C157.966 95.3981 158.071 96.4437 157.653 97.3684C157.573 97.5175 157.514 97.6766 157.477 97.8413C157.438 98.1022 157.547 98.3667 157.509 98.6259C157.489 98.7607 157.431 98.8851 157.409 99.0182C157.391 99.0836 157.392 99.1523 157.409 99.2175C157.427 99.2827 157.462 99.342 157.511 99.3895C157.534 99.4058 157.559 99.4187 157.586 99.428C157.576 99.4981 157.567 99.5699 157.56 99.6382C157.546 99.7818 157.539 99.9167 157.53 100.001C157.489 100.429 157.474 100.859 157.482 101.29C157.482 101.754 157.5 102.218 157.493 102.691C157.499 102.827 157.477 102.962 157.426 103.088C157.391 103.153 157.346 103.213 157.293 103.263C157.242 103.106 157.185 102.968 157.126 102.831Z" fill="url(#paint0_linear)"/>
<path d="M143.249 82.5098C143.786 82.4003 143.968 81.0848 143.657 79.5716C143.346 78.0583 142.659 76.9204 142.122 77.0299C141.586 77.1394 141.403 78.4549 141.714 79.9681C142.026 81.4814 142.713 82.6194 143.249 82.5098Z" fill="#FBBEBE"/>
<path d="M151.441 138.802C151.296 139.236 151.441 139.779 151.831 140.016C151.989 140.1 152.159 140.159 152.335 140.191C152.574 140.258 152.821 140.292 153.068 140.291C153.372 140.277 153.664 140.158 153.968 140.116C154.003 140.107 154.041 140.112 154.072 140.13C154.087 140.146 154.099 140.165 154.105 140.187C154.112 140.208 154.114 140.23 154.111 140.252C154.114 140.424 154.127 140.596 154.149 140.767C154.15 140.805 154.158 140.842 154.174 140.876C154.19 140.91 154.212 140.94 154.241 140.965C154.285 140.985 154.333 140.994 154.381 140.99H155.334C155.356 140.156 155.264 139.323 155.062 138.513C155.049 138.451 155.025 138.392 154.991 138.338C154.911 138.25 154.804 138.189 154.687 138.163C154.454 138.066 154.203 138.023 153.951 138.035C153.643 138.075 153.387 138.273 153.125 138.438C152.863 138.602 152.506 138.748 152.188 138.664C151.869 138.58 151.604 138.315 151.441 138.802Z" fill="#1F718F"/>
<path d="M137.451 138.033C137.183 138.319 136.855 138.542 136.49 138.685L136.328 138.762C136.306 138.77 136.286 138.786 136.273 138.806C136.27 138.819 136.27 138.833 136.273 138.847C136.276 138.861 136.282 138.873 136.291 138.884C136.426 139.092 136.624 139.25 136.857 139.334C137.09 139.418 137.345 139.425 137.581 139.352C137.686 139.326 137.783 139.275 137.864 139.205C137.998 139.047 138.075 138.848 138.082 138.641C138.136 138.427 138.126 138.203 138.056 137.995C137.812 137.446 137.722 137.695 137.451 138.033Z" fill="#FBBEBE"/>
<path d="M141.104 140.191C141.11 140.257 141.099 140.324 141.074 140.385C140.992 140.546 140.761 140.538 140.582 140.503C140.555 139.908 140.483 139.317 140.366 138.734C140.025 138.718 139.779 139.04 139.596 139.329L139.125 140.074C139.057 140.202 138.96 140.313 138.843 140.399C138.749 140.451 138.646 140.483 138.539 140.496C137.639 140.644 136.73 140.363 135.862 140.082C135.734 140.048 135.612 139.996 135.498 139.928C135.343 139.815 135.238 139.646 135.206 139.457C135.173 139.269 135.215 139.075 135.322 138.916C135.686 138.426 136.504 138.566 136.957 138.159C136.91 138.445 136.832 138.725 136.725 138.995C137.332 138.904 137.74 138.35 138.228 137.981C138.351 137.877 138.499 137.807 138.657 137.778C138.776 137.768 138.895 137.78 139.009 137.814C139.572 137.956 140.099 138.214 140.556 138.573C140.74 138.718 141.029 138.923 141.109 139.147C141.196 139.415 141.104 139.905 141.104 140.191Z" fill="#1F718F"/>
<path d="M153.197 82.4066C155.202 82.4066 156.828 80.7866 156.828 78.7883C156.828 76.79 155.202 75.17 153.197 75.17C151.191 75.17 149.565 76.79 149.565 78.7883C149.565 80.7866 151.191 82.4066 153.197 82.4066Z" fill="#FBBEBE"/>
<path d="M160.351 100.151C160.337 100.843 160.238 101.531 160.058 102.199C159.886 103.029 159.664 103.847 159.393 104.651C159.184 105.234 158.922 105.819 158.924 106.437C158.924 106.694 158.966 106.98 158.808 107.183C158.667 107.326 158.489 107.427 158.295 107.476C158.197 107.501 158.108 107.549 158.032 107.616C157.957 107.683 157.899 107.766 157.862 107.859C157.697 107.613 157.574 107.342 157.496 107.057C157.181 106.095 156.888 105.128 156.618 104.155C156.593 104.099 156.582 104.038 156.586 103.977C156.591 103.916 156.61 103.857 156.642 103.805C156.687 103.766 156.739 103.737 156.795 103.719C156.975 103.646 157.14 103.54 157.282 103.407C157.349 103.348 157.403 103.278 157.444 103.199C157.495 103.073 157.518 102.938 157.512 102.803C157.512 102.339 157.512 101.876 157.5 101.412C157.493 100.984 157.509 100.555 157.549 100.129C157.549 100.045 157.565 99.9097 157.579 99.766C157.605 99.4911 157.658 99.1723 157.808 99.0655C158.031 98.9166 158.699 99.1163 158.952 99.1513C159.388 99.2109 159.831 99.2809 160.256 99.3632C160.318 99.6215 160.35 99.8859 160.351 100.151Z" fill="#D0CABD"/>
<path d="M145.687 82.8392C145.546 83.1194 145.209 83.2543 144.949 83.4311L144.057 84.0406C143.998 84.0941 143.928 84.135 143.852 84.1609C143.776 84.1867 143.696 84.1971 143.616 84.1912C143.544 84.1645 143.477 84.1237 143.421 84.0711C143.364 84.0184 143.319 83.9551 143.287 83.8847C143.288 83.8801 143.288 83.8754 143.287 83.8707L143.103 83.5625L142.224 82.0949C142.126 81.9634 142.069 81.8063 142.06 81.643C142.06 81.5677 142.087 81.4976 142.094 81.4223C142.096 81.2108 142.035 81.0034 141.918 80.8269C141.848 80.6955 141.707 80.5869 141.711 80.4398C141.704 80.2465 141.737 80.0539 141.809 79.8741C141.901 79.7078 142.034 79.567 142.194 79.4643C142.277 79.4048 142.361 79.3487 142.449 79.2892C142.496 79.2574 142.547 79.2338 142.602 79.2191C142.748 79.1894 142.892 79.3102 143.04 79.3155C143.674 79.7393 143.919 80.5414 144.418 81.1194C144.699 81.4486 144.727 81.7008 145.045 81.995C145.096 82.0406 145.146 82.0896 145.193 82.1404C145.256 82.2087 145.309 82.2854 145.351 82.3681C145.409 82.5187 145.759 82.6956 145.687 82.8392Z" fill="#D0CABD"/>
<path d="M151.92 82.4084C152.182 82.96 152.386 83.566 152.311 84.172C152.295 84.3361 152.243 84.4947 152.158 84.6361C151.905 85.0231 151.374 85.0932 150.911 85.116C150.814 85.1078 150.716 85.1191 150.623 85.1492C150.53 85.1792 150.444 85.2275 150.37 85.2911C150.308 85.3805 150.278 85.4879 150.284 85.5962C150.29 85.7046 150.332 85.808 150.403 85.89C150.552 86.048 150.736 86.1681 150.941 86.2403C151.673 86.5608 152.462 86.8253 153.256 86.7517C153.626 86.7167 153.984 86.6099 154.352 86.5556C154.752 86.5123 155.155 86.4901 155.558 86.489C156.036 86.4715 156.512 86.4242 156.988 86.3769L158.251 86.2526C158.32 86.2536 158.387 86.2293 158.439 86.1843C158.532 86.0757 158.412 85.9163 158.296 85.834C157.627 85.3401 156.774 85.0004 156.393 84.2578C156.217 83.9075 156.162 83.4907 156.032 83.1124C155.902 82.7341 155.695 82.3926 155.614 82.0073C155.571 81.6693 155.551 81.3287 155.556 80.988C155.56 80.6445 155.435 80.3118 155.204 80.0563C154.953 79.8234 154.589 79.7638 154.248 79.7498C153.408 79.713 152.513 79.9127 151.917 80.5029C151.757 80.6622 151.62 80.8531 151.455 80.9968C151.289 81.1404 151.064 81.1824 151.173 81.3716C151.282 81.5607 151.497 81.678 151.613 81.8444C151.73 82.0239 151.833 82.2125 151.92 82.4084Z" fill="#FBBEBE"/>
<path d="M159.08 87.503C158.859 88.8516 158.498 90.1739 158.005 91.4488C157.756 92.0246 157.545 92.6154 157.372 93.2177C157.236 93.7606 157.263 94.3421 157.138 94.8868C156.983 95.5645 156.828 96.2441 156.704 96.9271C156.494 97.9701 156.41 99.0343 156.454 100.097C156.454 100.264 156.487 100.43 156.549 100.586C156.607 100.712 156.7 100.82 156.755 100.95C156.795 101.064 156.812 101.185 156.804 101.305C156.795 101.426 156.762 101.543 156.705 101.651C156.615 101.851 156.493 102.036 156.343 102.197C154.705 102.684 152.952 102.524 151.245 102.628C149.672 102.722 148.081 103.045 146.531 102.777C146.355 102.076 146.649 101.342 146.9 100.659C147.629 98.675 148.436 96.6083 148.306 94.5295C148.293 94.287 148.265 94.0455 148.224 93.8062C147.969 92.3333 148.246 90.8078 148.691 89.3805C148.967 88.4908 148.955 87.5433 148.892 86.6169C148.86 86.316 148.856 86.013 148.879 85.7114C148.905 85.4034 149.02 85.1095 149.21 84.8655C149.21 84.8532 149.226 84.841 149.234 84.8287C149.243 84.8165 149.312 84.8182 149.366 84.8287C149.38 84.8346 149.395 84.8376 149.41 84.8376C149.425 84.8376 149.44 84.8346 149.454 84.8287L149.473 84.8165C149.481 84.8112 149.49 84.8083 149.499 84.8083C149.508 84.8083 149.517 84.8112 149.524 84.8165C149.565 84.841 149.588 84.925 149.676 84.9408C149.805 84.9604 149.936 84.9726 150.068 84.9776C150.226 84.9822 150.382 85.0046 150.535 85.0441H150.556C150.785 85.0825 151.02 85.0627 151.238 84.9863C151.384 84.9501 151.525 84.896 151.657 84.8252C151.695 84.7832 151.938 84.7446 151.987 84.7149C152.147 84.6185 152.112 84.1667 152.145 83.9811C152.164 83.7949 152.208 83.6121 152.277 83.4381C152.357 83.3097 152.468 83.2028 152.599 83.1268C152.73 83.0507 152.878 83.0079 153.03 83.002C153.332 82.9949 153.635 83.0219 153.931 83.0826C154.587 83.1754 155.259 83.1597 155.902 83.3103C156.226 83.3856 156.579 83.4994 156.876 83.3523C156.957 83.3716 156.969 83.4416 156.969 83.5275C156.962 83.609 156.945 83.6894 156.92 83.7674C156.807 84.2508 157.189 84.6956 157.54 85.0459C157.689 85.211 157.864 85.3501 158.059 85.4574C158.235 85.538 158.411 85.5713 158.586 85.6589C158.729 85.7345 158.85 85.8448 158.938 85.9794C159.039 86.1337 159.108 86.3072 159.138 86.489C159.176 86.8279 159.156 87.1706 159.08 87.503Z" fill="#D0CABD"/>
<path opacity="0.1" d="M159.08 87.503C158.859 88.8516 158.498 90.1739 158.005 91.4489C157.756 92.0246 157.545 92.6154 157.372 93.2177C157.236 93.7606 157.263 94.3421 157.138 94.8868C156.983 95.5645 156.829 96.2441 156.704 96.9271C156.667 96.9481 156.628 96.9674 156.589 96.9849C156.371 97.089 156.139 97.1632 155.9 97.2056C155.472 97.2572 155.038 97.2431 154.614 97.1635L152.105 96.829C151.103 96.6942 150.036 96.5313 149.292 95.8553C148.879 95.484 148.609 94.9936 148.312 94.5207C148.298 94.2783 148.27 94.0368 148.229 93.7974C147.974 92.3245 148.252 90.7991 148.697 89.3717C148.973 88.4821 148.96 87.5346 148.897 86.6081C148.866 86.3073 148.862 86.0042 148.885 85.7026C148.91 85.3947 149.025 85.1008 149.215 84.8567C149.266 84.8417 149.319 84.83 149.372 84.8217C149.407 84.8146 149.443 84.8099 149.479 84.8077H149.53C149.589 84.8079 149.648 84.815 149.706 84.8287C149.825 84.8667 149.943 84.9117 150.057 84.9636H150.078C150.229 85.013 150.387 85.0356 150.546 85.0301C150.778 85.0301 151.017 84.9933 151.249 84.9776C151.536 84.933 151.829 84.9854 152.082 85.1264C152.246 85.2573 152.401 85.3983 152.546 85.5485C152.722 85.6862 152.92 85.7933 153.132 85.8655C154.645 86.441 156.324 86.4058 157.811 85.7674C157.954 85.6865 158.116 85.6454 158.281 85.6484C158.402 85.672 158.517 85.721 158.618 85.792C158.724 85.8533 158.827 85.9128 158.935 85.9671C159.036 86.1214 159.104 86.2949 159.135 86.4767C159.175 86.8194 159.157 87.1665 159.08 87.503Z" fill="black"/>
<path d="M160.611 86.3436C159.911 86.1306 159.239 85.8367 158.607 85.468C158.506 85.3975 158.391 85.3486 158.27 85.3244C158.105 85.3224 157.943 85.3635 157.799 85.4435C156.312 86.0817 154.634 86.1169 153.121 85.5415C152.91 85.4686 152.712 85.3615 152.536 85.2245C152.39 85.0747 152.235 84.9338 152.072 84.8024C151.493 84.4294 150.693 84.8672 150.047 84.6273C149.932 84.5763 149.814 84.5313 149.695 84.4925C149.183 84.3646 148.663 84.8725 148.16 84.7184C147.973 85.2249 147.835 85.748 147.747 86.2806C147.676 86.8922 147.638 87.5073 147.633 88.123C147.633 88.4926 147.615 88.8621 147.633 89.2316C147.695 89.2417 147.754 89.2645 147.807 89.2986C147.859 89.3327 147.904 89.3773 147.939 89.4295C147.962 89.4906 147.971 89.5559 147.967 89.6209C147.962 89.6859 147.943 89.7491 147.911 89.8061C147.543 90.7466 147.171 91.6975 146.613 92.5399C147.006 92.7731 147.371 93.0505 147.7 93.3666C148.315 94.0146 148.617 94.9235 149.282 95.5225C150.031 96.1968 151.098 96.3614 152.095 96.4945L154.603 96.829C155.028 96.9082 155.462 96.923 155.892 96.8728C156.13 96.8295 156.361 96.7547 156.579 96.6504C156.721 96.591 156.851 96.5055 156.962 96.3982C157.055 96.2934 157.131 96.1753 157.189 96.0479C157.388 95.6521 157.569 95.2475 157.736 94.8377C157.794 94.6924 157.881 94.5225 158.04 94.5102C158.971 93.6731 159.85 92.8149 160.782 91.9778C161.156 91.6686 161.492 91.3158 161.782 90.927C162.245 90.2457 161.824 89.2807 161.782 88.4575C161.777 88.247 161.751 88.0375 161.703 87.8323C161.552 87.2351 161.197 86.5205 160.611 86.3436Z" fill="#FFCB77"/>
<path opacity="0.1" d="M145.687 82.8392C145.546 83.1194 145.209 83.2543 144.949 83.4311L144.057 84.0406C143.998 84.0941 143.928 84.135 143.852 84.1609C143.776 84.1867 143.696 84.1971 143.616 84.1912C143.544 84.1645 143.477 84.1237 143.421 84.0711C143.364 84.0184 143.319 83.9551 143.287 83.8847C143.287 83.8445 143.287 83.8007 143.287 83.7586C143.281 83.6169 143.3 83.4751 143.344 83.3401C143.431 83.142 143.566 82.9687 143.737 82.8357C144.068 82.5235 144.462 82.2847 144.892 82.1352C144.96 82.1092 145.032 82.1019 145.103 82.1141C145.131 82.1212 145.157 82.1325 145.181 82.1474C145.244 82.2158 145.297 82.2924 145.339 82.3751C145.409 82.5187 145.759 82.6956 145.687 82.8392Z" fill="black"/>
<path d="M147.786 84.6851C147.487 84.6711 147.243 84.4557 147.025 84.2508L146.359 83.6343C146.314 83.5967 146.275 83.5531 146.242 83.5047C146.206 83.4366 146.179 83.3642 146.162 83.2893C146.02 82.9355 145.799 82.619 145.515 82.3646C145.465 82.3018 145.399 82.2544 145.323 82.2279C145.252 82.2148 145.178 82.2221 145.11 82.249C144.68 82.3983 144.286 82.6371 143.955 82.9495C143.784 83.0826 143.649 83.2559 143.562 83.4539C143.518 83.5888 143.498 83.7307 143.505 83.8725C143.51 84.3352 143.614 84.7916 143.811 85.2105C143.841 85.2753 143.875 85.3401 143.91 85.4032C144.144 85.7894 144.421 86.1483 144.736 86.4733L145.154 86.9391C145.566 87.398 145.977 87.8568 146.424 88.2789C146.584 88.449 146.778 88.5838 146.993 88.6747C147.101 88.7187 147.22 88.7322 147.335 88.7136C147.45 88.6951 147.558 88.6453 147.647 88.5696C147.731 88.4725 147.795 88.3593 147.833 88.2369C148.104 87.5363 148.361 86.8078 148.377 86.0529C148.38 85.7506 148.367 85.4484 148.338 85.1475C148.312 84.8287 148.085 84.7044 147.786 84.6851Z" fill="#FFCB77"/>
<path d="M158.439 109.204C158.429 110.966 158.303 112.725 158.063 114.47C158.027 114.752 157.989 115.034 157.969 115.316C157.911 116.134 158.006 116.956 157.929 117.768C157.889 118.208 157.797 118.644 157.72 119.073C157.376 120.988 157.276 122.939 157.421 124.879C157.664 128.107 156.92 131.336 157.257 134.555C157.298 135.181 157.264 135.81 157.154 136.427C157.091 136.81 157 137.189 156.881 137.559C156.625 138.435 156.367 139.311 156.108 140.186C156.077 140.319 156.017 140.443 155.932 140.55C155.842 140.627 155.737 140.684 155.623 140.718C155.51 140.752 155.39 140.76 155.273 140.744C154.258 140.713 153.304 140.277 152.383 139.851C152.277 139.809 152.179 139.75 152.093 139.676C151.901 139.478 151.917 139.166 151.833 138.905C151.748 138.644 151.52 138.399 151.39 138.131C151.283 137.878 151.218 137.609 151.198 137.334C151.081 136.438 151.001 135.538 150.959 134.634C150.892 133.362 151.736 132.192 152.014 130.956C152.541 128.525 152.095 125.919 153.031 123.613C153.327 122.884 152.898 122.001 152.856 121.217C152.84 120.71 152.775 120.207 152.659 119.714C152.483 119.055 152.112 118.436 152.086 117.752C152.066 117.259 152.226 116.777 152.309 116.29C152.419 115.574 152.408 114.844 152.279 114.131C152.186 113.542 152.044 112.954 151.901 112.379L151.87 112.444C151.441 113.278 151.073 114.141 150.767 115.027C150.627 115.456 150.504 115.894 150.328 116.311C150.184 116.661 150.006 116.982 149.832 117.311C149.208 118.472 148.665 119.675 148.206 120.91C147.988 121.516 147.796 122.136 147.607 122.744L146.304 126.947C145.952 128.052 145.567 129.121 145.223 130.224C144.736 131.8 144.249 133.362 143.683 134.904C143.156 136.366 142.528 137.881 142.716 139.426C142.231 139.653 141.699 139.76 141.164 139.739C140.258 139.659 139.369 139.444 138.527 139.102C138.191 138.977 137.843 138.837 137.617 138.562C137.226 138.087 137.323 137.392 137.441 136.788C137.485 136.516 137.556 136.248 137.652 135.989C137.785 135.667 138.003 135.382 138.14 135.063C138.416 134.452 138.434 133.76 138.543 133.096C138.652 132.432 138.894 131.732 139.464 131.371C139.561 130.205 140.042 129.054 140.308 127.914C140.508 127.05 140.575 126.163 140.733 125.287C140.891 124.411 141.146 123.535 141.677 122.826C141.635 122.095 141.801 121.366 142.155 120.725C142.241 120.584 142.311 120.434 142.365 120.278C142.397 120.126 142.416 119.971 142.421 119.816C142.479 119.207 142.74 118.635 143.163 118.192C142.987 117.553 143.231 116.886 143.451 116.266C143.728 115.474 143.853 114.639 143.82 113.801C143.793 113.568 143.804 113.331 143.854 113.101C143.903 112.926 143.999 112.777 144.056 112.609C144.106 112.403 144.132 112.192 144.135 111.98C144.203 111.033 144.588 110.139 145.014 109.293C145.267 108.8 145.052 108.129 145.105 107.579C145.197 106.665 145.297 105.719 145.752 104.922C145.836 104.771 145.928 104.628 146.003 104.472C146.095 104.249 146.144 104.012 146.149 103.771C146.165 103.37 146.221 103.038 146.077 102.665C147.018 101.885 148.301 101.666 149.524 101.614C150.748 101.561 151.986 101.672 153.183 101.412C153.534 101.334 153.886 101.225 154.257 101.172C155.099 101.05 155.953 101.241 156.785 101.43C156.727 101.955 156.92 102.46 157.136 102.948C157.98 104.928 158.423 107.054 158.439 109.204Z" fill="#33313F"/>
<path opacity="0.1" d="M154.299 109.605L152.279 114.131C152.186 113.542 152.044 112.954 151.901 112.379L151.87 112.444V112.35L152.97 109.938L154.299 109.605Z" fill="black"/>
<path opacity="0.1" d="M160.351 100.151C160.235 100.238 160.096 100.29 159.95 100.3C159.728 100.308 159.505 100.278 159.293 100.211L157.711 99.8168C157.661 99.8047 157.613 99.7876 157.567 99.766C157.593 99.4911 157.646 99.1723 157.795 99.0655C158.019 98.9166 158.687 99.1163 158.94 99.1513C159.376 99.2109 159.819 99.2809 160.244 99.3632C160.31 99.621 160.346 99.8854 160.351 100.151Z" fill="black"/>
<path d="M161.689 89.7308C161.722 89.8761 161.77 90.0197 161.798 90.1669C161.845 90.5278 161.833 90.894 161.761 91.2509L161.617 92.2527L161.473 93.2598L160.916 97.1355L160.778 98.0953L160.585 99.435C160.576 99.5465 160.547 99.6556 160.501 99.7573C160.443 99.8525 160.363 99.9319 160.267 99.9885C160.171 100.045 160.062 100.077 159.951 100.081C159.728 100.088 159.506 100.058 159.293 99.992L157.711 99.5962C157.642 99.5839 157.576 99.557 157.518 99.5174C157.469 99.4703 157.434 99.4113 157.416 99.3463C157.398 99.2814 157.398 99.2129 157.416 99.1478C157.438 99.0147 157.496 98.8904 157.516 98.7573C157.554 98.4981 157.446 98.2319 157.484 97.9744C157.522 97.8105 157.581 97.6521 157.66 97.5033C158.187 96.3421 157.881 94.9866 158.061 93.7256C158.222 92.7332 158.643 91.8006 159.281 91.0215C159.674 90.5298 160.127 90.0875 160.627 89.7045C160.824 89.5521 161.137 89.2386 161.385 89.1791C161.703 89.1125 161.636 89.5101 161.689 89.7308Z" fill="#FFCB77"/>
<path d="M149.716 74.6446C149.6 75.0124 149.781 75.4169 149.698 75.7917C149.609 76.205 149.219 76.4923 149.108 76.9073C148.932 77.5396 149.47 78.1158 149.864 78.6412C151.323 80.5922 151.131 83.2928 150.632 85.6729C150.23 87.5824 149.675 89.4566 148.971 91.2772C148.751 91.8429 148.508 92.4173 148.076 92.8412C148.885 92.61 149.744 92.3771 150.555 92.6012C151.581 92.885 152.467 93.878 153.508 93.6521C154.134 93.5137 154.573 92.9603 155.136 92.6538C156.19 92.0881 157.461 92.4436 158.637 92.6258C158.891 92.6853 159.156 92.672 159.402 92.5872C159.59 92.4865 159.75 92.3401 159.866 92.1616C160.391 91.4908 160.705 90.6805 160.77 89.8323C160.797 89.41 160.735 88.9866 160.586 88.5902C160.437 88.1937 160.206 87.8333 159.907 87.5328C159.657 87.2981 159.358 87.109 159.166 86.8323C158.98 86.5091 158.88 86.1436 158.876 85.7709C158.738 83.8445 159.209 81.8777 158.723 80.0142C158.548 79.3505 158.261 78.7147 158.184 78.0352C158.087 77.1893 158.317 76.2838 157.98 75.5097C157.714 74.895 157.129 74.4589 156.498 74.2348C155.867 74.0106 155.192 73.9475 154.522 73.8845C153.559 73.8039 150.119 73.3924 149.716 74.6446Z" fill="#33313F"/>
<g opacity="0.1">
<path opacity="0.1" d="M150.632 85.6729C150.232 87.5745 149.68 89.4411 148.979 91.2544C149.101 91.0145 149.203 90.7623 149.299 90.5119C150.004 88.6915 150.56 86.8173 150.961 84.9075C151.462 82.5257 151.653 79.8286 150.194 77.8758C149.843 77.41 149.391 76.9056 149.407 76.3592C149.277 76.5244 149.176 76.7103 149.108 76.9091C148.932 77.5413 149.47 78.1175 149.864 78.6429C151.323 80.5922 151.131 83.2928 150.632 85.6729Z" fill="black"/>
<path opacity="0.1" d="M149.72 75.6148C149.861 75.4403 149.966 75.2397 150.029 75.0246C150.056 74.7645 150.049 74.5019 150.008 74.2435C149.872 74.3451 149.771 74.4848 149.716 74.6446C149.612 74.9546 149.732 75.2908 149.72 75.6148Z" fill="black"/>
<path opacity="0.1" d="M160.197 91.391C160.08 91.569 159.921 91.7148 159.733 91.8149C159.487 91.9014 159.221 91.9148 158.968 91.8534C157.792 91.6783 156.507 91.3175 155.466 91.8832C154.902 92.1879 154.464 92.7414 153.837 92.8815C152.798 93.1126 151.912 92.1196 150.885 91.8306C150.157 91.6292 149.391 91.7956 148.658 92.0058C148.512 92.3153 148.315 92.5982 148.076 92.8429C148.885 92.6118 149.744 92.3788 150.555 92.603C151.581 92.8867 152.467 93.8797 153.508 93.6538C154.134 93.5155 154.573 92.962 155.136 92.6555C156.19 92.0898 157.461 92.4454 158.637 92.6275C158.891 92.6871 159.156 92.6737 159.402 92.589C159.59 92.4882 159.75 92.3419 159.866 92.1634C160.185 91.7447 160.431 91.2759 160.594 90.7763C160.476 90.9905 160.344 91.1959 160.197 91.391Z" fill="black"/>
</g>
</g>
<defs>
<linearGradient id="paint0_linear" x1="135.111" y1="107.257" x2="162.007" y2="107.257" gradientUnits="userSpaceOnUse">
<stop stop-color="#808080" stop-opacity="0.25"/>
<stop offset="0.54" stop-color="#808080" stop-opacity="0.12"/>
<stop offset="1" stop-color="#808080" stop-opacity="0.1"/>
</linearGradient>
<clipPath id="clip0">
<rect width="205" height="141" fill="white"/>
</clipPath>
</defs>
</svg>
