<svg width="231" height="180" viewBox="0 0 231 180" fill="none" xmlns="http://www.w3.org/2000/svg">
<g clip-path="url(#clip0)">
<path opacity="0.1" d="M50.0953 0.135971C42.6672 -0.139397 34.9078 -0.333014 28.1912 2.87244C21.4746 6.07789 16.2818 13.8441 18.5341 20.9843C19.2693 23.312 20.701 25.3407 21.9084 27.4597C27.9454 38.0571 28.2254 51.7545 22.6286 62.5949C18.3204 70.9398 11.0184 77.2905 5.76136 85.0653C0.504361 92.8402 -2.48315 103.616 2.68836 111.449C6.22936 116.812 12.8006 119.422 19.1667 120.054C25.5328 120.687 31.9352 119.691 38.3291 119.435C50.7711 118.953 63.16 121.312 74.5681 126.334C90.2729 133.265 103.802 145.123 120.338 149.699C122.323 150.248 124.398 150.691 126.429 150.319C130.029 149.658 132.647 146.662 135.466 144.295C144.465 136.794 156.923 135.393 168.604 135.045C180.285 134.696 192.451 134.965 203.01 129.916C212.229 125.508 219.326 117.307 223.739 108.043C228.151 98.7799 230.068 88.4859 230.791 78.2349C231.218 72.1338 231.203 65.8348 229.034 60.1231C226.596 53.7014 221.651 48.5877 216.464 44.1173C211.045 39.4447 205.138 35.2109 198.447 32.6896C190.455 29.6777 181.779 29.2475 173.269 28.5332C155.82 27.0661 138.506 24.2671 121.477 20.1604C105.315 16.2708 87.5696 12.022 72.85 4.09868C65.4624 0.120912 58.4232 0.437154 50.0953 0.135971Z" fill="#17C3B2"/>
<g opacity="0.1">
<path opacity="0.1" d="M152.555 135.461C152.555 135.461 153.312 124.789 159.278 118.969C161.797 116.545 163.467 113.363 164.035 109.902C164.292 108.256 164.4 106.591 164.356 104.926" fill="#17C3B2"/>
<path opacity="0.1" d="M168.094 101.236C167.655 102.415 164.268 105.035 164.268 105.035C164.268 105.035 163.413 100.821 163.856 99.6422C164.066 99.0765 164.49 98.6179 165.036 98.3673C165.582 98.1168 166.204 98.0948 166.766 98.3062C167.328 98.5176 167.784 98.9451 168.033 99.4946C168.282 100.044 168.303 100.671 168.094 101.236Z" fill="#17C3B2"/>
<path opacity="0.1" d="M169.175 109.082C168.17 109.831 163.913 110.177 163.913 110.177C163.913 110.177 165.473 106.174 166.478 105.423C166.961 105.082 167.556 104.944 168.138 105.039C168.72 105.134 169.243 105.453 169.594 105.93C169.946 106.407 170.098 107.003 170.02 107.591C169.942 108.179 169.638 108.713 169.175 109.08V109.082Z" fill="#17C3B2"/>
<path opacity="0.1" d="M164.882 120.176C163.638 120.314 159.789 118.455 159.789 118.455C159.789 118.455 163.144 115.792 164.386 115.659C164.963 115.627 165.53 115.819 165.971 116.195C166.412 116.571 166.693 117.103 166.757 117.681C166.82 118.26 166.661 118.841 166.313 119.305C165.964 119.769 165.452 120.081 164.882 120.176Z" fill="#17C3B2"/>
<path opacity="0.1" d="M159.755 127.835C158.554 128.181 154.447 126.998 154.447 126.998C154.447 126.998 157.306 123.804 158.507 123.457C158.795 123.365 159.099 123.332 159.4 123.36C159.702 123.388 159.995 123.476 160.261 123.62C160.528 123.764 160.763 123.96 160.954 124.197C161.144 124.434 161.285 124.707 161.368 125C161.452 125.293 161.476 125.599 161.44 125.902C161.403 126.204 161.307 126.496 161.157 126.761C161.006 127.025 160.805 127.256 160.564 127.441C160.323 127.625 160.048 127.759 159.755 127.835Z" fill="#17C3B2"/>
<path opacity="0.1" d="M159.379 108.731C159.913 109.867 163.507 112.189 163.507 112.189C163.507 112.189 164.003 107.918 163.467 106.78C163.199 106.252 162.738 105.85 162.18 105.658C161.623 105.467 161.013 105.502 160.481 105.756C159.949 106.01 159.536 106.463 159.33 107.019C159.125 107.574 159.142 108.189 159.379 108.731Z" fill="#17C3B2"/>
<path opacity="0.1" d="M153.496 117.765C154.35 118.688 158.464 119.821 158.464 119.821C158.464 119.821 157.667 115.596 156.819 114.671C156.411 114.23 155.845 113.97 155.247 113.947C154.649 113.925 154.066 114.142 153.626 114.551C153.186 114.96 152.926 115.529 152.901 116.131C152.877 116.733 153.091 117.321 153.496 117.765Z" fill="#17C3B2"/>
<path opacity="0.1" d="M148.976 127.334C149.655 128.388 153.528 130.206 153.528 130.206C153.528 130.206 153.451 125.903 152.769 124.851C152.434 124.363 151.923 124.026 151.345 123.911C150.767 123.797 150.168 123.913 149.674 124.236C149.18 124.56 148.831 125.064 148.7 125.643C148.57 126.221 148.669 126.828 148.976 127.334Z" fill="#17C3B2"/>
<path opacity="0.1" d="M168.094 101.236C167.655 102.415 164.268 105.035 164.268 105.035C164.268 105.035 163.413 100.821 163.856 99.6422C164.066 99.0765 164.49 98.6179 165.036 98.3673C165.582 98.1168 166.204 98.0948 166.766 98.3062C167.328 98.5176 167.784 98.9451 168.033 99.4946C168.282 100.044 168.303 100.671 168.094 101.236Z" fill="#17C3B2"/>
<path opacity="0.1" d="M169.175 109.082C168.17 109.831 163.913 110.177 163.913 110.177C163.913 110.177 165.473 106.174 166.478 105.423C166.961 105.082 167.556 104.944 168.138 105.039C168.72 105.134 169.243 105.453 169.594 105.93C169.946 106.407 170.098 107.003 170.02 107.591C169.942 108.179 169.638 108.713 169.175 109.08V109.082Z" fill="#17C3B2"/>
<path opacity="0.1" d="M164.882 120.176C163.638 120.314 159.789 118.455 159.789 118.455C159.789 118.455 163.144 115.792 164.386 115.659C164.963 115.627 165.53 115.819 165.971 116.195C166.412 116.571 166.693 117.103 166.757 117.681C166.82 118.26 166.661 118.841 166.313 119.305C165.964 119.769 165.452 120.081 164.882 120.176Z" fill="#17C3B2"/>
<path opacity="0.1" d="M159.755 127.835C158.554 128.181 154.447 126.998 154.447 126.998C154.447 126.998 157.306 123.804 158.507 123.457C158.795 123.365 159.099 123.332 159.4 123.36C159.702 123.388 159.995 123.476 160.261 123.62C160.528 123.764 160.763 123.96 160.954 124.197C161.144 124.434 161.285 124.707 161.368 125C161.452 125.293 161.476 125.599 161.44 125.902C161.403 126.204 161.307 126.496 161.157 126.761C161.006 127.025 160.805 127.256 160.564 127.441C160.323 127.625 160.048 127.759 159.755 127.835Z" fill="#17C3B2"/>
<path opacity="0.1" d="M159.379 108.731C159.913 109.867 163.507 112.189 163.507 112.189C163.507 112.189 164.003 107.918 163.467 106.78C163.199 106.252 162.738 105.85 162.18 105.658C161.623 105.467 161.013 105.502 160.481 105.756C159.949 106.01 159.536 106.463 159.33 107.019C159.125 107.574 159.142 108.189 159.379 108.731Z" fill="#17C3B2"/>
<path opacity="0.1" d="M153.496 117.765C154.35 118.688 158.464 119.821 158.464 119.821C158.464 119.821 157.667 115.596 156.819 114.671C156.411 114.23 155.845 113.97 155.247 113.947C154.649 113.925 154.066 114.142 153.626 114.551C153.186 114.96 152.926 115.529 152.901 116.131C152.877 116.733 153.091 117.321 153.496 117.765Z" fill="#17C3B2"/>
<path opacity="0.1" d="M148.976 127.334C149.655 128.388 153.528 130.206 153.528 130.206C153.528 130.206 153.451 125.903 152.769 124.851C152.434 124.363 151.923 124.026 151.345 123.911C150.767 123.797 150.168 123.913 149.674 124.236C149.18 124.56 148.831 125.064 148.7 125.643C148.57 126.221 148.669 126.828 148.976 127.334Z" fill="#17C3B2"/>
</g>
<g opacity="0.1">
<path opacity="0.1" d="M154.65 95.0642C154.65 95.0642 155.406 84.3915 161.373 78.5722C163.891 76.147 165.56 72.9654 166.13 69.5045C166.388 67.8593 166.496 66.1936 166.45 64.5285" fill="#17C3B2"/>
<path opacity="0.1" d="M170.188 60.839C169.76 62.0158 166.365 64.6361 166.365 64.6361C166.365 64.6361 165.51 60.4217 165.95 59.2449C166.16 58.6792 166.585 58.2206 167.13 57.9701C167.676 57.7195 168.299 57.6975 168.861 57.9089C169.423 58.1203 169.878 58.5478 170.127 59.0973C170.376 59.6468 170.398 60.2733 170.188 60.839Z" fill="#17C3B2"/>
<path opacity="0.1" d="M171.275 68.6827C170.273 69.4335 166.014 69.7777 166.014 69.7777C166.014 69.7777 167.574 65.7763 168.579 65.0255C168.816 64.8375 169.089 64.6994 169.381 64.6193C169.673 64.5393 169.977 64.5189 170.277 64.5593C170.577 64.5998 170.865 64.7003 171.126 64.8548C171.386 65.0094 171.613 65.215 171.793 65.4594C171.973 65.7038 172.103 65.982 172.175 66.2777C172.246 66.5734 172.258 66.8806 172.21 67.1811C172.162 67.4815 172.054 67.7692 171.894 68.0271C171.733 68.285 171.523 68.5079 171.275 68.6827Z" fill="#17C3B2"/>
<path opacity="0.1" d="M166.976 79.7791C165.734 79.9168 161.885 78.0581 161.885 78.0581C161.885 78.0581 165.241 75.3969 166.482 75.2614C166.78 75.2228 167.083 75.2444 167.373 75.325C167.663 75.4056 167.934 75.5436 168.17 75.7308C168.407 75.9181 168.604 76.1509 168.749 76.4156C168.895 76.6803 168.987 76.9716 169.02 77.2725C169.053 77.5735 169.026 77.8779 168.941 78.1682C168.855 78.4585 168.713 78.7287 168.523 78.9631C168.332 79.1974 168.098 79.3913 167.832 79.5332C167.566 79.6752 167.275 79.7625 166.976 79.7899V79.7791Z" fill="#17C3B2"/>
<path opacity="0.1" d="M161.849 87.4378C160.648 87.7842 156.541 86.6009 156.541 86.6009C156.541 86.6009 159.402 83.4062 160.601 83.0577C161.175 82.9002 161.788 82.9767 162.307 83.2708C162.825 83.5648 163.208 84.0526 163.372 84.6286C163.536 85.2047 163.467 85.8225 163.182 86.3482C162.897 86.874 162.417 87.2655 161.847 87.4378H161.849Z" fill="#17C3B2"/>
<path opacity="0.1" d="M161.473 68.332C162.007 69.4701 165.604 71.7913 165.604 71.7913C165.604 71.7913 166.098 67.5188 165.563 66.3829C165.44 66.1067 165.263 65.858 165.043 65.6514C164.823 65.4448 164.564 65.2845 164.282 65.1797C163.999 65.075 163.699 65.028 163.399 65.0415C163.098 65.055 162.803 65.1287 162.531 65.2583C162.259 65.3879 162.016 65.5708 161.815 65.7963C161.614 66.0218 161.46 66.2853 161.361 66.5715C161.263 66.8577 161.222 67.1608 161.241 67.4631C161.26 67.7654 161.339 68.0608 161.473 68.332Z" fill="#17C3B2"/>
<path opacity="0.1" d="M155.59 77.3654C156.445 78.2904 160.561 79.422 160.561 79.422C160.561 79.422 159.761 75.1968 158.913 74.2739C158.501 73.848 157.941 73.6008 157.351 73.585C156.761 73.5692 156.188 73.786 155.755 74.1892C155.321 74.5925 155.061 75.1502 155.031 75.7435C155 76.3369 155.201 76.9189 155.59 77.3654Z" fill="#17C3B2"/>
<path opacity="0.1" d="M151.07 86.9365C151.752 87.9907 155.622 89.8085 155.622 89.8085C155.622 89.8085 155.545 85.5059 154.863 84.4539C154.706 84.194 154.498 83.9685 154.252 83.7908C154.006 83.6131 153.728 83.4868 153.433 83.4195C153.137 83.3521 152.832 83.3449 152.534 83.3985C152.236 83.452 151.952 83.5652 151.698 83.7312C151.445 83.8972 151.227 84.1128 151.057 84.3651C150.888 84.6174 150.77 84.9014 150.712 85.2003C150.653 85.4991 150.655 85.8067 150.716 86.105C150.778 86.4032 150.898 86.686 151.07 86.9365Z" fill="#17C3B2"/>
<path opacity="0.1" d="M170.188 60.839C169.76 62.0158 166.365 64.6361 166.365 64.6361C166.365 64.6361 165.51 60.4217 165.95 59.2449C166.16 58.6792 166.585 58.2206 167.13 57.9701C167.676 57.7195 168.299 57.6975 168.861 57.9089C169.423 58.1203 169.878 58.5478 170.127 59.0973C170.376 59.6468 170.398 60.2733 170.188 60.839Z" fill="#17C3B2"/>
<path opacity="0.1" d="M171.275 68.6827C170.273 69.4335 166.014 69.7777 166.014 69.7777C166.014 69.7777 167.574 65.7763 168.579 65.0255C168.816 64.8375 169.089 64.6994 169.381 64.6193C169.673 64.5393 169.977 64.5189 170.277 64.5593C170.577 64.5998 170.865 64.7003 171.126 64.8548C171.386 65.0094 171.613 65.215 171.793 65.4594C171.973 65.7038 172.103 65.982 172.175 66.2777C172.246 66.5734 172.258 66.8806 172.21 67.1811C172.162 67.4815 172.054 67.7692 171.894 68.0271C171.733 68.285 171.523 68.5079 171.275 68.6827Z" fill="#17C3B2"/>
<path opacity="0.1" d="M166.976 79.7791C165.734 79.9168 161.885 78.0581 161.885 78.0581C161.885 78.0581 165.241 75.3969 166.482 75.2614C166.78 75.2228 167.083 75.2444 167.373 75.325C167.663 75.4056 167.934 75.5436 168.17 75.7308C168.407 75.9181 168.604 76.1509 168.749 76.4156C168.895 76.6803 168.987 76.9716 169.02 77.2725C169.053 77.5735 169.026 77.8779 168.941 78.1682C168.855 78.4585 168.713 78.7287 168.523 78.9631C168.332 79.1974 168.098 79.3913 167.832 79.5332C167.566 79.6752 167.275 79.7625 166.976 79.7899V79.7791Z" fill="#17C3B2"/>
<path opacity="0.1" d="M161.849 87.4378C160.648 87.7842 156.541 86.6009 156.541 86.6009C156.541 86.6009 159.402 83.4062 160.601 83.0577C161.175 82.9002 161.788 82.9767 162.307 83.2708C162.825 83.5648 163.208 84.0526 163.372 84.6286C163.536 85.2047 163.467 85.8225 163.182 86.3482C162.897 86.874 162.417 87.2655 161.847 87.4378H161.849Z" fill="#17C3B2"/>
<path opacity="0.1" d="M161.473 68.332C162.007 69.4701 165.604 71.7913 165.604 71.7913C165.604 71.7913 166.098 67.5188 165.563 66.3829C165.44 66.1067 165.263 65.858 165.043 65.6514C164.823 65.4448 164.564 65.2845 164.282 65.1797C163.999 65.075 163.699 65.028 163.399 65.0415C163.098 65.055 162.803 65.1287 162.531 65.2583C162.259 65.3879 162.016 65.5708 161.815 65.7963C161.614 66.0218 161.46 66.2853 161.361 66.5715C161.263 66.8577 161.222 67.1608 161.241 67.4631C161.26 67.7654 161.339 68.0608 161.473 68.332Z" fill="#17C3B2"/>
<path opacity="0.1" d="M155.59 77.3654C156.445 78.2904 160.561 79.422 160.561 79.422C160.561 79.422 159.761 75.1968 158.913 74.2739C158.501 73.848 157.941 73.6008 157.351 73.585C156.761 73.5692 156.188 73.786 155.755 74.1892C155.321 74.5925 155.061 75.1502 155.031 75.7435C155 76.3369 155.201 76.9189 155.59 77.3654Z" fill="#17C3B2"/>
<path opacity="0.1" d="M151.07 86.9365C151.752 87.9907 155.622 89.8085 155.622 89.8085C155.622 89.8085 155.545 85.5059 154.863 84.4539C154.706 84.194 154.498 83.9685 154.252 83.7908C154.006 83.6131 153.728 83.4868 153.433 83.4195C153.137 83.3521 152.832 83.3449 152.534 83.3985C152.236 83.452 151.952 83.5652 151.698 83.7312C151.445 83.8972 151.227 84.1128 151.057 84.3651C150.888 84.6174 150.77 84.9014 150.712 85.2003C150.653 85.4991 150.655 85.8067 150.716 86.105C150.778 86.4032 150.898 86.686 151.07 86.9365Z" fill="#17C3B2"/>
</g>
<g opacity="0.1">
<path opacity="0.1" d="M41.2845 109.048C41.2845 109.048 32.1574 103.57 29.6721 95.5934C28.6542 92.2382 26.5813 89.3066 23.7654 87.2399C22.4209 86.2676 20.9902 85.4222 19.4915 84.7142" fill="#17C3B2"/>
<path opacity="0.1" d="M17.8994 79.6888C18.7542 80.6117 19.5513 84.8369 19.5513 84.8369C19.5513 84.8369 15.4291 83.7074 14.5807 82.7845C14.1921 82.3383 13.9918 81.7571 14.0223 81.1646C14.0529 80.572 14.3119 80.0148 14.7442 79.6115C15.1766 79.2082 15.7482 78.9906 16.3374 79.0051C16.9267 79.0195 17.4871 79.2648 17.8994 79.6888Z" fill="#17C3B2"/>
<path opacity="0.1" d="M25.3468 82.2553C25.5605 83.4944 23.9535 87.4787 23.9535 87.4787C23.9535 87.4787 21.1027 84.2754 20.889 83.0362C20.8299 82.7382 20.8306 82.4312 20.8911 82.1334C20.9517 81.8357 21.0707 81.5531 21.2414 81.3024C21.412 81.0516 21.6308 80.8378 21.8848 80.6735C22.1388 80.5092 22.4229 80.3977 22.7203 80.3456C23.0177 80.2935 23.3225 80.3018 23.6167 80.3701C23.9109 80.4384 24.1886 80.5653 24.4333 80.7432C24.6781 80.9212 24.885 81.1466 25.0419 81.4063C25.1987 81.666 25.3024 81.9547 25.3468 82.2553Z" fill="#17C3B2"/>
<path opacity="0.1" d="M33.2622 91.0929C32.8348 92.2718 29.4391 94.8942 29.4391 94.8942C29.4391 94.8942 28.5843 90.6798 29.0224 89.5031C29.12 89.2148 29.274 88.9491 29.4753 88.7218C29.6767 88.4944 29.9213 88.31 30.1946 88.1795C30.468 88.049 30.7646 87.975 31.0668 87.9618C31.3691 87.9487 31.6709 87.9967 31.9544 88.103C32.2379 88.2093 32.4974 88.3718 32.7175 88.5808C32.9375 88.7898 33.1138 89.0411 33.2357 89.3198C33.3576 89.5986 33.4228 89.8991 33.4273 90.2036C33.4319 90.5082 33.3757 90.8106 33.2622 91.0929Z" fill="#17C3B2"/>
<path opacity="0.1" d="M37.752 99.1452C37.5212 100.382 34.6234 103.553 34.6234 103.553C34.6234 103.553 33.0741 99.5454 33.3071 98.3105C33.3622 98.0167 33.4743 97.7367 33.6369 97.4865C33.7996 97.2363 34.0096 97.0208 34.2549 96.8523C34.5003 96.6838 34.7762 96.5656 35.067 96.5044C35.3577 96.4433 35.6576 96.4404 35.9495 96.4959C36.2413 96.5514 36.5195 96.6642 36.768 96.828C37.0165 96.9917 37.2306 97.2031 37.398 97.4501C37.5654 97.6971 37.6828 97.9749 37.7435 98.2676C37.8043 98.5603 37.8072 98.8622 37.752 99.156V99.1452Z" fill="#17C3B2"/>
<path opacity="0.1" d="M20.6326 90.895C21.8806 90.9251 25.5583 88.7436 25.5583 88.7436C25.5583 88.7436 21.9896 86.3772 20.7394 86.3471C20.1469 86.3447 19.5771 86.5764 19.1524 86.9923C18.7278 87.4082 18.482 87.9752 18.468 88.5715C18.454 89.1678 18.6729 89.7459 19.0776 90.1815C19.4823 90.6171 20.0406 90.8756 20.6326 90.9014V90.895Z" fill="#17C3B2"/>
<path opacity="0.1" d="M26.0029 100.247C27.2039 99.8982 30.0632 96.7013 30.0632 96.7013C30.0632 96.7013 25.9559 95.5203 24.7549 95.8688C24.1909 96.0465 23.7183 96.4394 23.4383 96.9633C23.1582 97.4872 23.0928 98.1006 23.2561 98.6724C23.4193 99.2442 23.7983 99.729 24.312 100.023C24.8257 100.317 25.4334 100.398 26.005 100.247H26.0029Z" fill="#17C3B2"/>
<path opacity="0.1" d="M32.4608 108.613C33.7046 108.475 37.0575 105.816 37.0575 105.816C37.0575 105.816 33.2109 103.953 31.965 104.095C31.6581 104.112 31.3578 104.192 31.0825 104.33C30.8072 104.468 30.5628 104.66 30.364 104.897C30.1653 105.133 30.0164 105.407 29.9266 105.703C29.8368 105.999 29.8079 106.31 29.8417 106.618C29.8754 106.926 29.9711 107.223 30.123 107.492C30.2748 107.761 30.4795 107.996 30.7247 108.183C30.9698 108.37 31.2502 108.504 31.5487 108.578C31.8472 108.652 32.1576 108.664 32.4608 108.613Z" fill="#17C3B2"/>
<path opacity="0.1" d="M17.8994 79.6888C18.7542 80.6117 19.5513 84.8369 19.5513 84.8369C19.5513 84.8369 15.4291 83.7074 14.5807 82.7845C14.1921 82.3383 13.9918 81.7571 14.0223 81.1646C14.0529 80.572 14.3119 80.0148 14.7442 79.6115C15.1766 79.2082 15.7482 78.9906 16.3374 79.0051C16.9267 79.0195 17.4871 79.2648 17.8994 79.6888Z" fill="#17C3B2"/>
<path opacity="0.1" d="M25.3468 82.2553C25.5605 83.4944 23.9535 87.4787 23.9535 87.4787C23.9535 87.4787 21.1027 84.2754 20.889 83.0362C20.8299 82.7382 20.8306 82.4312 20.8911 82.1334C20.9517 81.8357 21.0707 81.5531 21.2414 81.3024C21.412 81.0516 21.6308 80.8378 21.8848 80.6735C22.1388 80.5092 22.4229 80.3977 22.7203 80.3456C23.0177 80.2935 23.3225 80.3018 23.6167 80.3701C23.9109 80.4384 24.1886 80.5653 24.4333 80.7432C24.6781 80.9212 24.885 81.1466 25.0419 81.4063C25.1987 81.666 25.3024 81.9547 25.3468 82.2553Z" fill="#17C3B2"/>
<path opacity="0.1" d="M33.2622 91.0929C32.8348 92.2718 29.4391 94.8942 29.4391 94.8942C29.4391 94.8942 28.5843 90.6798 29.0224 89.5031C29.12 89.2148 29.274 88.9491 29.4753 88.7218C29.6767 88.4944 29.9213 88.31 30.1946 88.1795C30.468 88.049 30.7646 87.975 31.0668 87.9618C31.3691 87.9487 31.6709 87.9967 31.9544 88.103C32.2379 88.2093 32.4974 88.3718 32.7175 88.5808C32.9375 88.7898 33.1138 89.0411 33.2357 89.3198C33.3576 89.5986 33.4228 89.8991 33.4273 90.2036C33.4319 90.5082 33.3757 90.8106 33.2622 91.0929Z" fill="#17C3B2"/>
<path opacity="0.1" d="M37.752 99.1452C37.5212 100.382 34.6234 103.553 34.6234 103.553C34.6234 103.553 33.0741 99.5454 33.3071 98.3105C33.3622 98.0167 33.4743 97.7367 33.6369 97.4865C33.7996 97.2363 34.0096 97.0208 34.2549 96.8523C34.5003 96.6838 34.7762 96.5656 35.067 96.5044C35.3577 96.4433 35.6576 96.4404 35.9495 96.4959C36.2413 96.5514 36.5195 96.6642 36.768 96.828C37.0165 96.9917 37.2306 97.2031 37.398 97.4501C37.5654 97.6971 37.6828 97.9749 37.7435 98.2676C37.8043 98.5603 37.8072 98.8622 37.752 99.156V99.1452Z" fill="#17C3B2"/>
<path opacity="0.1" d="M20.6326 90.895C21.8806 90.9251 25.5583 88.7436 25.5583 88.7436C25.5583 88.7436 21.9896 86.3772 20.7394 86.3471C20.1469 86.3447 19.5771 86.5764 19.1524 86.9923C18.7278 87.4082 18.482 87.9752 18.468 88.5715C18.454 89.1678 18.6729 89.7459 19.0776 90.1815C19.4823 90.6171 20.0406 90.8756 20.6326 90.9014V90.895Z" fill="#17C3B2"/>
<path opacity="0.1" d="M26.0029 100.247C27.2039 99.8982 30.0632 96.7013 30.0632 96.7013C30.0632 96.7013 25.9559 95.5203 24.7549 95.8688C24.1909 96.0465 23.7183 96.4394 23.4383 96.9633C23.1582 97.4872 23.0928 98.1006 23.2561 98.6724C23.4193 99.2442 23.7983 99.729 24.312 100.023C24.8257 100.317 25.4334 100.398 26.005 100.247H26.0029Z" fill="#17C3B2"/>
<path opacity="0.1" d="M32.4608 108.613C33.7046 108.475 37.0575 105.816 37.0575 105.816C37.0575 105.816 33.2109 103.953 31.965 104.095C31.6581 104.112 31.3578 104.192 31.0825 104.33C30.8072 104.468 30.5628 104.66 30.364 104.897C30.1653 105.133 30.0164 105.407 29.9266 105.703C29.8368 105.999 29.8079 106.31 29.8417 106.618C29.8754 106.926 29.9711 107.223 30.123 107.492C30.2748 107.761 30.4795 107.996 30.7247 108.183C30.9698 108.37 31.2502 108.504 31.5487 108.578C31.8472 108.652 32.1576 108.664 32.4608 108.613Z" fill="#17C3B2"/>
</g>
<path opacity="0.1" d="M153.164 173.471C159.3 176.158 166.786 174.523 173.748 174.712C174.699 174.738 175.71 174.817 176.473 175.282C177.235 175.747 177.614 176.498 178.137 177.143C180.088 179.54 184.087 180.31 187.581 179.903C191.075 179.497 194.278 178.15 197.575 177.126C203.275 175.353 209.788 174.544 215.411 176.48C215.926 176.657 216.479 176.861 217.022 176.79C218.255 176.633 218.623 175.347 219.484 174.613C221.039 173.286 224.42 173.647 225.104 171.898C225.504 170.874 224.583 169.824 223.578 169.125C219.732 166.449 214.24 166.008 209.211 166.421C204.183 166.834 199.24 167.972 194.186 167.976C187.888 167.976 181.804 166.229 175.569 165.513C171.25 165.018 166.536 165.083 162.486 166.539C158.097 168.114 157.131 171.661 153.164 173.471Z" fill="#17C3B2"/>
<path opacity="0.1" d="M37.0576 165.229C47.5289 168.265 60.3081 166.417 72.1897 166.632C73.816 166.662 75.5384 166.75 76.8441 167.277C78.1498 167.804 78.7909 168.654 79.6863 169.381C83.0157 172.09 89.8391 172.961 95.8013 172.501C101.764 172.04 107.234 170.519 112.863 169.362C122.591 167.359 133.712 166.447 143.307 168.63C144.187 168.83 145.114 169.061 146.059 168.981C148.162 168.802 148.788 167.35 150.26 166.52C152.917 165.014 158.684 165.429 159.851 163.454C160.535 162.297 158.962 161.109 157.248 160.32C150.692 157.297 141.311 156.798 132.726 157.265C124.142 157.732 115.705 159.016 107.082 159.023C96.3334 159.023 85.9477 157.05 75.3033 156.239C67.9307 155.679 59.8849 155.748 52.9718 157.4C45.4774 159.184 43.8255 163.192 37.0576 165.229Z" fill="#17C3B2"/>
<path opacity="0.1" d="M9.02881 172.668C12.0206 174.48 15.6535 173.378 19.0427 173.505C19.5065 173.522 19.998 173.576 20.3698 173.888C20.7416 174.2 20.9254 174.71 21.1797 175.144C22.1286 176.76 24.0732 177.281 25.7721 177.005C27.471 176.73 29.031 175.824 30.6359 175.132C33.414 173.938 36.5789 173.393 39.3121 174.701C39.5463 174.852 39.8207 174.927 40.0985 174.916C40.6969 174.809 40.8764 173.942 41.2952 173.447C42.0517 172.552 43.6972 172.802 44.0284 171.616C44.2229 170.926 43.7741 170.218 43.2869 169.747C41.4192 167.942 38.7436 167.645 36.2968 167.923C33.8499 168.2 31.4458 168.953 28.9862 168.953C25.9238 168.953 22.9641 167.776 19.9296 167.292C17.8268 166.957 15.5338 167 13.5635 167.985C11.4286 169.061 10.9585 171.453 9.02881 172.668Z" fill="#17C3B2"/>
<path d="M148.623 7.67372H49.3345C48.1403 7.67174 46.9573 7.90662 45.8532 8.36495C44.7491 8.82328 43.7455 9.49608 42.8998 10.3449C42.054 11.1938 41.3826 12.202 40.9239 13.3121C40.4653 14.4222 40.2284 15.6124 40.2267 16.8146V155.301C40.2318 157.728 41.1941 160.053 42.902 161.766C44.6099 163.479 46.9237 164.439 49.3345 164.435H148.623C149.818 164.437 151.001 164.202 152.105 163.744C153.209 163.286 154.212 162.613 155.058 161.764C155.904 160.915 156.575 159.907 157.034 158.797C157.493 157.687 157.73 156.497 157.731 155.294V16.8146C157.73 15.6124 157.493 14.4222 157.034 13.3121C156.575 12.202 155.904 11.1938 155.058 10.3449C154.212 9.49608 153.209 8.82328 152.105 8.36495C151.001 7.90662 149.818 7.67174 148.623 7.67372Z" fill="url(#paint0_linear)"/>
<path d="M152.049 9.55182H45.9004C43.54 9.55182 41.6265 11.4782 41.6265 13.8544V158.732C41.6265 161.108 43.54 163.035 45.9004 163.035H152.049C154.409 163.035 156.323 161.108 156.323 158.732V13.8544C156.323 11.4782 154.409 9.55182 152.049 9.55182Z" fill="#227C9D"/>
<path d="M150.495 24.0688H47.454V148.516H150.495V24.0688Z" fill="#F6F7F9"/>
<path d="M98.5089 18C99.2819 18 99.9086 17.3691 99.9086 16.5909C99.9086 15.8127 99.2819 15.1818 98.5089 15.1818C97.7358 15.1818 97.1091 15.8127 97.1091 16.5909C97.1091 17.3691 97.7358 18 98.5089 18Z" fill="#F6F7F9"/>
<path d="M98.5088 159.75C100.827 159.75 102.706 157.858 102.706 155.525C102.706 153.191 100.827 151.299 98.5088 151.299C96.1909 151.299 94.3118 153.191 94.3118 155.525C94.3118 157.858 96.1909 159.75 98.5088 159.75Z" fill="#F6F7F9"/>
<g opacity="0.2">
<path opacity="0.2" d="M150.495 24.0688H47.454V30.2711H150.495V24.0688Z" fill="#17C3B2"/>
</g>
<path d="M50.6766 28.4941C51.4024 28.4941 51.9908 27.9017 51.9908 27.171C51.9908 26.4403 51.4024 25.848 50.6766 25.848C49.9507 25.848 49.3623 26.4403 49.3623 27.171C49.3623 27.9017 49.9507 28.4941 50.6766 28.4941Z" fill="#F6F7F9"/>
<path d="M54.0252 28.4941C54.751 28.4941 55.3394 27.9017 55.3394 27.171C55.3394 26.4403 54.751 25.848 54.0252 25.848C53.2993 25.848 52.7109 26.4403 52.7109 27.171C52.7109 27.9017 53.2993 28.4941 54.0252 28.4941Z" fill="#F6F7F9"/>
<path d="M57.3717 28.4941C58.0976 28.4941 58.686 27.9017 58.686 27.171C58.686 26.4403 58.0976 25.848 57.3717 25.848C56.6459 25.848 56.0575 26.4403 56.0575 27.171C56.0575 27.9017 56.6459 28.4941 57.3717 28.4941Z" fill="#F6F7F9"/>
<path d="M146.484 60.6518H50.5312V60.9745H146.484V60.6518Z" fill="#DCE0ED"/>
<path d="M146.484 68.1449H50.5312V68.4676H146.484V68.1449Z" fill="#DCE0ED"/>
<path d="M146.484 75.64H50.5312V75.9627H146.484V75.64Z" fill="#DCE0ED"/>
<path d="M146.484 83.133H50.5312V83.4557H146.484V83.133Z" fill="#DCE0ED"/>
<path d="M146.484 90.6261H50.5312V90.9487H146.484V90.6261Z" fill="#DCE0ED"/>
<g opacity="0.2">
<path opacity="0.2" d="M146.484 90.9487H50.4137V76.2123L59.2245 80.5837L68.343 81.8293L76.3439 79.4005L85.9967 71.8645L90.8519 69.0419L94.4015 68.3535L97.7972 68.5364L103.381 71.3137L110.974 76.1821L116.932 76.9523L121.655 75.313L131.668 67.0584L136.78 65.2234L142.129 66.0559L146.484 68.588V90.9487Z" fill="#17C3B2"/>
</g>
<path d="M67.1592 81.825C58.5065 81.825 50.5121 76.4984 50.4116 76.4295L50.651 76.0724C50.7749 76.1563 63.0797 84.3506 73.536 80.2459C77.3484 78.74 80.0623 76.4209 82.6887 74.1685C85.4305 71.8171 88.0183 69.597 91.5487 68.6332C95.5961 67.5296 100.02 68.5278 103.381 71.3094C106.255 73.6866 111.978 77.503 118.024 76.3628C121.105 75.7798 123.702 73.5145 126.452 71.1158C131.724 66.5163 137.178 61.7598 146.61 68.5837L146.36 68.9322C137.201 62.3062 131.88 66.9509 126.732 71.4407C123.937 73.8781 121.298 76.1735 118.103 76.7845C111.884 77.9591 106.042 74.0652 103.11 71.6407C99.8551 68.9494 95.5769 67.9835 91.6598 69.0484C88.2235 69.9864 85.6762 72.1764 82.9644 74.4955C80.3124 76.7716 77.5706 79.123 73.692 80.6461C71.6065 81.4458 69.3908 81.8456 67.1592 81.825Z" fill="#17C3B2"/>
<path d="M96.703 70.7264C98.0166 70.7264 99.0815 69.6544 99.0815 68.332C99.0815 67.0096 98.0166 65.9376 96.703 65.9376C95.3895 65.9376 94.3246 67.0096 94.3246 68.332C94.3246 69.6544 95.3895 70.7264 96.703 70.7264Z" fill="#17C3B2"/>
<g opacity="0.2">
<path opacity="0.2" d="M127.728 36.6475H97.7245C97.5953 36.6475 97.4714 36.6992 97.38 36.7912C97.2886 36.8832 97.2373 37.008 97.2373 37.138V57.5647C97.2374 57.6629 97.2668 57.7589 97.3217 57.8401C97.3766 57.9213 97.4545 57.984 97.5452 58.0201C97.6359 58.0563 97.7353 58.0642 97.8305 58.0429C97.9257 58.0215 98.0124 57.9718 98.0793 57.9003L103.279 52.3177C103.324 52.2688 103.379 52.2298 103.44 52.2031C103.501 52.1765 103.567 52.1627 103.633 52.1628H127.728C127.857 52.1628 127.981 52.1111 128.072 52.0191C128.164 51.9271 128.215 51.8024 128.215 51.6723V37.1337C128.214 37.0044 128.162 36.8807 128.071 36.7897C127.98 36.6986 127.856 36.6475 127.728 36.6475Z" fill="#17C3B2"/>
</g>
<path d="M121.268 40.4295H104.182V42.5809H121.268V40.4295Z" fill="#F6F7F9"/>
<path d="M108.873 45.1968H104.182V47.3482H108.873V45.1968Z" fill="#F6F7F9"/>
<g opacity="0.2">
<path opacity="0.2" d="M63.3255 106.343H58.6348V108.495H63.3255V106.343Z" fill="#17C3B2"/>
</g>
<g opacity="0.2">
<path opacity="0.2" d="M63.3255 110.502H58.6348V112.653H63.3255V110.502Z" fill="#17C3B2"/>
</g>
<g opacity="0.2">
<path opacity="0.2" d="M63.3255 114.66H58.6348V116.812H63.3255V114.66Z" fill="#17C3B2"/>
</g>
<g opacity="0.2">
<path opacity="0.2" d="M63.3255 118.821H58.6348V120.972H63.3255V118.821Z" fill="#17C3B2"/>
</g>
<g opacity="0.2">
<path opacity="0.2" d="M63.3255 122.98H58.6348V125.131H63.3255V122.98Z" fill="#17C3B2"/>
</g>
<g opacity="0.2">
<path opacity="0.2" d="M63.3255 127.138H58.6348V129.289H63.3255V127.138Z" fill="#17C3B2"/>
</g>
<g opacity="0.2">
<path opacity="0.2" d="M63.3255 131.299H58.6348V133.45H63.3255V131.299Z" fill="#17C3B2"/>
</g>
<g opacity="0.2">
<path opacity="0.2" d="M63.3255 135.457H58.6348V137.608H63.3255V135.457Z" fill="#17C3B2"/>
</g>
<g opacity="0.2">
<path opacity="0.2" d="M72.1576 137.608H67.4669V139.76H72.1576V137.608Z" fill="#17C3B2"/>
</g>
<g opacity="0.2">
<path opacity="0.2" d="M80.4213 137.608H75.7306V139.76H80.4213V137.608Z" fill="#17C3B2"/>
</g>
<g opacity="0.2">
<path opacity="0.2" d="M88.6851 137.608H83.9944V139.76H88.6851V137.608Z" fill="#17C3B2"/>
</g>
<g opacity="0.2">
<path opacity="0.2" d="M96.9467 137.608H92.256V139.76H96.9467V137.608Z" fill="#17C3B2"/>
</g>
<g opacity="0.2">
<path opacity="0.2" d="M105.21 137.608H100.52V139.76H105.21V137.608Z" fill="#17C3B2"/>
</g>
<g opacity="0.2">
<path opacity="0.2" d="M113.474 137.608H108.783V139.76H113.474V137.608Z" fill="#17C3B2"/>
</g>
<g opacity="0.2">
<path opacity="0.2" d="M121.736 137.608H117.045V139.76H121.736V137.608Z" fill="#17C3B2"/>
</g>
<g opacity="0.2">
<path opacity="0.2" d="M130 137.608H125.309V139.76H130V137.608Z" fill="#17C3B2"/>
</g>
<g opacity="0.2">
<path opacity="0.2" d="M138.263 137.608H133.573V139.76H138.263V137.608Z" fill="#17C3B2"/>
</g>
<path d="M121.268 45.1968H114.145V47.3482H121.268V45.1968Z" fill="#F6F7F9"/>
<path d="M72.1576 121.975H67.4669V135.457H72.1576V121.975Z" fill="#17C3B2"/>
<path d="M80.4213 115.736H75.7306V135.457H80.4213V115.736Z" fill="#17C3B2"/>
<path d="M88.6851 110.502H83.9944V135.457H88.6851V110.502Z" fill="#17C3B2"/>
<path d="M96.9467 113.215H92.256V135.455H96.9467V113.215Z" fill="#17C3B2"/>
<path d="M105.21 108.495H100.52V135.457H105.21V108.495Z" fill="#17C3B2"/>
<g opacity="0.2">
<path opacity="0.2" d="M113.474 118.821H108.783V135.457H113.474V118.821Z" fill="#17C3B2"/>
</g>
<g opacity="0.2">
<path opacity="0.2" d="M121.736 118.821H117.045V135.457H121.736V118.821Z" fill="#17C3B2"/>
</g>
<g opacity="0.2">
<path opacity="0.2" d="M130 118.821H125.309V135.457H130V118.821Z" fill="#17C3B2"/>
</g>
<g opacity="0.2">
<path opacity="0.2" d="M138.263 118.821H133.573V135.457H138.263V118.821Z" fill="#17C3B2"/>
</g>
<path d="M211.451 58.6232C206.371 55.6823 204.452 54.953 204.441 54.9487L204.339 54.8734C203.785 54.4451 203.344 53.8857 203.057 53.2449C203.057 53.1266 203.057 53.0104 203.057 52.8942V52.9286C203.138 51.3711 204.238 49.9534 205.283 48.7164L207.953 45.554C208.257 45.2418 208.492 44.8677 208.641 44.4568C208.696 44.2368 208.72 44.0102 208.713 43.7834C208.713 43.6909 208.713 43.5984 208.713 43.5081C208.7 42.7228 208.677 41.9355 208.649 41.1416C208.624 40.4554 208.448 39.5905 207.767 39.4485C207.412 39.3754 206.944 39.5045 206.756 39.1968C206.693 39.0712 206.677 38.9268 206.711 38.7902C206.71 38.801 206.71 38.8118 206.711 38.8225V38.7838C206.844 38.254 206.929 37.7133 206.965 37.1682C206.979 36.8911 206.941 36.6139 206.854 36.3507C206.459 35.2105 205.1 34.7436 203.897 34.5285C202.693 34.3134 201.347 34.1284 200.593 33.1818C200.36 32.8892 200.202 32.5364 199.937 32.2718C199.589 31.9614 199.164 31.7504 198.708 31.6608C197.216 31.2896 195.643 31.4273 194.237 32.0523C193.656 32.3127 193.073 32.6655 192.436 32.6267C191.799 32.588 191.207 32.1255 190.553 32.0136C189.498 31.8329 188.487 32.6138 187.967 33.5367C187.659 34.0857 187.494 34.7046 187.489 35.3352C187.489 35.3697 187.489 35.4062 187.489 35.4407C187.473 36.1186 187.719 36.7763 188.175 37.2757C188.63 37.7512 189.309 38.0782 189.498 38.7042C189.574 38.958 189.555 39.2334 189.624 39.4916C189.624 39.5238 189.643 39.5561 189.654 39.5862L189.619 39.6314C188.53 41.0373 187.94 42.7704 187.944 44.5536C187.955 46.2834 188.512 47.9649 189.535 49.3548C190.558 50.7447 191.994 51.771 193.635 52.2854C193.635 52.365 193.635 52.4468 193.635 52.5264C193.635 53.503 193.359 54.4991 192.53 55.2327L185.337 58.1456C185.337 58.1456 181.001 57.6271 179.437 64.0079C179.185 65.0672 179.094 66.1589 179.167 67.2456C179.225 68.2072 179.093 69.9025 177.981 72.0947C176.201 75.6013 176.607 83.6515 180.244 84.4496C183.678 85.2026 185.023 84.8799 185.159 84.8519V84.9917C185.104 86.4977 184.559 99.5324 182.578 101.109C182.031 101.54 182.133 101.841 182.578 102.039C182.578 102.039 182.578 102.123 182.565 102.273C182.505 103.226 182.2 106.855 180.875 108.921C179.338 111.311 179.499 125.103 179.499 125.103L178.466 133.241C178.466 133.241 179.107 138.262 178.466 139.14C177.889 139.921 177.12 158.502 176.97 162.527H176.902C176.586 162.546 176.278 162.643 176.008 162.809C175.737 162.975 175.511 163.206 175.349 163.48C174.494 164.87 171.523 167.436 171.523 167.436C170.882 168.359 168.491 169.241 167.228 169.659C167.059 169.713 166.895 169.786 166.741 169.874C166.269 170.133 165.89 170.535 165.657 171.023C165.575 171.167 165.522 171.326 165.502 171.49C165.482 171.655 165.495 171.822 165.54 171.982C165.865 172.778 172.575 173.335 174.271 172.539C175.607 171.911 180.896 171.087 183.091 170.764C183.489 170.713 183.86 170.531 184.144 170.245C184.428 169.959 184.61 169.587 184.662 169.185C184.681 169.046 184.672 168.904 184.635 168.768C184.598 168.631 184.535 168.504 184.448 168.394C184.02 167.869 183.807 166.438 183.715 165.504C183.893 165.432 184.06 165.333 184.208 165.21C184.028 162.314 184.441 159.411 185.42 156.682C187.038 152.379 187.523 144.404 187.13 139.224C187.13 139.224 192.062 117.862 195.943 115.867C196.003 115.943 197.885 118.378 198.125 125.91C198.368 133.562 201.116 138.583 201.116 138.583C201.116 138.583 199.903 151.577 201.116 156.439L199.529 164.11C199.413 164.009 199.338 163.932 199.338 163.932C199.338 163.932 199.385 164.147 199.452 164.487L199.417 164.648L199.486 164.665C199.665 165.625 199.932 167.297 199.823 168.278C199.759 168.835 199.61 169.601 199.499 170.351C199.332 171.532 199.285 172.677 199.903 172.933C200.913 173.342 206.856 173.901 207.867 172.587C208.094 172.318 208.242 171.992 208.294 171.644C208.346 171.295 208.3 170.939 208.162 170.616C208.088 170.435 207.989 170.267 207.867 170.115C207.867 170.115 206.29 167.518 206.734 165.687C206.777 165.508 206.782 165.323 206.749 165.142C206.717 164.961 206.648 164.788 206.546 164.635C206.615 163.736 206.974 159.578 207.908 156.045C208.918 152.209 211.053 143.8 209.483 138.269C209.423 138.054 209.354 137.839 209.282 137.624C208.375 134.605 208.073 131.435 208.393 128.298C207.81 125.619 207.81 122.845 208.393 120.166C209.363 115.702 210.04 111.317 210.04 111.317C210.04 111.317 210.577 105.421 210.109 101.804L210.077 101.572L210.333 101.514C210.333 101.514 208.959 95.3761 208.474 91.4715C208.359 90.5486 208.209 89.3804 208.047 88.1327C208.495 88.0606 208.936 87.9505 209.365 87.8035C213.716 86.2825 215.084 72.5744 215.084 72.5744V68.2288C215.084 68.2288 216.545 61.5726 211.451 58.6232ZM178.926 164.483C178.791 164.414 178.712 164.369 178.712 164.369L178.926 164.483Z" fill="url(#paint1_linear)"/>
<path d="M208.816 137.74C210.709 143.221 208.5 152.117 207.474 156.088C206.448 160.06 206.132 164.829 206.132 164.829C202.108 165.464 199.189 164.668 199.189 164.668L200.845 156.493C199.661 151.648 200.845 138.699 200.845 138.699C200.845 138.699 198.163 133.695 197.926 126.069C197.693 118.561 195.855 116.136 195.789 116.061C192.002 118.047 187.187 139.338 187.187 139.338C187.583 144.501 187.108 152.444 185.531 156.734C184.575 159.458 184.172 162.349 184.347 165.233C183.796 165.702 183.029 165.782 182.2 165.649C179.954 165.272 177.259 163.319 177.259 163.319C177.259 163.319 178.114 140.125 178.755 139.25C179.396 138.374 178.755 133.37 178.755 133.37L179.779 125.269C179.779 125.269 179.623 111.524 181.121 109.134C182.416 107.075 182.713 103.459 182.77 102.51C182.77 102.359 182.783 102.275 182.783 102.275L185.065 99.5217C185.065 99.5217 207.162 97.8544 208.818 99.5217C209.226 99.9326 209.476 100.862 209.626 102.034C210.081 105.638 209.56 111.515 209.56 111.515C209.56 111.515 208.897 115.885 207.95 120.336C207.38 123.006 207.38 125.767 207.95 128.437C207.636 131.565 207.93 134.725 208.816 137.74Z" fill="#227C9D"/>
<path d="M207.435 172.574C206.448 173.884 200.648 173.327 199.661 172.92C199.058 172.668 199.105 171.528 199.268 170.351C199.37 169.603 199.522 168.845 199.584 168.284C199.742 166.853 199.11 163.953 199.11 163.953C199.11 163.953 200.413 165.343 200.727 163.953C200.866 163.347 201.351 163.035 201.854 162.878C202.53 162.673 203.257 162.719 203.903 163.007C204.927 163.454 206.638 164.409 206.331 165.7C205.903 167.525 207.435 170.113 207.435 170.113C207.554 170.264 207.651 170.432 207.722 170.612C207.857 170.934 207.902 171.287 207.851 171.633C207.801 171.979 207.657 172.304 207.435 172.574Z" fill="#A27772"/>
<path opacity="0.1" d="M207.435 172.574C206.448 173.884 200.648 173.327 199.661 172.92C199.058 172.668 199.105 171.528 199.268 170.351C199.89 170.644 200.95 170.889 202.715 170.724C203.127 170.685 203.542 170.672 203.956 170.685C205.212 170.743 206.47 170.718 207.722 170.61C207.857 170.932 207.902 171.286 207.852 171.632C207.801 171.978 207.657 172.304 207.435 172.574Z" fill="#227C9D"/>
<path opacity="0.1" d="M187.194 139.33C187.589 144.493 187.115 152.435 185.538 156.725C184.581 159.45 184.179 162.34 184.354 165.225C183.803 165.694 183.035 165.773 182.206 165.64C182.683 162.284 184.711 147.853 186.021 136.449C187.491 123.461 194.415 114.525 194.415 114.525L195.795 116.054C192.004 118.038 187.194 139.33 187.194 139.33Z" fill="#227C9D"/>
<path d="M205.068 55.8394L204.104 60.6045L199.385 68.588L193.566 66.0861C193.566 66.0861 185.66 57.7454 190.628 56.5536C191.223 56.4256 191.785 56.1735 192.278 55.8136C193.254 55.0735 193.56 53.9957 193.56 52.9416C193.56 51.2011 192.752 49.5231 192.752 49.5231L202.931 46.2962C202.51 47.6427 202.265 49.0382 202.2 50.4482C202.123 53.2449 203.153 54.6131 203.997 55.2693C204.313 55.5286 204.677 55.7224 205.068 55.8394Z" fill="#FBBEBE"/>
<path opacity="0.1" d="M202.937 46.3069C202.517 47.6534 202.271 49.049 202.206 50.4589C202.021 50.6811 201.823 50.8923 201.614 51.0914C200.564 52.1025 199.261 52.8083 197.844 53.1341C196.427 53.4598 194.949 53.3933 193.566 52.9415C193.566 51.2011 192.759 49.5231 192.759 49.5231L202.937 46.3069Z" fill="#227C9D"/>
<path d="M204.104 44.9968C204.103 46.5994 203.631 48.166 202.746 49.4982C201.861 50.8305 200.603 51.8685 199.132 52.4812C197.661 53.0938 196.043 53.2534 194.481 52.9399C192.92 52.6263 191.486 51.8537 190.361 50.7197C189.236 49.5857 188.471 48.1412 188.162 46.5691C187.852 44.997 188.013 43.3679 188.623 41.8877C189.234 40.4076 190.267 39.143 191.591 38.2539C192.916 37.3648 194.473 36.8911 196.065 36.8928C197.122 36.8894 198.17 37.0967 199.148 37.5029C200.125 37.9091 201.013 38.5061 201.761 39.2594C202.508 40.0128 203.1 40.9076 203.502 41.8923C203.904 42.877 204.109 43.9321 204.104 44.9968Z" fill="#FBBEBE"/>
<path opacity="0.1" d="M205.068 55.8394L204.104 60.6045L199.385 68.588L193.566 66.0861C193.566 66.0861 185.66 57.7454 190.628 56.5536C191.223 56.4256 191.785 56.1735 192.278 55.8136C191.38 58.2983 195.086 63.4658 195.086 63.4658C195.513 64.1112 196.507 63.7024 196.507 63.7024C198.892 63.341 203.288 56.4288 204.003 55.28C204.318 55.5348 204.68 55.7249 205.068 55.8394Z" fill="#227C9D"/>
<path opacity="0.1" d="M209.624 102.047C208.224 102.368 200.471 104.098 197.531 103.665C194.297 103.188 188.006 102.871 188.006 102.871C188.006 102.871 184.001 103.086 182.768 102.523C182.768 102.372 182.781 102.288 182.781 102.288L185.063 99.5346C185.063 99.5346 207.16 97.8673 208.816 99.5346C209.224 99.9412 209.474 100.871 209.624 102.047Z" fill="#227C9D"/>
<path d="M195.086 63.7024C195.086 63.7024 190.923 57.8939 192.492 55.6371L185.459 58.5393C185.459 58.5393 181.225 58.023 179.689 64.3822C179.444 65.4389 179.355 66.5264 179.426 67.6092C179.482 68.5687 179.353 70.2574 178.268 72.441C176.53 75.9369 176.926 83.9591 180.477 84.7551C184.029 85.5511 185.29 85.1509 185.29 85.1509C185.29 85.1509 184.818 99.6895 182.766 101.357C180.715 103.024 187.995 102.628 187.995 102.628C187.995 102.628 194.287 102.947 197.522 103.422C200.757 103.897 209.831 101.755 209.831 101.755C209.831 101.755 208.489 95.6364 208.017 91.7447C207.544 87.853 206.438 79.564 206.438 79.564L214.488 68.5923C214.488 68.5923 215.906 61.9598 210.936 59.0212C205.965 56.0825 204.097 55.3639 204.097 55.3639C204.097 55.3639 199.11 63.5389 196.507 63.9412C196.507 63.9412 195.517 64.3413 195.086 63.7024Z" fill="#17C3B2"/>
<path opacity="0.1" d="M185.854 66.0065C185.854 66.0065 185.775 68.6289 186.247 69.6637C186.719 70.6985 188.457 76.4166 188.457 76.4166H184.512C184.512 76.4166 186.649 74.1126 186.484 73.0004C186.32 71.8881 185.854 66.0065 185.854 66.0065Z" fill="#227C9D"/>
<path d="M197.533 85.7877C197.533 85.7877 188.818 83.6364 188.006 81.8143C187.194 79.9921 184.952 75.9003 184.952 75.9003L185.871 74.6526L190.111 78.0022C190.111 78.0022 195.161 82.0531 197.528 82.4511C199.896 82.8491 197.533 85.7877 197.533 85.7877Z" fill="#FBBEBE"/>
<path opacity="0.05" d="M197.533 85.7877C197.533 85.7877 188.818 83.6364 188.006 81.8143C187.194 79.9921 184.952 75.9003 184.952 75.9003L185.871 74.6526L190.111 78.0022C190.111 78.0022 195.161 82.0531 197.528 82.4511C199.896 82.8491 197.533 85.7877 197.533 85.7877Z" fill="#227C9D"/>
<path d="M205.068 75.4615V80.2202H204.307C200.553 80.2209 196.86 81.1833 193.577 83.0169L192.154 83.8128L191.771 84.028L189.324 78.4819L191.613 76.4166H191.731C192.291 76.4704 194.712 76.6748 195.738 76.3263C196.712 75.9928 197.922 74.9365 200.792 75.6809C202.206 76.0445 203.414 77.6407 204.786 77.1416L205.068 75.4615Z" fill="#FBBEBE"/>
<path opacity="0.1" d="M212.682 66.8024L214.261 68.588V72.9186C214.261 72.9186 212.919 86.5816 208.658 88.0918C204.397 89.602 196.791 87.2162 196.791 87.2162C196.791 87.2162 194.825 81.9735 195.744 81.6572C196.663 81.341 203.865 79.4242 203.865 79.4242C203.865 79.4242 203.764 71.4084 205.341 69.0247C205.341 69.0247 204.315 61.5597 207.867 61.4005C211.419 61.2413 212.682 66.8024 212.682 66.8024Z" fill="#227C9D"/>
<path d="M212.919 66.8024L214.498 68.588V72.9186C214.498 72.9186 213.16 86.5816 208.886 88.0918C204.612 89.602 197.018 87.2162 197.018 87.2162C197.018 87.2162 195.054 81.9735 195.973 81.6572C196.892 81.341 204.093 79.4242 204.093 79.4242C204.093 79.4242 203.991 71.4084 205.57 69.0247C205.57 69.0247 204.544 61.5597 208.096 61.4005C211.647 61.2413 212.919 66.8024 212.919 66.8024Z" fill="#17C3B2"/>
<path opacity="0.1" d="M201.896 48.4389C201.928 47.9161 201.939 47.3632 201.717 46.8921C201.495 46.4209 200.973 46.0445 200.465 46.1649C199.789 46.3241 199.499 47.2083 198.836 47.4213C198.278 47.5999 197.669 47.2062 197.404 46.6769C197.139 46.1477 197.131 45.5367 197.129 44.9559C197.129 44.2933 197.129 43.6285 197.129 42.9659C197.129 42.2431 197.105 41.46 196.663 40.8964C196.114 40.1886 194.821 39.881 193.957 39.9089C193.382 39.9157 192.831 40.1399 192.412 40.5371C191.951 40.9308 191.417 41.2234 190.786 41.118C190.524 41.078 190.279 40.9643 190.079 40.7899C189.878 40.6156 189.731 40.3877 189.654 40.1327V40.1068C190.324 39.2145 191.172 38.4717 192.142 37.9254C193.112 37.3791 194.184 37.0411 195.291 36.9327C196.397 36.8242 197.514 36.9478 198.571 37.2955C199.628 37.6432 200.601 38.2075 201.431 38.9529C202.26 39.6983 202.927 40.6086 203.389 41.6263C203.852 42.6441 204.1 43.7472 204.117 44.8662C204.135 45.9853 203.923 47.0959 203.493 48.128C203.063 49.1602 202.426 50.0916 201.621 50.8634C201.758 50.0611 201.85 49.2516 201.896 48.4389Z" fill="#227C9D"/>
<path d="M190.782 40.8727C190.52 40.8324 190.274 40.7182 190.074 40.5435C189.874 40.3688 189.726 40.1406 189.649 39.8853C189.583 39.6293 189.6 39.356 189.525 39.1C189.342 38.4762 188.671 38.1513 188.243 37.678C187.354 36.7271 187.412 35.1653 188.042 34.0208C188.551 33.1 189.538 32.3234 190.566 32.502C191.207 32.6138 191.756 33.0721 192.404 33.113C193.051 33.1538 193.594 32.801 194.163 32.5407C195.531 31.917 197.069 31.7797 198.524 32.1513C198.972 32.2418 199.387 32.4521 199.725 32.7601C199.954 33.0507 200.168 33.353 200.366 33.6658C201.104 34.6103 202.42 34.7953 203.593 35.0083C204.766 35.2212 206.091 35.6881 206.478 36.824C206.732 37.5769 206.478 38.3944 206.339 39.1775C206.29 39.3371 206.3 39.5094 206.369 39.6615C206.553 39.967 207.01 39.8401 207.356 39.9132C208.023 40.0531 208.194 40.9157 208.211 41.5999C208.24 42.3829 208.261 43.166 208.275 43.9491C208.315 44.3122 208.268 44.6796 208.139 45.021C208.01 45.3625 207.803 45.6683 207.534 45.9132L204.929 49.0649C203.773 50.4633 202.546 52.0918 202.779 53.8946C202.232 54.142 201.582 53.6644 201.403 53.0879C201.223 52.5113 201.369 51.8917 201.488 51.3001C201.699 50.2773 201.837 49.2406 201.901 48.1979C201.933 47.673 201.943 47.1223 201.721 46.6511C201.499 46.18 200.977 45.7906 200.469 45.9218C199.794 46.081 199.503 46.9652 198.84 47.1782C198.285 47.3568 197.674 46.9631 197.409 46.4339C197.144 45.9046 197.135 45.2937 197.133 44.7128V42.7207C197.133 42 197.11 41.2148 196.667 40.6511C196.118 39.9434 194.825 39.6357 193.962 39.6637C193.387 39.6708 192.835 39.895 192.417 40.2919C191.947 40.6856 191.412 40.976 190.782 40.8727Z" fill="#7C5C5C"/>
<path opacity="0.1" d="M192.6 65.8085L195.071 76.0272C195.071 76.0272 197.02 76.0165 192.6 65.8085Z" fill="#227C9D"/>
<path opacity="0.1" d="M201.044 64.1004C201.044 64.1004 197.808 69.4356 199.071 74.9494L199.674 74.9946C199.674 74.9946 198.597 72.441 201.044 64.1004Z" fill="#227C9D"/>
<path opacity="0.1" d="M203.095 94.2876C203.095 94.2876 207.068 92.9645 207.356 96.0344C207.356 96.0344 206.606 93.9304 203.095 94.2876Z" fill="#227C9D"/>
<path opacity="0.1" d="M191.613 76.6619C191.613 76.6619 190.825 82.223 192.254 84.4475C192.254 84.4475 189.365 85.6393 185.309 85.4005L184.828 76.6619H191.613Z" fill="#227C9D"/>
<path opacity="0.1" d="M192.154 83.8107L191.771 84.0258L189.324 78.4797L191.613 76.4145H191.731C191.694 76.6812 191.058 81.4572 192.154 83.8107Z" fill="#227C9D"/>
<path d="M191.613 76.4145C191.613 76.4145 190.825 81.9735 192.254 84.1979C192.254 84.1979 189.365 85.3897 185.309 85.151L182.548 76.4145H191.613Z" fill="#17C3B2"/>
<path d="M184.788 169.192C184.742 169.588 184.566 169.958 184.289 170.242C184.012 170.527 183.648 170.711 183.255 170.764C181.118 171.087 175.951 171.909 174.648 172.533C172.991 173.327 166.442 172.772 166.125 171.978C166.036 171.657 166.077 171.313 166.238 171.023C166.466 170.537 166.84 170.136 167.307 169.876C167.458 169.789 167.617 169.716 167.781 169.661C169.014 169.246 171.344 168.37 171.974 167.445C171.974 167.445 174.878 164.887 175.705 163.504C175.861 163.232 176.081 163.003 176.346 162.837C176.611 162.672 176.912 162.574 177.223 162.553C177.915 162.521 178.684 162.871 178.999 164.397C178.999 164.397 182.785 166.572 183.809 164.663C183.809 164.663 183.967 167.593 184.595 168.394C184.678 168.507 184.738 168.636 184.771 168.773C184.804 168.91 184.81 169.053 184.788 169.192Z" fill="#A27772"/>
<path opacity="0.1" d="M184.788 169.192C184.742 169.588 184.566 169.958 184.289 170.242C184.012 170.527 183.648 170.711 183.255 170.764C181.118 171.087 175.951 171.909 174.648 172.533C172.991 173.327 166.442 172.772 166.125 171.978C166.036 171.657 166.077 171.313 166.238 171.023C166.466 170.537 166.84 170.136 167.307 169.876C168.375 170.59 170.745 171.287 175.96 170.468C180.932 169.687 183.394 168.921 184.595 168.398C184.678 168.511 184.737 168.639 184.77 168.776C184.803 168.912 184.809 169.053 184.788 169.192Z" fill="#227C9D"/>
<g opacity="0.1">
<path opacity="0.1" d="M206.322 39.2937V39.2549C206.435 38.659 206.604 38.0437 206.566 37.45C206.515 37.9373 206.434 38.4209 206.322 38.8978C206.292 39.028 206.292 39.1634 206.322 39.2937Z" fill="#227C9D"/>
<path opacity="0.1" d="M201.715 46.7286C201.839 47.0151 201.905 47.3238 201.909 47.6364C201.946 47.2052 201.879 46.7714 201.715 46.3715C201.501 45.896 200.973 45.5217 200.465 45.6422C199.789 45.8014 199.499 46.6855 198.836 46.8985C198.278 47.0771 197.669 46.6834 197.402 46.1542C197.135 45.625 197.131 45.014 197.129 44.4331C197.129 43.7684 197.129 43.1058 197.129 42.441C197.129 41.7203 197.105 40.9351 196.663 40.3715C196.114 39.6637 194.819 39.356 193.957 39.384C193.382 39.3907 192.831 39.615 192.412 40.0122C191.949 40.408 191.417 40.6985 190.786 40.5952C190.524 40.5548 190.279 40.4407 190.078 40.266C189.878 40.0913 189.731 39.8631 189.654 39.6077C189.587 39.3517 189.604 39.0785 189.53 38.8225C189.344 38.1986 188.675 37.8738 188.247 37.4005C187.832 36.9394 187.596 36.3427 187.583 35.7203C187.55 36.0876 187.592 36.4577 187.706 36.8081C187.82 37.1584 188.005 37.4815 188.247 37.7576C188.692 38.2309 189.352 38.5579 189.53 39.1818C189.604 39.4356 189.587 39.7089 189.654 39.9649C189.731 40.2202 189.878 40.4484 190.078 40.6231C190.279 40.7978 190.524 40.9119 190.786 40.9523C191.427 41.0556 191.949 40.7651 192.412 40.3693C192.831 39.9721 193.382 39.7479 193.957 39.7411C194.812 39.7132 196.114 40.0229 196.663 40.7286C197.105 41.2965 197.127 42.0774 197.129 42.7981C197.129 43.4629 197.129 44.1255 197.129 44.7902C197.129 45.3797 197.129 45.9928 197.402 46.5113C197.676 47.0298 198.278 47.4342 198.836 47.2556C199.499 47.0405 199.789 46.1585 200.465 45.9993C200.98 45.881 201.495 46.2531 201.715 46.7286Z" fill="#227C9D"/>
<path opacity="0.1" d="M208.2 44.5407C208.056 44.9488 207.828 45.3214 207.529 45.6336C206.662 46.6848 205.794 47.7354 204.924 48.7852C203.828 50.1126 202.666 51.6486 202.751 53.3417C202.83 51.7885 203.905 50.375 204.924 49.1423L207.529 45.9928C207.827 45.6795 208.056 45.3064 208.2 44.8978C208.265 44.6159 208.288 44.326 208.269 44.0373C208.267 44.2073 208.244 44.3764 208.2 44.5407Z" fill="#227C9D"/>
<path opacity="0.1" d="M201.407 52.8082C201.365 52.6682 201.339 52.5238 201.33 52.3779C201.308 52.6415 201.334 52.9069 201.407 53.161C201.586 53.7375 202.238 54.213 202.785 53.9656C202.77 53.8494 202.762 53.7332 202.758 53.6171C202.206 53.8451 201.574 53.3761 201.407 52.8082Z" fill="#227C9D"/>
</g>
<path opacity="0.1" d="M175.178 164.22C175.178 164.22 176.002 165.681 178.99 164.394L175.178 164.22Z" fill="#227C9D"/>
<path opacity="0.1" d="M200.445 164.579C200.445 164.579 203.023 167.634 206.271 165.58L200.445 164.579Z" fill="#227C9D"/>
<path opacity="0.1" d="M207.948 128.444C207.948 128.444 206.125 129.591 206.068 130.247C206.01 130.903 207.008 129.769 207.008 129.769L207.948 128.444Z" fill="#227C9D"/>
<path opacity="0.1" d="M208.673 137.228C208.039 137.758 207.252 138.068 206.429 138.11C205.068 138.17 205.181 139.958 206.07 139.42C206.959 138.882 208.673 137.228 208.673 137.228Z" fill="#227C9D"/>
<path opacity="0.1" d="M209.013 138.374C209.013 138.374 208.139 142.698 207.429 141.864L209.013 138.374Z" fill="#227C9D"/>
<path d="M29.2255 158.489C29.2255 158.489 30.3987 160.034 28.6827 162.361C26.9667 164.689 25.552 166.664 26.1183 168.118C26.1183 168.118 28.7062 163.786 30.8197 163.725C32.9332 163.665 31.5441 161.094 29.2255 158.489Z" fill="#17C3B2"/>
<path opacity="0.1" d="M29.2255 158.489C29.3283 158.638 29.4089 158.801 29.4648 158.973C31.5206 161.404 32.6169 163.674 30.6402 163.732C28.8002 163.783 26.5799 167.099 26.0627 167.935C26.0802 168 26.1009 168.063 26.1247 168.125C26.1247 168.125 28.7126 163.792 30.8261 163.732C32.9396 163.672 31.5441 161.094 29.2255 158.489Z" fill="#227C9D"/>
<path d="M31.4074 160.458C31.4074 161.002 31.3475 161.443 31.2728 161.443C31.198 161.443 31.136 161.002 31.136 160.458C31.136 159.913 31.2129 160.171 31.2877 160.171C31.3625 160.171 31.4074 159.918 31.4074 160.458Z" fill="#FFD037"/>
<path d="M32.1575 161.107C31.6831 161.368 31.2685 161.525 31.2322 161.46C31.1958 161.395 31.5527 161.129 32.0271 160.868C32.5015 160.608 32.3135 160.797 32.3498 160.868C32.3861 160.939 32.6319 160.847 32.1575 161.107Z" fill="#FFD037"/>
<path d="M23.024 158.489C23.024 158.489 21.8508 160.034 23.5668 162.361C25.2828 164.689 26.6974 166.664 26.1311 168.118C26.1311 168.118 23.5432 163.786 21.4298 163.725C19.3163 163.665 20.7075 161.094 23.024 158.489Z" fill="#17C3B2"/>
<path opacity="0.1" d="M23.024 158.489C22.9221 158.638 22.8415 158.801 22.7846 158.973C20.7288 161.404 19.6326 163.674 21.6093 163.732C23.4514 163.783 25.6696 167.099 26.1867 167.935C26.1702 168 26.1495 168.063 26.1247 168.125C26.1247 168.125 23.5368 163.792 21.4234 163.732C19.3099 163.672 20.7075 161.094 23.024 158.489Z" fill="#227C9D"/>
<path d="M20.842 160.458C20.842 161.002 20.9019 161.443 20.9767 161.443C21.0515 161.443 21.1134 161.002 21.1134 160.458C21.1134 159.913 21.0365 160.171 20.9617 160.171C20.8869 160.171 20.842 159.918 20.842 160.458Z" fill="#FFD037"/>
<path d="M20.0941 161.107C20.5685 161.368 20.981 161.525 21.0173 161.46C21.0536 161.395 20.6968 161.129 20.2223 160.868C19.7479 160.608 19.936 160.797 19.8997 160.868C19.8633 160.939 19.6197 160.847 20.0941 161.107Z" fill="#FFD037"/>
<path d="M21.2161 167.923C21.2161 167.923 24.4985 167.821 25.49 167.111C26.4816 166.402 30.5376 165.556 30.7834 166.694C31.0291 167.832 35.7155 172.35 32.01 172.38C28.3045 172.41 23.4001 171.799 22.4128 171.193C21.4255 170.586 21.2161 167.923 21.2161 167.923Z" fill="#A8A8A8"/>
<path opacity="0.2" d="M32.0741 171.984C28.3686 172.014 23.4642 171.403 22.4769 170.797C21.7247 170.336 21.4255 168.682 21.325 167.918H21.2161C21.2161 167.918 21.4298 170.584 22.4106 171.188C23.3915 171.793 28.3023 172.406 32.0079 172.376C33.0764 172.376 33.4482 171.984 33.4268 171.416C33.2794 171.763 32.8712 171.978 32.0741 171.984Z" fill="#227C9D"/>
</g>
<defs>
<linearGradient id="paint0_linear" x1="98.9747" y1="164.442" x2="98.9747" y2="7.67372" gradientUnits="userSpaceOnUse">
<stop stop-color="#808080" stop-opacity="0.25"/>
<stop offset="0.54" stop-color="#808080" stop-opacity="0.12"/>
<stop offset="1" stop-color="#808080" stop-opacity="0.1"/>
</linearGradient>
<linearGradient id="paint1_linear" x1="47480.9" y1="118936" x2="47480.9" y2="25286.1" gradientUnits="userSpaceOnUse">
<stop stop-color="#808080" stop-opacity="0.25"/>
<stop offset="0.54" stop-color="#808080" stop-opacity="0.12"/>
<stop offset="1" stop-color="#808080" stop-opacity="0.1"/>
</linearGradient>
<clipPath id="clip0">
<rect width="231" height="180" fill="white"/>
</clipPath>
</defs>
</svg>
